<?xml version="1.0" encoding="UTF-8"?> <svg xmlns="http://www.w3.org/2000/svg" width="310" height="249" viewBox="0 0 310 249" fill="none"> <line y1="-1.5" x2="357.908" y2="-1.5" transform="matrix(0.888841 0.458215 -0.554617 0.832106 149.31 -130.829)" stroke="#FFB460" stroke-width="3"></line> <line y1="-1.5" x2="357.908" y2="-1.5" transform="matrix(0.888841 0.458215 -0.554617 0.832106 146.127 -86.0969)" stroke="#FFB460" stroke-width="3"></line> <line y1="-1.5" x2="357.908" y2="-1.5" transform="matrix(0.888841 0.458215 -0.554617 0.832106 145.026 -71.1768)" stroke="#FFB460" stroke-width="3"></line> <line y1="-1.5" x2="357.908" y2="-1.5" transform="matrix(0.888841 0.458215 -0.554617 0.832106 147.229 -101.017)" stroke="#FFB460" stroke-width="3"></line> <line y1="-1.5" x2="357.908" y2="-1.5" transform="matrix(0.888841 0.458215 -0.554617 0.832106 151.391 -160.64)" stroke="#FFB460" stroke-width="3"></line> <line y1="-1.5" x2="357.908" y2="-1.5" transform="matrix(0.888841 0.458215 -0.554617 0.832106 150.289 -145.72)" stroke="#FFB460" stroke-width="3"></line> <line y1="-1.5" x2="357.908" y2="-1.5" transform="matrix(0.888841 0.458215 -0.554617 0.832106 148.208 -115.908)" stroke="#FFB460" stroke-width="3"></line> <line y1="-1.5" x2="357.908" y2="-1.5" transform="matrix(0.888841 0.458215 -0.554617 0.832106 140.864 -11.5538)" stroke="#FFB460" stroke-width="3"></line> <line y1="-1.5" x2="357.908" y2="-1.5" transform="matrix(0.888841 0.458215 -0.554617 0.832106 142.945 -41.3652)" stroke="#FFB460" stroke-width="3"></line> <line y1="-1.5" x2="357.908" y2="-1.5" transform="matrix(0.888841 0.458215 -0.554617 0.832106 141.966 -26.4742)" stroke="#FFB460" stroke-width="3"></line> <line y1="-1.5" x2="357.908" y2="-1.5" transform="matrix(0.888841 0.458215 -0.554617 0.832106 144.047 -56.2855)" stroke="#FFB460" stroke-width="3"></line> </svg> 