<?xml version="1.0" encoding="UTF-8"?> <svg xmlns="http://www.w3.org/2000/svg" width="46" height="53" viewBox="0 0 46 53" fill="none"> <path d="M25.2635 32.9997C23.2699 36.0336 20.3837 37.7265 16.9489 38.6422C13.0386 39.6847 9.06482 39.8257 5.05715 39.5754C3.84365 39.4995 2.6313 39.3925 1.41669 39.346C1.09061 39.3336 0.69514 39.4102 0.450161 39.5995C0.281158 39.73 0.316192 40.1248 0.260027 40.4016C0.430008 40.4247 0.599382 40.4561 0.770172 40.4692C1.22983 40.5044 1.6967 40.4935 2.14894 40.5695C3.62118 40.8152 5.08457 41.1161 6.55878 41.3469C7.55343 41.505 8.55548 41.6123 9.56105 41.6685C10.1954 41.7023 10.8367 41.5588 11.4755 41.5529C12.4879 41.5436 13.5104 41.679 14.5112 41.5796C16.0692 41.4245 17.6499 41.2613 19.155 40.8565C22.4826 39.9615 25.131 38.083 26.9808 35.1005C27.8416 33.7128 28.7467 32.3738 29.1237 30.7521C29.1649 30.575 29.436 30.3812 29.6376 30.3225C31.6674 29.7309 33.3315 28.577 34.6415 26.9542C35.6218 25.7398 36.6461 24.5096 37.3381 23.1297C37.9187 21.9716 38.1503 20.6028 38.3444 19.2987C38.5171 18.1392 38.4984 16.9364 38.4341 15.7598C38.3426 14.0837 37.77 12.5306 36.8583 11.1249C36.7274 10.923 36.3016 10.8086 36.0269 10.8313C35.7214 10.8564 35.6494 11.1525 35.5805 11.4994C35.3651 12.5847 35.8974 13.465 36.2446 14.3853C36.9023 16.1288 36.7806 17.877 36.1856 19.5546C35.1706 22.4167 33.2046 24.5858 30.7407 26.2961C29.4098 27.2203 29.3673 27.1717 29.1177 25.6332C28.7891 23.6082 27.8554 21.9543 26.1017 20.8473C24.0662 19.5624 21.5324 20.2136 20.2848 22.2776C19.8933 22.9253 19.9728 23.6122 20.0751 24.2896C20.3075 25.8299 21.0445 27.1214 22.166 28.1849C23.3258 29.2851 24.5821 30.2283 26.2314 30.4748C26.6297 30.5345 26.6565 30.768 26.4513 31.0878C26.0459 31.7185 25.6582 32.3615 25.2635 32.9997ZM23.4944 26.4744C23.0182 25.9814 22.5324 25.4974 22.0693 24.9924C21.7831 24.6804 21.8476 24.4007 22.1661 24.11C23.1638 23.1993 24.6778 23.0755 25.883 23.787C27.1966 24.5623 27.452 25.8228 27.4911 27.1817C27.4942 27.2879 27.2219 27.4802 27.0606 27.5008C25.7336 27.6694 24.5964 27.1837 23.4944 26.4744ZM22.8018 36.658L22.8664 36.7882L20.3457 38.3417C20.3088 38.2812 20.2719 38.2207 20.235 38.1601L22.8018 36.658ZM31.1749 26.9011L31.2709 27.0603L29.5924 27.8788C29.5611 27.8144 29.5298 27.75 29.4985 27.6855C30.0573 27.4241 30.6161 27.1626 31.1749 26.9011Z" fill="#FFB460"></path> <path d="M38.9373 7.62185C37.7639 6.9321 36.4722 6.23042 35.2504 5.42337C34.8234 5.14126 34.5215 4.73202 33.9568 5.02801C33.8405 5.089 33.6647 5.17349 33.6493 5.26865C33.3885 6.88022 32.4569 8.22505 31.9052 9.71834C31.5355 10.7186 31.3472 11.7606 31.7019 12.8113C31.7726 13.0208 32.0063 13.1754 32.1648 13.3553C32.3366 13.1934 32.5781 13.0634 32.6691 12.8645C33.3304 11.4184 33.9755 9.96426 34.5937 8.49928C34.7876 8.03963 34.992 8.07648 35.3738 8.2767C36.2546 8.73855 37.1719 9.1304 38.0587 9.58176C38.4375 9.77459 38.7772 10.0442 39.1324 10.283C39.1621 10.303 39.1632 10.3724 39.1923 10.3851C39.4924 10.5163 39.9755 10.8209 40.0634 10.733C40.3306 10.4537 40.5018 10.0965 40.5522 9.71331C40.6757 8.59003 39.6796 8.25671 38.9373 7.62185Z" fill="#FFB460"></path> </svg> 