<?xml version="1.0" encoding="UTF-8"?> <svg xmlns="http://www.w3.org/2000/svg" width="210" height="223" viewBox="0 0 210 223" fill="none"> <path d="M327.574 116.669L308.313 109.217V109.217C296.079 104.478 286.489 94.6789 282.01 82.3467V82.3467V82.3467C277.531 70.0129 267.938 60.218 255.701 55.4831V55.4831V55.4831C243.463 50.7484 233.87 40.9536 229.391 28.62V28.62V28.62C225.496 16.9084 216.576 7.54768 205.065 3.09448L203.981 2.67485V2.67485C191.742 -2.05837 182.148 -11.8542 177.671 -24.1891V-24.1891V-24.1891C173.192 -36.5229 163.6 -46.3178 151.362 -51.0527V-51.0527V-51.0527C139.123 -55.7823 129.524 -65.5765 125.046 -77.9097V-77.9097L117.996 -97.3213" stroke="#B0D2CC" stroke-width="3"></path> <path d="M383.079 62.3086L363.818 54.8567V54.8567C351.584 50.1175 341.993 40.3188 337.515 27.9866V27.9866V27.9866C333.036 15.6528 323.443 5.85791 311.205 1.12302V1.12302V1.12302C298.968 -3.61173 289.375 -13.4065 284.895 -25.7401V-25.7401V-25.7401C281.001 -37.4517 272.081 -46.8124 260.57 -51.2656L259.485 -51.6853V-51.6853C247.246 -56.4185 237.653 -66.2143 233.176 -78.5492V-78.5492V-78.5492C228.697 -90.883 219.104 -100.678 206.867 -105.413V-105.413V-105.413C194.627 -110.142 185.029 -119.937 180.55 -132.27V-132.27L173.501 -151.681" stroke="#B0D2CC" stroke-width="4"></path> <path d="M272.418 170.687L253.158 163.235V163.235C240.923 158.496 231.333 148.697 226.854 136.365V136.365V136.365C222.376 124.031 212.783 114.236 200.545 109.501V109.501V109.501C188.307 104.766 178.714 94.9716 174.235 82.6379V82.6379V82.6379C170.341 70.9264 161.42 61.5656 149.909 57.1124L148.825 56.6928V56.6928C136.586 51.9596 126.992 42.1638 122.516 29.8288V29.8288V29.8288C118.037 17.4951 108.444 7.70017 96.206 2.96529V2.96529V2.96529C83.9668 -1.76435 74.3684 -11.5586 69.8897 -23.8918V-23.8918L62.8407 -43.3034" stroke="#B0D2CC" stroke-width="3"></path> <path d="M316.752 127.267L297.317 119.986V119.986C285.004 115.367 275.37 105.524 271.014 93.1157V93.1157V93.1157C266.657 80.7055 257.021 70.8665 244.705 66.2522V66.2522V66.2522C232.388 61.6379 222.751 51.799 218.394 39.389V39.389V39.389C214.621 27.6017 205.658 18.1915 194.068 13.8497L192.984 13.4439V13.4439C180.667 8.83123 171.03 -1.00875 166.675 -13.4201V-13.4201V-13.4201C162.318 -25.8303 152.682 -35.6693 140.366 -40.2836V-40.2836V-40.2836C128.048 -44.8926 118.406 -54.731 114.049 -67.1405V-67.1405L107.175 -86.723" stroke="#B0D2CC" stroke-width="3"></path> <path d="M371.908 73.2486L352.647 65.7968V65.7968C340.413 61.0576 330.823 51.2589 326.344 38.9266V38.9266V38.9266C321.865 26.5929 312.272 16.798 300.035 12.0631V12.0631V12.0631C287.797 7.32833 278.204 -2.46644 273.725 -14.8001V-14.8001V-14.8001C269.83 -26.5116 260.91 -35.8724 249.399 -40.3256L248.315 -40.7452V-40.7452C236.076 -45.4784 226.482 -55.2742 222.005 -67.6092V-67.6092V-67.6092C217.526 -79.9429 207.934 -89.7378 195.696 -94.4727V-94.4727V-94.4727C183.457 -99.2023 173.858 -108.997 169.38 -121.33V-121.33L162.33 -140.741" stroke="#B0D2CC" stroke-width="4"></path> <path d="M261.247 181.627L241.987 174.175V174.175C229.753 169.436 220.162 159.637 215.684 147.305V147.305V147.305C211.205 134.971 201.612 125.177 189.374 120.442V120.442V120.442C177.136 115.707 167.543 105.912 163.064 93.5785V93.5785V93.5785C159.17 81.8669 150.249 72.5062 138.739 68.053L137.654 67.6333V67.6333C125.415 62.9001 115.822 53.1043 111.345 40.7694V40.7694V40.7694C106.866 28.4356 97.273 18.6407 85.0352 13.9058V13.9058V13.9058C72.796 9.1762 63.1976 -0.618035 58.719 -12.9512V-12.9512L51.6699 -32.3628" stroke="#B0D2CC" stroke-width="3"></path> <path d="M338.745 105.728L319.484 98.2762V98.2762C307.25 93.5369 297.659 83.7382 293.181 71.406V71.406V71.406C288.702 59.0722 279.109 49.2773 266.871 44.5425V44.5425V44.5425C254.634 39.8077 245.04 30.0129 240.561 17.6793V17.6793V17.6793C236.667 5.96774 227.747 -3.393 216.236 -7.84619L215.151 -8.26582V-8.26582C202.912 -12.999 193.319 -22.7949 188.842 -35.1298V-35.1298V-35.1298C184.363 -47.4636 174.77 -57.2584 162.533 -61.9933V-61.9933V-61.9933C150.293 -66.723 140.695 -76.5172 136.216 -88.8504V-88.8504L129.167 -108.262" stroke="#B0D2CC" stroke-width="3"></path> <path d="M393.9 51.7097L374.64 44.2579V44.2579C362.406 39.5186 352.815 29.7199 348.337 17.3877V17.3877V17.3877C343.858 5.05391 334.265 -4.74097 322.027 -9.47585V-9.47585V-9.47585C309.789 -14.2106 300.196 -24.0054 295.717 -36.339V-36.339V-36.339C291.823 -48.0506 282.902 -57.4113 271.392 -61.8645L270.307 -62.2841V-62.2841C258.068 -67.0173 248.475 -76.8132 243.998 -89.1481V-89.1481V-89.1481C239.519 -101.482 229.926 -111.277 217.688 -116.012V-116.012V-116.012C205.449 -120.741 195.851 -130.536 191.372 -142.869V-142.869L184.323 -162.28" stroke="#B0D2CC" stroke-width="4"></path> <path d="M283.589 159.747L264.154 152.466V152.466C251.841 147.847 242.207 138.004 237.851 125.595V125.595V125.595C233.494 113.185 223.858 103.346 211.541 98.7316V98.7316V98.7316C199.225 94.1174 189.588 84.2785 185.231 71.8685V71.8685V71.8685C181.458 60.0812 172.494 50.671 160.905 46.3292L159.821 45.9234V45.9234C147.503 41.3107 137.867 31.4707 133.512 19.0594V19.0594V19.0594C129.155 6.64923 119.519 -3.18977 107.202 -7.80414V-7.80414V-7.80414C94.8843 -12.4131 85.2425 -22.2515 80.8859 -34.661V-34.661L74.0113 -54.2435" stroke="#B0D2CC" stroke-width="3"></path> <path d="M349.566 95.1293L330.48 87.5066V87.5066C318.326 82.6466 308.778 72.8914 304.177 60.6366V60.6366V60.6366C299.576 48.3804 290.025 38.6288 277.868 33.7731V33.7731V33.7731C265.71 28.9175 256.159 19.166 251.558 6.90991V6.90991V6.90991C247.542 -4.72479 238.663 -14.0368 227.233 -18.6017L226.147 -19.0352V-19.0352C213.989 -23.8893 204.438 -33.6418 199.838 -45.8992V-45.8992V-45.8992C195.237 -58.1554 185.686 -67.907 173.529 -72.7627V-72.7627V-72.7627C161.37 -77.6133 151.814 -87.3643 147.213 -99.62V-99.62L139.989 -118.861" stroke="#B0D2CC" stroke-width="4"></path> <path d="M405.071 40.7696L385.811 33.3178V33.3178C373.576 28.5786 363.986 18.7799 359.508 6.44764V6.44764V6.44764C355.029 -5.88615 345.436 -15.681 333.198 -20.4159V-20.4159V-20.4159C320.96 -25.1507 311.367 -34.9454 306.888 -47.2791V-47.2791V-47.2791C302.994 -58.9906 294.073 -68.3514 282.563 -72.8046L281.478 -73.2242V-73.2242C269.239 -77.9574 259.646 -87.7532 255.169 -100.088V-100.088V-100.088C250.69 -112.422 241.097 -122.217 228.859 -126.952V-126.952V-126.952C216.62 -131.681 207.022 -141.476 202.543 -153.809V-153.809L195.494 -173.22" stroke="#B0D2CC" stroke-width="4"></path> <path d="M294.41 149.148L275.15 141.696V141.696C262.916 136.957 253.325 127.158 248.847 114.826V114.826V114.826C244.368 102.492 234.775 92.697 222.537 87.9621V87.9621V87.9621C210.3 83.2274 200.706 73.4326 196.227 61.099V61.099V61.099C192.333 49.3874 183.413 40.0267 171.902 35.5735L170.817 35.1539V35.1539C158.578 30.4206 148.985 20.6248 144.508 8.2899V8.2899V8.2899C140.029 -4.04389 130.436 -13.8388 118.198 -18.5737V-18.5737V-18.5737C105.959 -23.3033 96.3609 -33.0975 91.8823 -45.4307V-45.4307L84.8332 -64.8423" stroke="#B0D2CC" stroke-width="3"></path> <path d="M360.737 84.1891L341.477 76.7372V76.7372C329.242 71.998 319.652 62.1993 315.173 49.8671V49.8671V49.8671C310.695 37.5333 301.102 27.7384 288.864 23.0035V23.0035V23.0035C276.626 18.2688 267.033 8.47399 262.554 -3.85963V-3.85963V-3.85963C258.66 -15.5712 249.739 -24.9319 238.228 -29.3851L237.144 -29.8048V-29.8048C224.905 -34.538 215.311 -44.3338 210.835 -56.6687V-56.6687V-56.6687C206.356 -69.0025 196.763 -78.7974 184.525 -83.5323V-83.5323V-83.5323C172.286 -88.2619 162.687 -98.0561 158.209 -110.389V-110.389L151.16 -129.801" stroke="#B0D2CC" stroke-width="4"></path> <path d="M305.581 138.208L286.146 130.927V130.927C273.833 126.308 264.199 116.465 259.843 104.056V104.056V104.056C255.487 91.6461 245.85 81.8071 233.534 77.1927V77.1927V77.1927C221.217 72.5785 211.581 62.7396 207.224 50.3296V50.3296V50.3296C203.45 38.5423 194.487 29.132 182.897 24.7903L181.814 24.3844V24.3844C169.496 19.7718 159.859 9.9318 155.504 -2.47953V-2.47953V-2.47953C151.148 -14.8897 141.512 -24.7287 129.195 -29.3431V-29.3431V-29.3431C116.877 -33.9521 107.235 -43.7904 102.878 -56.2V-56.2L96.0038 -75.7824" stroke="#B0D2CC" stroke-width="3"></path> </svg> 