<?xml version="1.0" encoding="UTF-8"?> <svg xmlns="http://www.w3.org/2000/svg" width="190" height="159" viewBox="0 0 190 159" fill="none"> <path d="M298.056 66.6009L279.045 63.3315V63.3315C266.969 61.2494 256.38 54.0469 250.004 43.5815V43.5815V43.5815C243.627 33.1147 233.036 25.9162 220.957 23.8387V23.8387V23.8387C208.879 21.7614 198.288 14.563 191.911 4.09645V4.09645V4.09645C186.184 -5.90849 176.289 -12.8335 164.928 -14.7872L163.858 -14.9713V-14.9713C151.778 -17.047 141.187 -24.2463 134.811 -34.7145V-34.7145V-34.7145C128.435 -45.1813 117.844 -52.3798 105.765 -54.4572V-54.4572V-54.4572C93.686 -56.5296 83.0904 -63.7266 76.714 -74.1928V-74.1928L66.6781 -90.666" stroke="#B0D2CC" stroke-width="3"></path> <path d="M338.848 6.58613L319.837 3.3167V3.3167C307.761 1.23463 297.172 -5.96782 290.796 -16.4333V-16.4333V-16.4333C284.419 -26.9001 273.828 -34.0986 261.749 -36.176V-36.176V-36.176C249.671 -38.2534 239.08 -45.4517 232.703 -55.9183V-55.9183V-55.9183C226.976 -65.9233 217.081 -72.8483 205.72 -74.802L204.649 -74.9861V-74.9861C192.57 -77.0618 181.979 -84.2611 175.603 -94.7293V-94.7293V-94.7293C169.227 -105.196 158.636 -112.395 146.557 -114.472V-114.472V-114.472C134.478 -116.544 123.882 -123.741 117.506 -134.208V-134.208L107.47 -150.681" stroke="#B0D2CC" stroke-width="4"></path> <path d="M257.52 126.238L238.51 122.968V122.968C226.434 120.886 215.844 113.684 209.469 103.218V103.218V103.218C203.092 92.7517 192.501 85.5531 180.422 83.4757V83.4757V83.4757C168.343 81.3984 157.752 74.2 151.376 63.7334V63.7334V63.7334C145.649 53.7285 135.754 46.8034 124.393 44.8497L123.322 44.6656V44.6656C111.243 42.5899 100.651 35.3906 94.2763 24.9225V24.9225V24.9225C87.8997 14.4557 77.3089 7.25716 65.23 5.17972V5.17972V5.17972C53.1509 3.10733 42.5552 -4.08959 36.1789 -14.5559V-14.5559L26.143 -31.0291" stroke="#B0D2CC" stroke-width="3"></path> <path d="M290.103 78.3018L270.964 75.221V75.221C258.838 73.2637 248.201 66.0286 241.923 55.4708V55.4708V55.4708C235.644 44.9115 225.005 37.6806 212.876 35.728V35.728V35.728C200.747 33.7756 190.109 26.5448 183.83 15.9858V15.9858V15.9858C178.2 5.88918 168.256 -1.07329 156.843 -2.91029L155.776 -3.08201V-3.08201C143.647 -5.03278 133.008 -12.2645 126.73 -22.8252V-22.8252V-22.8252C120.451 -33.3845 109.813 -40.6154 97.6841 -42.5679V-42.5679V-42.5679C85.5549 -44.5153 74.9113 -51.7446 68.6327 -62.3033V-62.3033L58.7251 -78.9652" stroke="#B0D2CC" stroke-width="3"></path> <path d="M330.638 18.6643L311.628 15.3948V15.3948C299.551 13.3128 288.962 6.1103 282.586 -4.35517V-4.35517V-4.35517C276.209 -14.8219 265.619 -22.0205 253.54 -24.0979V-24.0979V-24.0979C241.461 -26.1752 230.87 -33.3736 224.493 -43.8402V-43.8402V-43.8402C218.767 -53.8451 208.871 -60.7702 197.51 -62.7239L196.44 -62.908V-62.908C184.36 -64.9837 173.769 -72.183 167.394 -82.6512V-82.6512V-82.6512C161.017 -93.1179 150.426 -100.316 138.347 -102.394V-102.394V-102.394C126.268 -104.466 115.673 -111.663 109.296 -122.129V-122.129L99.2604 -138.603" stroke="#B0D2CC" stroke-width="4"></path> <path d="M249.311 138.316L230.3 135.047V135.047C218.224 132.965 207.635 125.762 201.259 115.297V115.297V115.297C194.882 104.83 184.291 97.6316 172.213 95.5542V95.5542V95.5542C160.134 93.4769 149.543 86.2785 143.166 75.8119V75.8119V75.8119C137.439 65.807 127.544 58.8819 116.183 56.9282L115.113 56.7441V56.7441C103.033 54.6684 92.4417 47.4691 86.0666 37.0009V37.0009V37.0009C79.69 26.5342 69.0992 19.3356 57.0203 17.2582V17.2582V17.2582C44.9412 15.1858 34.3455 7.9889 27.9691 -2.47738V-2.47738L17.9332 -18.9506" stroke="#B0D2CC" stroke-width="3"></path> <path d="M306.265 54.5223L287.255 51.2529V51.2529C275.179 49.1708 264.589 41.9683 258.213 31.5029V31.5029V31.5029C251.837 21.0361 241.246 13.8376 229.167 11.7601V11.7601V11.7601C217.088 9.68279 206.497 2.48443 200.12 -7.98217V-7.98217V-7.98217C194.394 -17.9871 184.499 -24.9121 173.138 -26.8658L172.067 -27.0499V-27.0499C159.988 -29.1257 149.396 -36.3249 143.021 -46.7931V-46.7931V-46.7931C136.645 -57.2599 126.054 -64.4584 113.975 -66.5359V-66.5359V-66.5359C101.896 -68.6083 91.3001 -75.8052 84.9237 -86.2714V-86.2714L74.8878 -102.745" stroke="#B0D2CC" stroke-width="3"></path> <path d="M346.801 -5.11516L327.79 -8.38459V-8.38459C315.714 -10.4667 305.125 -17.6691 298.749 -28.1346V-28.1346V-28.1346C292.372 -38.6014 281.781 -45.7999 269.703 -47.8773V-47.8773V-47.8773C257.624 -49.9547 247.033 -57.153 240.656 -67.6196V-67.6196V-67.6196C234.929 -77.6246 225.034 -84.5496 213.673 -86.5033L212.603 -86.6874V-86.6874C200.523 -88.7631 189.932 -95.9624 183.557 -106.431V-106.431V-106.431C177.18 -116.897 166.589 -124.096 154.51 -126.173V-126.173V-126.173C142.431 -128.246 131.835 -135.443 125.459 -145.909V-145.909L115.423 -162.382" stroke="#B0D2CC" stroke-width="4"></path> <path d="M265.73 114.16L246.591 111.079V111.079C234.465 109.122 223.828 101.887 217.55 91.3287V91.3287V91.3287C211.271 80.7694 200.633 73.5385 188.504 71.5859V71.5859V71.5859C176.375 69.6335 165.736 62.4027 159.457 51.8437V51.8437V51.8437C153.827 41.7471 143.884 34.7846 132.471 32.9476L131.404 32.7759V32.7759C119.274 30.8251 108.635 23.5934 102.358 13.0327V13.0327V13.0327C96.0789 2.47344 85.4404 -4.75751 73.3115 -6.71004V-6.71004V-6.71004C61.1824 -8.65741 50.5388 -15.8867 44.2602 -26.4454V-26.4454L34.3525 -43.1072" stroke="#B0D2CC" stroke-width="3"></path> <path d="M314.219 42.8209L295.337 39.3629V39.3629C283.311 37.1555 272.768 29.985 266.295 19.6131V19.6131V19.6131C259.82 9.2399 249.276 2.0732 237.248 -0.129659V-0.129659V-0.129659C225.221 -2.33242 214.677 -9.49896 208.202 -19.872V-19.872V-19.872C202.379 -29.7841 192.531 -36.6723 181.223 -38.7431L180.149 -38.9397V-38.9397C168.12 -41.1409 157.576 -48.3083 151.103 -58.6829V-58.6829V-58.6829C144.628 -69.0561 134.084 -76.2228 122.056 -78.4256V-78.4256V-78.4256C110.028 -80.6236 99.4794 -87.7887 93.0052 -98.1614V-98.1614L82.8411 -114.446" stroke="#B0D2CC" stroke-width="4"></path> <path d="M273.683 102.458L254.673 99.189V99.189C242.596 97.1069 232.007 89.9045 225.631 79.439V79.439V79.439C219.255 68.9722 208.664 61.7737 196.585 59.6963V59.6963V59.6963C184.506 57.6189 173.915 50.4206 167.538 39.954V39.954V39.954C161.812 29.9491 151.917 23.024 140.556 21.0703L139.485 20.8862V20.8862C127.406 18.8105 116.814 11.6112 110.439 1.14304V1.14304V1.14304C104.063 -9.32374 93.4718 -16.5223 81.3929 -18.5997V-18.5997V-18.5997C69.3137 -20.6721 58.718 -27.869 52.3417 -38.3353V-38.3353L42.3058 -54.8085" stroke="#B0D2CC" stroke-width="3"></path> <path d="M322.428 30.7429L303.418 27.4734V27.4734C291.341 25.3914 280.752 18.1889 274.376 7.72345V7.72345V7.72345C268 -2.74333 257.409 -9.94185 245.33 -12.0193V-12.0193V-12.0193C233.251 -14.0966 222.66 -21.295 216.283 -31.7616V-31.7616V-31.7616C210.557 -41.7665 200.662 -48.6916 189.301 -50.6453L188.23 -50.8294V-50.8294C176.151 -52.9051 165.559 -60.1044 159.184 -70.5725V-70.5725V-70.5725C152.807 -81.0393 142.217 -88.2378 130.138 -90.3153V-90.3153V-90.3153C118.059 -92.3877 107.463 -99.5846 101.087 -110.051V-110.051L91.0507 -126.524" stroke="#B0D2CC" stroke-width="4"></path> <path d="M281.893 90.3803L262.754 87.2995V87.2995C250.628 85.3422 239.991 78.1071 233.713 67.5493V67.5493V67.5493C227.434 56.99 216.795 49.7591 204.667 47.8065V47.8065V47.8065C192.538 45.8541 181.899 38.6233 175.62 28.0642V28.0642V28.0642C169.99 17.9677 160.047 11.0052 148.634 9.1682L147.567 8.99648V8.99648C135.437 7.04571 124.798 -0.18603 118.521 -10.7467V-10.7467V-10.7467C112.242 -21.306 101.603 -28.5369 89.4743 -30.4895V-30.4895V-30.4895C77.3452 -32.4368 66.7016 -39.6661 60.423 -50.2248V-50.2248L50.5153 -66.8867" stroke="#B0D2CC" stroke-width="3"></path> </svg> 