<?xml version="1.0" encoding="UTF-8"?> <svg xmlns="http://www.w3.org/2000/svg" width="27" height="29" viewBox="0 0 27 29" fill="none"> <path d="M15.0091 26.4653C14.0627 27.3692 13.3619 28.5917 11.9123 29C12.0097 28.7426 12.0846 28.5452 12.1792 28.2953C11.8213 28.3714 11.4963 28.5082 11.1933 28.4678C11.0887 28.4538 11.0386 27.999 10.9699 27.7672C10.7504 27.9346 10.4826 28.1898 10.1703 28.3533C10.0365 28.4234 9.74617 28.3636 9.64622 28.2498C9.56643 28.1589 9.60032 27.8339 9.69862 27.7204C10.653 26.6179 11.6633 25.5665 12.5956 24.445C13.8482 22.9378 15.0483 21.3834 16.2622 19.8419C16.3515 19.7286 16.3703 19.5554 16.3016 19.3192C15.6974 20.0291 15.0972 20.7427 14.4882 21.448C12.8903 23.2988 11.2947 25.1518 9.67882 26.9856C9.51739 27.1688 9.22355 27.2262 8.9912 27.3421C9.03309 27.0471 8.9769 26.6699 9.13239 26.4701C10.3541 24.8977 11.6221 23.3643 12.8635 21.8085C13.3268 21.2278 13.756 20.6179 14.2034 20.0234C14.4558 19.6881 14.3662 19.5649 13.9721 19.5461C13.377 19.5178 12.7801 19.391 12.1907 19.4263C11.887 19.4445 11.5265 19.6566 11.3175 19.8978C10.9478 20.325 10.674 20.8418 10.3607 21.3212L10.1671 21.1983C10.4864 20.6434 10.8057 20.0884 11.1251 19.5336L10.9472 19.4176C10.6356 19.9187 10.3293 20.4234 10.011 20.9198C9.70177 21.4021 9.42666 21.6486 8.7632 21.3036C8.25688 21.0402 7.60865 20.7893 6.93855 21.0155C6.75824 21.0764 6.42944 20.9233 6.28795 20.7582C6.18786 20.6419 6.24506 20.3238 6.31069 20.1234C6.4278 19.7643 6.60381 19.426 6.75531 19.079L6.56821 18.9716C6.39241 19.2182 6.22597 19.473 6.03673 19.7079C5.94571 19.8208 5.81166 19.8963 5.69706 19.9887C5.62113 19.855 5.50996 19.7288 5.47815 19.5847C5.44088 19.4015 5.4378 19.2126 5.46907 19.0282C5.59318 18.26 5.34639 17.9364 4.59063 17.7006C3.69887 17.432 2.82311 17.1091 1.96789 16.7336C1.44334 16.4969 1.01209 16.0874 1.03325 15.3744C1.03718 15.2421 0.90006 15.0504 0.777663 14.9774C-0.130305 14.4367 -0.291666 13.1114 0.552029 12.4245C1.15529 11.9332 1.82826 11.4623 2.54441 11.2064C4.45815 10.5225 6.40506 9.93474 8.35419 9.36448C8.87566 9.212 9.08821 8.93244 9.28632 8.43415C10.1176 6.34287 10.9425 4.24216 11.9205 2.22374C12.2828 1.4759 13.0078 0.877935 13.6617 0.334041C14.2663 -0.168929 14.9375 -0.0818823 15.5853 0.447454C15.9519 0.747068 16.4701 0.837531 16.8739 1.09897C17.5209 1.51794 18.245 1.89724 18.7285 2.47969C19.5301 3.44522 20.1513 4.57052 20.8838 5.60134C21.0507 5.83634 21.3426 6.0088 21.6111 6.126C22.2103 6.38948 22.822 6.62106 23.4439 6.81985C24.3892 7.11909 25.0965 7.7683 25.7935 8.44432C25.9993 8.64389 26.2525 8.80625 26.4112 9.03924C26.6637 9.41016 27.1479 9.85884 26.0736 10.1218L26.9998 10.1715C26.9685 10.5849 27.0703 11.0844 26.8829 11.397C26.0043 12.8637 25.1457 14.3639 24.0952 15.6945C21.9946 18.355 19.7717 20.911 17.6054 23.5153C17.457 23.6936 17.3586 23.9171 17.237 24.1196L16.9697 24.4371L15.1574 26.3212L15.0091 26.4653ZM24.1923 14.5421C23.7608 15.0639 23.3227 15.5799 22.8991 16.1086C21.8853 17.3736 20.8752 18.6417 19.8688 19.913C21.0198 18.7996 22.0415 17.5734 23.0297 16.3182C23.4639 15.7667 23.8295 15.1569 24.226 14.5735L25.3606 13.1177L25.1099 12.9331C24.8041 13.4693 24.4982 14.0057 24.1923 14.5421Z" fill="#FFB460"></path> </svg> 