<?xml version="1.0" encoding="UTF-8"?> <svg xmlns="http://www.w3.org/2000/svg" width="98" height="83" viewBox="0 0 98 83" fill="none"> <circle cx="1.29002" cy="96.2298" r="39.918" stroke="white" stroke-width="3"></circle> <path d="M27.608 96.0237C27.608 110.942 15.876 122.96 1.496 122.96C-12.884 122.96 -24.616 110.942 -24.616 96.0237C-24.616 81.1053 -12.884 69.0875 1.496 69.0875C15.876 69.0875 27.608 81.1053 27.608 96.0237Z" stroke="white" stroke-width="3"></path> <path d="M53.9838 96.6418C53.9838 126.188 29.8491 150.16 0.053772 150.16C-29.7415 150.16 -53.8762 126.188 -53.8762 96.6418C-53.8762 67.0953 -29.7415 43.124 0.053772 43.124C29.8491 43.124 53.9838 67.0953 53.9838 96.6418Z" stroke="white" stroke-width="3"></path> <circle cx="0.0538483" cy="96.6418" r="67.5299" stroke="white" stroke-width="3"></circle> <circle cx="-0.15213" cy="96.8479" r="81.3359" stroke="white" stroke-width="3"></circle> <path d="M95.608 96.6419C95.608 149.181 52.8331 191.784 0.0540085 191.784C-52.725 191.784 -95.5 149.181 -95.5 96.6419C-95.5 44.1025 -52.725 1.5 0.0540085 1.5C52.8331 1.5 95.608 44.1025 95.608 96.6419Z" stroke="white" stroke-width="3"></path> </svg> 