<?xml version="1.0" encoding="UTF-8"?> <svg xmlns="http://www.w3.org/2000/svg" width="36" height="43" viewBox="0 0 36 43" fill="none"> <path d="M11.5678 1.99818C12.2371 1.24544 12.9413 0.814624 13.8738 1.42598C14.2809 1.69285 14.5793 2.47759 14.4635 2.99336C14.8192 2.67125 15.0943 2.62522 15.4324 3.04886C15.7111 3.39808 16.1846 3.58781 16.4865 3.9246C17.7043 5.28411 18.8667 6.69741 19.3539 8.50368C19.4789 8.96693 19.1796 9.55887 19.8386 9.82412C20.2258 11.0608 20.6187 12.2977 20.6314 13.6107C20.6345 13.9244 20.5723 14.239 20.5352 14.5529C20.379 15.8794 20.2248 17.206 20.0557 18.5308C20.0443 18.6197 19.9042 18.6863 19.8441 18.7767C19.798 18.8615 19.7601 18.9506 19.7312 19.0427C20.2881 19.2562 19.8972 19.6669 19.8167 19.8784C19.5739 20.5162 19.2115 21.1083 18.8946 21.7176C18.8577 21.7885 18.7761 21.8582 18.7793 21.9243C18.8188 22.6557 18.6273 23.2602 18.0369 23.7645C17.8288 23.9427 17.8258 24.3609 17.6082 24.6222C17.6447 24.7703 17.7431 24.9354 17.7076 25.0639C17.3393 26.4055 16.9496 27.7411 16.5599 29.0983C16.8915 29.5424 16.8824 30.8852 16.4793 31.3395L16.7478 31.3458C16.8463 31.6637 16.8793 31.9797 17.0304 32.2221C17.8007 33.4589 18.5848 34.6655 19.7998 35.5646C21.0449 36.486 22.1567 37.5854 23.3746 38.5467C23.8059 38.8873 24.3685 39.0712 24.8875 39.2873C25.1934 39.4148 25.3372 39.5349 25.1588 39.8784C24.6832 40.7945 24.1149 41.1064 23.1667 40.6306C21.885 39.9875 20.5804 39.3002 19.4909 38.3871C18.1465 37.2602 16.9584 35.9291 15.803 34.5992C14.5626 33.1716 14.4735 31.4037 14.6619 29.6167C14.8744 27.6765 15.4215 25.7877 16.279 24.0342C17.3119 21.8854 17.8495 19.5934 18.1528 17.2331C18.4707 14.7601 18.3132 12.3339 17.519 9.97308C16.9123 8.16937 16.0746 6.48386 14.6668 5.13766C13.6444 4.16054 12.6485 3.15607 11.6435 2.16103C11.6094 2.11134 11.5838 2.0563 11.5678 1.99818ZM17.8388 9.11524L18.8525 13.8359C18.9026 12.2034 18.5547 10.5832 17.8388 9.11524ZM17.0374 35.0777L15.1312 31.9557C15.3899 33.2872 16.0314 34.2992 17.0374 35.0777Z" fill="#FFB460"></path> <path d="M12.5364 11.3043C12.0388 12.1818 11.8262 12.2887 10.9058 12.0745C9.92308 11.8456 8.95111 11.5695 7.97367 11.3174C7.81428 11.2763 7.64304 11.2724 7.49033 11.2161C7.22241 11.1173 6.96457 10.9912 6.70254 10.8765C6.95767 10.6594 7.18136 10.3473 7.47603 10.2499C7.84854 10.1299 8.24659 10.1132 8.62783 10.2015C9.91657 10.5273 11.1884 10.9181 12.5364 11.3043Z" fill="#FFB460"></path> <path d="M10.0457 20.1873C9.30777 20.4127 8.54981 20.6679 7.77654 20.8616C7.61085 20.9032 7.3894 20.7223 7.19362 20.6439C7.27505 20.4574 7.32531 20.246 7.44677 20.0913C7.5765 19.9322 7.74091 19.805 7.92742 19.7193C8.75123 19.3393 9.58307 18.9779 10.415 18.6166C10.5647 18.5467 10.7241 18.4999 10.8877 18.4777C10.9978 18.4665 11.1848 18.5026 11.2142 18.5707C11.2611 18.6793 11.2562 18.8755 11.1847 18.9591C10.8397 19.3629 10.4645 19.7418 10.0457 20.1873Z" fill="#FFB460"></path> <path d="M26.4716 32.2268C26.3669 32.8895 26.065 33.1087 25.5811 33.043C24.9311 32.9545 24.2761 32.8684 23.6415 32.7089C23.4384 32.6578 23.293 32.3768 23.1211 32.2008C23.3979 31.9935 23.7032 31.5819 23.9464 31.6158C24.7903 31.7335 25.6126 32.0059 26.4716 32.2268Z" fill="#FFB460"></path> <path d="M26.8554 27.6818C26.0575 28.8197 24.8194 28.4843 23.7688 28.7031C23.6726 28.7231 23.416 28.4947 23.4316 28.4437C23.5112 28.1889 23.6319 27.7643 23.7836 27.7443C24.7466 27.6171 25.7214 27.5795 26.6927 27.5205C26.7314 27.518 26.7747 27.5989 26.8554 27.6818Z" fill="#FFB460"></path> <path d="M10.2163 14.6606C9.97274 14.8557 9.75544 15.1586 9.48073 15.2254C8.72714 15.4085 7.95118 15.5093 7.17961 15.6023C7.01532 15.6222 6.83049 15.472 6.65506 15.4001C6.76209 15.2214 6.8332 14.9319 6.98255 14.8834C7.58252 14.6873 8.19659 14.5372 8.81939 14.4345C9.24639 14.3652 9.69156 14.4079 10.1286 14.4006L10.2163 14.6606Z" fill="#FFB460"></path> <path d="M23.4768 22.5902C23.5086 22.8279 23.5576 22.9353 23.528 23.0126C23.2183 23.8215 22.9238 24.6387 22.5594 25.423C22.456 25.6457 22.1387 25.769 21.8509 25.8605C22.1892 24.6831 22.4075 23.4863 23.4768 22.5902Z" fill="#FFB460"></path> </svg> 