<?xml version="1.0" encoding="UTF-8"?> <svg xmlns="http://www.w3.org/2000/svg" width="214" height="138" viewBox="0 0 214 138" fill="none"> <path d="M-88.4246 94.4423L-69.69 99.0348V99.0348C-57.7889 101.957 -47.7299 109.884 -42.1025 120.77V120.77V120.77C-36.4744 131.657 -26.4137 139.58 -14.5099 142.498V142.498V142.498C-2.60619 145.416 7.45475 153.338 13.083 164.226V164.226V164.226C18.0949 174.607 27.4808 182.208 38.6773 184.952L39.7323 185.211V185.211C51.6369 188.127 61.6982 196.051 67.3246 206.939V206.939V206.939C72.9527 217.827 83.0134 225.749 94.9172 228.668V228.668V228.668C106.822 231.581 116.887 239.502 122.515 250.389V250.389L131.373 267.524" stroke="white" stroke-width="3"></path> <path d="M-43.8131 37.79L-25.0784 42.3826V42.3826C-13.1773 45.3051 -3.11832 53.2314 2.50904 64.1176V64.1176V64.1176C8.13716 75.0052 18.1979 82.9276 30.1017 85.8457V85.8457V85.8457C42.0054 88.7637 52.0663 96.686 57.6946 107.573V107.573V107.573C62.7065 117.955 72.0924 125.556 83.2888 128.3L84.3439 128.559V128.559C96.2485 131.475 106.31 139.398 111.936 150.287V150.287V150.287C117.564 161.175 127.625 169.097 139.529 172.015V172.015V172.015C151.433 174.928 161.499 182.85 167.127 193.737V193.737L175.985 210.872" stroke="white" stroke-width="3"></path> <path d="M-79.6717 83.327L-60.7959 87.7403V87.7403C-48.8362 90.5419 -38.732 98.504 -33.2086 109.476V109.476V109.476C-27.6845 120.449 -17.5784 128.407 -5.61601 131.204V131.204V131.204C6.34635 134.001 16.4526 141.959 21.9769 152.931V152.931V152.931C26.8859 163.397 36.3175 171.039 47.574 173.671L48.6262 173.917V173.917C60.5895 176.712 70.6961 184.671 76.2185 195.645V195.645V195.645C81.7427 206.618 91.8487 214.576 103.811 217.373V217.373V217.373C115.774 220.165 125.885 228.122 131.409 239.094V239.094L140.126 256.409" stroke="white" stroke-width="3"></path> <path d="M-124.284 139.98L-105.549 144.572V144.572C-93.6478 147.495 -83.5888 155.421 -77.9614 166.307V166.307V166.307C-72.3333 177.195 -62.2726 185.117 -50.3688 188.035V188.035V188.035C-38.4651 190.953 -28.4041 198.876 -22.7759 209.763V209.763V209.763C-17.764 220.144 -8.37804 227.745 2.81837 230.49L3.87343 230.748V230.748C15.778 233.665 25.8393 241.588 31.4657 252.477V252.477V252.477C37.0938 263.365 47.1546 271.287 59.0583 274.205V274.205V274.205C70.9627 277.118 81.0285 285.039 86.6563 295.926V295.926L95.5141 313.062" stroke="white" stroke-width="4"></path> <path d="M-34.7777 26.3159L-16.043 30.9084V30.9084C-4.14191 33.831 5.91708 41.7573 11.5444 52.6435V52.6435V52.6435C17.1726 63.5311 27.2333 71.4535 39.1371 74.3716V74.3716V74.3716C51.0408 77.2896 61.1017 85.2119 66.73 96.0993V96.0993V96.0993C71.7419 106.481 81.1278 114.082 92.3242 116.826L93.3793 117.085V117.085C105.284 120.001 115.345 127.924 120.972 138.813V138.813V138.813C126.6 149.701 136.66 157.623 148.564 160.541V160.541V160.541C160.469 163.454 170.534 171.376 176.162 182.263V182.263L185.02 199.398" stroke="white" stroke-width="3"></path> <path d="M-97.46 105.916L-78.7254 110.509V110.509C-66.8243 113.431 -56.7653 121.358 -51.1379 132.244V132.244V132.244C-45.5098 143.132 -35.4491 151.054 -23.5453 153.972V153.972V153.972C-11.6416 156.89 -1.58065 164.812 4.04763 175.7V175.7V175.7C9.05951 186.081 18.4454 193.682 29.6419 196.426L30.6969 196.685V196.685C42.6015 199.601 52.6628 207.525 58.2892 218.414V218.414V218.414C63.9173 229.301 73.978 237.224 85.8818 240.142V240.142V240.142C97.7862 243.055 107.852 250.976 113.48 261.863V261.863L122.338 278.999" stroke="white" stroke-width="3"></path> <path d="M-52.8482 49.2636L-33.9724 53.677V53.677C-22.0128 56.4786 -11.9085 64.4407 -6.38514 75.4122V75.4122V75.4122C-0.860987 86.3852 9.24504 94.3433 21.2075 97.1403V97.1403V97.1403C33.1698 99.9372 43.2761 107.895 48.8004 118.868V118.868V118.868C53.7094 129.334 63.141 136.976 74.3975 139.607L75.4497 139.853V139.853C87.4129 142.649 97.5196 150.608 103.042 161.582V161.582V161.582C108.566 172.555 118.672 180.513 130.635 183.31V183.31V183.31C142.598 186.102 152.709 194.059 158.233 205.031V205.031L166.949 222.346" stroke="white" stroke-width="3"></path> <path d="M-106.213 117.032L-87.6197 121.804V121.804C-75.7782 124.848 -65.7636 132.739 -60.0321 143.539V143.539V143.539C-54.2998 154.34 -44.2836 162.227 -32.4395 165.267V165.267V165.267C-20.5954 168.306 -10.579 176.194 -4.84652 186.994V186.994V186.994C0.268485 197.29 9.60975 204.851 20.7452 207.708L21.8028 207.98V207.98C33.6476 211.018 43.6644 218.906 49.3951 229.708V229.708V229.708C55.1273 240.509 65.1436 248.397 76.9877 251.436V251.436V251.436C88.8325 254.471 98.8535 262.357 104.585 273.158V273.158L113.584 290.114" stroke="white" stroke-width="4"></path> <path d="M-61.6014 60.3793L-42.8667 64.9718V64.9718C-30.9656 67.8944 -20.9067 75.8206 -15.2793 86.7068V86.7068V86.7068C-9.65117 97.5944 0.40955 105.517 12.3133 108.435V108.435V108.435C24.217 111.353 34.278 119.275 39.9063 130.163V130.163V130.163C44.9182 140.544 54.3041 148.145 65.5005 150.889L66.5556 151.148V151.148C78.4601 154.064 88.5214 161.988 94.1478 172.876V172.876V172.876C99.776 183.764 109.837 191.687 121.74 194.605V194.605V194.605C133.645 197.518 143.711 205.439 149.338 216.326V216.326L158.196 233.461" stroke="white" stroke-width="3"></path> <path d="M-115.248 128.506L-96.5137 133.098V133.098C-84.6126 136.021 -74.5536 143.947 -68.9263 154.833V154.833V154.833C-63.2981 165.721 -53.2374 173.643 -41.3336 176.561V176.561V176.561C-29.4299 179.479 -19.369 187.402 -13.7407 198.289V198.289V198.289C-8.72882 208.67 0.657118 216.271 11.8535 219.016L12.9086 219.274V219.274C24.8131 222.191 34.8745 230.114 40.5009 241.003V241.003V241.003C46.129 251.89 56.1897 259.813 68.0935 262.731V262.731V262.731C79.9979 265.644 90.0636 273.565 95.6915 284.452V284.452L104.549 301.588" stroke="white" stroke-width="4"></path> <path d="M-70.6363 71.853L-51.7605 76.2663V76.2663C-39.8008 79.0679 -29.6966 87.03 -24.1732 98.0016V98.0016V98.0016C-18.6491 108.975 -8.54305 116.933 3.41939 119.73V119.73V119.73C15.3818 122.527 25.488 130.485 31.0123 141.457V141.457V141.457C35.9213 151.923 45.3529 159.565 56.6094 162.197L57.6616 162.443V162.443C69.6249 165.238 79.7315 173.197 85.2539 184.171V184.171V184.171C90.7781 195.144 100.884 203.102 112.847 205.899V205.899V205.899C124.81 208.691 134.921 216.648 140.445 227.62V227.62L149.161 244.935" stroke="white" stroke-width="3"></path> </svg> 