<?xml version="1.0" encoding="UTF-8"?> <svg xmlns="http://www.w3.org/2000/svg" width="29" height="30" viewBox="0 0 29 30" fill="none"> <path d="M12.8841 2.14609C12.9083 2.42727 13.0988 2.77801 12.5337 2.57957C12.2334 2.47412 12.0633 2.95906 11.6554 3.0044C11.4364 3.0287 11.0788 3.14312 10.7926 3.23587C10.6052 3.2967 10.3669 3.22515 10.3008 3.49918C10.2805 3.58359 10.2207 3.64331 10.1374 3.59614C9.7119 3.35546 9.43382 3.69484 9.12952 3.85818C7.88543 4.5252 6.68576 5.28505 5.63727 6.20863C4.13896 7.52829 2.72127 8.94285 1.52305 10.5484C1.50047 10.5786 1.48894 10.6289 1.46008 10.6407C1.18981 10.7501 1.50765 11.4939 0.878105 11.1901C0.0189298 10.7756 -0.177562 10.4056 0.148741 9.7767C0.532532 9.03718 0.950428 8.31252 1.39404 7.60603C3.00169 5.04563 5.24953 3.14106 7.88107 1.68053C9.65329 0.696911 11.6072 0.214594 13.6366 0.0721378C15.2012 -0.0376821 16.7674 -0.062378 18.309 0.293365C18.8457 0.41724 19.4023 0.533254 19.8854 0.776715C20.1387 0.904402 20.4004 0.967292 20.6295 1.07417C21.5191 1.4886 22.5412 1.67409 23.2386 2.46721C23.4088 2.66081 23.7639 2.64151 24.0313 2.81843C26.555 4.48764 28.1452 6.77909 28.6238 9.7177C29.091 12.587 29.2005 15.4804 28.5017 18.3488C28.3445 18.9938 28.0372 19.5619 27.7364 20.152C27.391 20.8298 26.9401 21.4606 26.6927 22.1886C26.6397 22.3444 26.5722 22.5226 26.4532 22.6253C25.739 23.2394 25.2419 24.0411 24.569 24.6939C23.8083 25.4188 22.9772 26.0684 22.0875 26.6332C21.386 27.0885 20.7415 27.6373 20.063 28.1249C19.2356 28.7196 18.2279 29.0111 17.2566 29.342C16.3606 29.6473 15.4328 29.7946 14.5034 29.9469C14.3502 29.972 14.2233 30.0606 14.1083 29.8813C14.086 29.8537 14.0572 29.8319 14.0243 29.8178C13.9914 29.8038 13.9555 29.7979 13.9198 29.8007C12.4539 30.279 10.5034 29.8215 9.32448 29.2185C7.84286 28.4609 6.48774 27.5113 5.41087 26.2662C4.53866 25.2516 3.9185 24.0507 3.59955 22.7589C3.34219 21.7454 3.05297 20.7436 2.87583 19.7097C2.62959 18.2725 3.02459 16.9887 3.75024 15.7779C4.36615 14.7639 5.03846 13.7842 5.7641 12.8432C6.48629 11.8951 7.5509 11.4986 8.60423 11.1693C9.87508 10.7737 11.2061 10.5986 12.5378 10.6518C13.4425 10.6713 14.3059 11.0286 14.9532 11.6514C15.8825 12.5256 16.5546 13.5727 17.0853 14.7165C17.5287 15.6726 17.547 16.7199 17.7475 17.7273C17.7951 17.9668 17.6298 18.1387 17.3372 18.1587C17.0891 18.1757 16.8937 18.2785 16.992 18.5875C17.031 18.5875 17.0496 18.5889 17.0679 18.5875C17.3076 18.5667 17.3414 18.0926 17.6431 18.2872C17.9164 18.4634 17.8429 18.7895 17.8195 19.0701C17.7212 20.2505 17.2777 21.2821 16.3773 22.0776C15.6311 22.7367 14.9683 23.4717 13.9446 23.8174C11.8777 24.5156 10.8542 23.9238 9.34795 22.5511C8.85297 22.1 8.70389 21.4627 8.47192 20.87C7.78061 19.1031 9.13154 17.9176 10.646 17.9015C10.4823 18.5065 9.66272 18.3831 9.38657 19.0102C9.90259 18.8567 10.2268 18.5591 10.6121 18.384C10.7835 18.306 11.086 18.1003 11.1539 18.3126C11.2345 18.5646 11.6599 18.6669 11.3663 19.1659C11.0535 19.698 10.7086 20.2729 10.5389 20.8965C10.3944 21.4274 10.7446 21.8438 11.2822 21.7971C12.7869 21.6665 14.0838 21.0275 15.13 20.012C15.8059 19.3561 15.9899 18.3964 15.9146 17.4616C15.8355 16.4787 15.7897 15.4821 15.3774 14.5509C15.2536 14.2713 14.6745 13.2645 14.4199 13.077C14.2257 12.9361 13.9894 12.8629 13.7483 12.8691C13.6183 12.8698 13.4041 13.0059 13.3815 12.6891C13.3707 12.5382 13.0993 12.5333 13.0892 12.6541C13.0546 13.0595 12.7378 12.9578 12.5365 12.9697C11.4311 13.0346 10.4017 13.437 9.33214 13.6569C9.10662 13.7024 8.89798 13.8076 8.72871 13.9612C8.55944 14.1148 8.43597 14.3111 8.37162 14.5287C8.31901 14.7312 8.19258 14.9074 8.01645 15.0239C7.1422 15.548 6.90499 16.4654 6.49064 17.287C6.24489 17.7743 5.78216 18.1352 5.61066 18.6915C5.33721 19.586 5.30459 20.5351 5.51601 21.4458C5.74064 22.451 5.99921 23.4603 6.43291 24.4032C7.06028 25.7675 8.26785 26.4433 9.63135 26.9238C10.159 27.1097 10.766 27.002 11.2555 27.3964C11.332 27.4579 11.7859 27.2138 12.1007 27.184C15.0881 26.9009 17.7622 25.7877 20.2896 24.2359C21.9137 23.2387 23.131 21.8833 24.1993 20.3602C25.8214 18.0473 26.3019 15.4163 26.3612 12.6858C26.403 11.3126 26.339 9.93833 26.1698 8.57472C25.909 6.61273 24.8878 5.20302 23.1237 4.25085C22.3174 3.8157 21.4869 3.41438 20.6798 2.98629C20.3544 2.81366 19.8524 2.56456 19.276 2.68741C18.7752 2.79413 18.1838 2.51366 17.6106 2.49683C16.994 2.47896 16.3886 2.24273 15.7581 2.4067C15.5954 2.44903 15.5591 2.39598 15.6488 2.2355C15.6612 2.21559 15.6663 2.19212 15.6633 2.16896C15.6604 2.14579 15.6495 2.12432 15.6325 2.10806C15.6154 2.09181 15.5933 2.08175 15.5697 2.07954C15.5461 2.07733 15.5225 2.0831 15.5026 2.0959C14.9883 2.55051 14.2539 2.15641 13.6991 2.59712C13.364 2.86274 13.2599 2.23145 12.8841 2.14609ZM10.306 1.43841C8.64446 1.29429 3.40242 5.08438 2.64338 6.79576C4.8888 4.58055 7.27128 2.55805 10.306 1.43841ZM15.7709 27.3133C16.2551 27.165 16.748 27.0395 17.2222 26.8645C19.1198 26.1643 20.7852 25.0582 22.4146 23.9034C22.5533 23.8051 22.8839 23.5266 22.5958 23.1699C20.6538 25.1007 18.1978 26.1679 15.7709 27.3133ZM12.7301 22.1965C12.9746 22.1223 13.216 22.035 13.4643 21.9761C14.2377 21.7926 14.7334 21.1794 15.3724 20.7886C15.4304 20.7526 15.472 20.6958 15.4884 20.6303C15.5048 20.5647 15.4948 20.4955 15.4605 20.437C15.3692 20.2886 15.2548 20.3943 15.1892 20.4777C14.5486 21.2917 13.5936 21.6371 12.7301 22.1965ZM8.46966 11.9614C7.81722 12.017 7.30813 12.3436 6.85653 12.7784C7.48317 12.6739 7.94703 12.2623 8.46966 11.9614ZM9.72867 3.23404C9.52033 3.23404 9.37246 3.24151 9.22571 3.23214C9.02713 3.21951 8.91441 3.3306 8.8287 3.48163C8.7921 3.54611 8.76839 3.64942 8.8512 3.67221C9.00318 3.71398 9.12912 3.63942 9.24402 3.53007C9.36069 3.41898 9.57709 3.48322 9.72867 3.23404Z" fill="#FFB460"></path> </svg> 