<?xml version="1.0" encoding="UTF-8"?> <svg xmlns="http://www.w3.org/2000/svg" width="24" height="27" viewBox="0 0 24 27" fill="none"> <path d="M20.9569 4.20972C20.7737 1.40699 18.9195 0.186144 16.3611 0.0186498C11.7652 -0.286561 5.62065 3.51369 4.248 8.23329C3.52933 10.7234 4.45641 13.1799 6.04466 15.0745C7.76227 17.1216 11.1867 18.7668 11.219 21.8263C11.2108 22.1009 11.2665 22.3736 11.3816 22.6211C11.4967 22.8686 11.6678 23.0837 11.8802 23.2482C11.8185 23.2675 11.7542 23.2763 11.6898 23.2742C9.37567 23.1737 9.37926 26.8958 11.6898 26.9963C14.3812 27.1154 16.0018 24.175 17.0797 21.9901C18.3981 19.2519 19.3842 16.3552 20.0155 13.366C20.6371 10.4442 21.151 7.21344 20.9569 4.20972ZM16.6773 11.7134C16.2791 13.7123 15.7276 15.6751 15.028 17.5832C14.9094 17.907 14.6686 18.577 14.3704 19.3474C13.4253 16.768 11.1364 15.1154 9.14929 13.0646C7.76227 11.6204 7.05079 9.99012 8.26892 8.18863C9.34692 6.59557 11.1436 5.26679 12.8145 4.46654C13.6584 4.05232 14.5679 3.8001 15.4987 3.72212C16.645 3.65885 17.3852 3.82262 17.3744 5.11418C17.346 7.33194 17.1125 9.54179 16.6773 11.7134Z" fill="#FFB460"></path> <path d="M14.9956 8.43053C14.8356 7.9043 14.5186 7.44425 14.0901 7.11663L13.9463 7.01241L13.8457 6.94169C13.5578 6.76876 13.256 6.62181 12.9438 6.50249C12.71 6.43598 12.4656 6.41917 12.2254 6.45307C11.9852 6.48697 11.7541 6.57089 11.546 6.69976C11.1426 6.94856 10.8468 7.34826 10.7195 7.81638C10.6387 8.15118 10.6387 8.50143 10.7195 8.83623C10.6332 9.33673 10.7143 9.85275 10.9495 10.299C11.2433 10.8277 11.7263 11.2152 12.294 11.3775C12.8617 11.5399 13.4682 11.464 13.9823 11.1663C14.4222 10.8934 14.7611 10.4755 14.9448 9.97959C15.1285 9.48364 15.1464 8.93823 14.9956 8.43053Z" fill="#FFB460"></path> </svg> 