<?xml version="1.0" encoding="UTF-8"?> <svg xmlns="http://www.w3.org/2000/svg" width="315" height="178" viewBox="0 0 315 178" fill="none"> <line y1="-1.5" x2="357.908" y2="-1.5" transform="matrix(0.785112 -0.619353 -0.703162 -0.71103 121.668 340.311)" stroke="white" stroke-width="3"></line> <line y1="-1.5" x2="357.908" y2="-1.5" transform="matrix(0.785112 -0.619353 -0.703162 -0.71103 110.012 297.007)" stroke="white" stroke-width="3"></line> <line y1="-1.5" x2="357.908" y2="-1.5" transform="matrix(0.785112 -0.619353 -0.703162 -0.71103 106.084 282.571)" stroke="white" stroke-width="3"></line> <line y1="-1.5" x2="357.908" y2="-1.5" transform="matrix(0.785112 -0.619353 -0.703162 -0.71103 113.939 311.444)" stroke="white" stroke-width="3"></line> <line y1="-1.5" x2="357.908" y2="-1.5" transform="matrix(0.785112 -0.619353 -0.703162 -0.71103 133.325 383.614)" stroke="white" stroke-width="3"></line> <line y1="-1.5" x2="357.908" y2="-1.5" transform="matrix(0.785112 -0.619353 -0.703162 -0.71103 129.398 369.178)" stroke="white" stroke-width="3"></line> <line y1="-1.5" x2="357.908" y2="-1.5" transform="matrix(0.785112 -0.619353 -0.703162 -0.71103 125.47 354.741)" stroke="white" stroke-width="3"></line> <line y1="-1.5" x2="357.908" y2="-1.5" transform="matrix(0.785112 -0.619353 -0.703162 -0.71103 117.741 325.874)" stroke="white" stroke-width="3"></line> <line y1="-1.5" x2="357.908" y2="-1.5" transform="matrix(0.785112 -0.619353 -0.703162 -0.71103 137.127 398.045)" stroke="white" stroke-width="3"></line> <line y1="-1.5" x2="357.908" y2="-1.5" transform="matrix(0.785112 -0.619353 -0.703162 -0.71103 90.6255 224.837)" stroke="white" stroke-width="3"></line> <line y1="-1.5" x2="357.908" y2="-1.5" transform="matrix(0.785112 -0.619353 -0.703162 -0.71103 98.3547 253.704)" stroke="white" stroke-width="3"></line> <line y1="-1.5" x2="357.908" y2="-1.5" transform="matrix(0.785112 -0.619353 -0.703162 -0.71103 94.5532 239.273)" stroke="white" stroke-width="3"></line> <line y1="-1.5" x2="357.908" y2="-1.5" transform="matrix(0.785112 -0.619353 -0.703162 -0.71103 102.282 268.14)" stroke="white" stroke-width="3"></line> </svg> 