<?xml version="1.0" encoding="UTF-8"?> <svg xmlns="http://www.w3.org/2000/svg" width="42" height="42" viewBox="0 0 42 42" fill="none"> <path d="M32.8622 19.4178C32.7502 19.2039 32.7048 19.1167 32.6748 19.0593C32.3336 19.1087 32.7856 19.8064 32.2527 19.6467C32.0341 19.908 31.8629 20.1628 31.6427 20.3658C31.1614 20.8094 30.6691 21.2433 30.1531 21.6466C29.9509 21.8046 29.6729 21.8664 29.4329 21.9794C29.3477 22.0196 29.2338 22.0634 29.1994 22.1363C28.7263 23.1367 27.8604 23.738 26.9829 24.3467C26.072 24.9786 25.2451 25.7387 24.2981 26.3067C23.4992 26.786 22.6536 27.3233 21.5954 26.7566C21.0614 26.4707 20.7891 25.715 21.1959 25.2585C21.3318 25.1032 21.4409 24.9269 21.519 24.7367C22.2263 23.0272 22.9394 21.3195 23.621 19.5998C24.2131 18.1061 24.7362 16.5852 25.3485 15.0998C25.7439 14.1401 26.4352 13.3661 27.2125 12.6761C27.6822 12.2411 28.1889 11.847 28.7271 11.4982L28.4121 11.9902L28.4856 12.069L29.4389 11.1912L29.375 11.0838L28.9512 11.2193L28.8785 11.1448C29.0268 10.9821 29.1531 10.791 29.3267 10.6608C30.9739 9.42032 32.6258 8.1859 34.2823 6.95756C34.5006 6.79489 34.7416 6.65862 34.9443 6.47941C35.3245 6.14303 36.0852 5.87009 36.3431 6.06535C36.7705 6.3889 37.0909 6.80879 36.9767 7.38947C36.8468 8.05005 36.7535 8.7307 36.5161 9.35466C36.1548 10.3054 36.0328 11.319 35.6513 12.2584C35.59 12.4091 35.4652 12.5344 35.4034 12.685C35.3474 12.8371 35.3095 12.9951 35.2904 13.1558C35.2393 13.488 35.2249 13.8276 35.149 14.1536C35.0529 14.5657 34.9318 14.9716 34.7864 15.3693C34.4843 16.1966 34.1645 17.0178 33.8377 17.8357C33.8031 17.9222 33.6659 17.9655 33.5848 18.0381C33.5073 18.1075 33.365 18.2143 33.3811 18.2612C33.5698 18.8117 32.8661 18.8679 32.8622 19.4178ZM33.0242 16.5511C32.9027 16.7464 32.5573 16.5799 32.5037 16.9225C32.4566 17.2228 32.3123 17.5081 32.2061 17.8119C32.7706 17.5922 32.8369 17.0348 33.0242 16.5511ZM30.0587 10.3387L30.139 10.4655L31.7034 9.24407L31.6109 9.12443L30.0587 10.3387ZM26.7729 13.5107L26.8958 13.6329L27.8944 12.6245L27.8083 12.5387L26.7729 13.5107Z" fill="#FFB460"></path> <path d="M15.1426 23C14.8576 22.2027 15.0186 20.9499 15.459 20.6286L15.0959 20.6093C15.0785 20.5715 15.0667 20.5312 15.061 20.4898C15.0971 19.1287 15.1214 17.7669 15.1782 16.4066C15.2248 15.2966 15.3097 14.1883 15.3808 13.0794C15.4901 11.3766 16.2334 9.95006 17.2607 8.64211C18.7164 6.78867 20.1654 4.93087 21.8746 3.30095C22.2539 2.93924 22.5922 2.53384 22.9604 2.16007C23.1568 1.961 23.3204 1.92922 23.5753 2.17008C23.9948 2.56639 24.0333 3.0342 23.9825 3.53653C23.787 5.47347 23.5686 7.40804 23.3761 9.34528C23.2592 10.5208 23.1885 11.701 23.0656 12.8757C23.0319 13.1988 22.8678 13.5057 22.7947 13.8273C22.7192 14.1606 22.6993 14.5072 22.6233 14.8401C22.2703 16.3861 21.3726 17.6108 20.3453 18.7584C19.5183 19.6822 18.7107 20.6242 17.8672 21.5321C17.4291 22.0033 16.9664 22.4677 16.446 22.8355C16.2107 23.0018 15.8075 22.9246 15.4805 22.9589C15.3787 22.9695 15.2773 22.9835 15.1426 23ZM21.6216 14.5693L21.4503 14.4751C21.1848 15.0195 20.9192 15.5639 20.6536 16.1083L20.7767 16.1741L21.6216 14.5693Z" fill="#FFB460"></path> <path d="M36 25.4624C35.8797 26.1306 35.7094 26.9543 35.5874 27.7844C35.4392 28.7929 35.2977 29.8044 35.2201 30.8192C35.1854 31.362 34.9502 31.8761 34.5556 32.2719C33.8201 33.0305 33.0067 33.7266 32.3198 34.521C31.553 35.4077 30.557 36.0139 29.6345 36.7135C28.6298 37.4754 27.6298 38.2432 26.614 38.9915C26.2515 39.2585 25.8473 39.4746 25.4644 39.7169C24.7949 40.1407 24.0672 39.9961 23.3599 39.8726C23.2118 39.8467 23.0234 39.5863 23.0075 39.4208C22.9837 39.1065 23.0167 38.7907 23.105 38.4869C23.6654 36.4523 24.2584 34.4256 24.8108 32.3892C25.0939 31.3454 25.5829 30.4197 26.3651 29.6367C27.7724 28.228 29.1571 26.7978 30.6043 25.4262C31.5602 24.5202 32.7055 23.83 33.8842 23.199C34.8071 22.7049 35.7993 23.1691 35.9245 24.1687C35.9709 24.5402 35.97 24.9163 36 25.4624Z" fill="#FFB460"></path> <path d="M12.0837 30.4214C12.439 29.8288 12.7107 29.1679 13.1666 28.6572C14.2345 27.4605 15.3707 26.3169 16.5185 25.1887C17.263 24.457 18.0724 23.7857 18.8641 23.0992C18.915 23.0588 18.9746 23.0297 19.0386 23.0138C19.1026 22.9979 19.1696 22.9957 19.2346 23.0074C19.5781 23.1196 20.0038 23.2267 20 23.6581C19.9934 24.4222 19.9238 25.1862 19.8668 25.9493C19.8116 26.6889 19.7418 27.4275 19.6737 28.1661C19.5629 29.3664 19.3711 30.5607 18.7367 31.6155C18.433 32.1205 17.942 32.5256 17.5187 32.9608C17.0716 33.4204 16.6179 33.8756 16.1416 34.307C15.7675 34.6457 15.3528 34.9432 14.9592 35.2625C14.647 35.5157 14.315 35.7519 14.0341 36.0342C13.2704 36.802 12.4324 37.4721 11.4434 37.9598C11.2334 38.0632 10.2891 37.9525 10.1526 37.793C9.90452 37.5035 10.0113 37.1988 10.1082 36.8747C10.3713 35.9954 10.595 35.1054 10.8408 34.2213C11.1508 33.1062 11.4603 31.9902 11.7881 30.8796C11.8375 30.7123 11.9855 30.5715 12.0899 30.4169C12.1448 30.4856 12.1978 30.5559 12.2693 30.6508L13.1283 29.2702L13.0036 29.1975C12.9019 29.3416 12.8041 29.4887 12.6975 29.6294C12.4957 29.8953 12.2886 30.1576 12.0837 30.4214ZM13.1651 28.9431L13.3047 29.0745C13.6063 28.7302 13.9079 28.3858 14.2095 28.0415L14.2641 28.0964L13.1651 28.9431ZM16.7009 32.3554L16.7797 32.4107C17.1356 32.0509 17.4914 31.6911 17.8473 31.3314L17.7724 31.2643C17.4152 31.628 17.058 31.9917 16.7009 32.3554ZM17.97 30.4988L17.7957 30.4082L17.3653 31.0973L17.5067 31.176C17.6612 30.9503 17.8157 30.7245 17.97 30.4988Z" fill="#FFB460"></path> <path d="M4 30.2634C4.21162 28.755 4.39967 27.4309 4.58235 26.106C4.65538 25.5766 4.73838 25.0473 4.77933 24.5153C4.88727 23.1145 5.7564 22.1225 6.66325 21.1322C7.31829 20.417 7.90183 19.6413 8.54887 18.9192C9.33135 18.0458 10.1281 17.1826 10.9596 16.3527C11.2164 16.0964 11.5618 15.8845 12.0208 16.0708C12.558 16.2888 12.9713 16.5823 12.98 17.1829C12.9959 18.2773 13.0226 19.3739 12.9635 20.4656C12.934 21.0138 12.6911 21.5483 12.6107 22.0979C12.5311 22.644 12.5566 23.2038 12.495 23.7526C12.4506 24.1474 12.4048 24.5636 12.2403 24.9188C12.0342 25.3599 11.7612 25.7691 11.4301 26.133C10.8919 26.7239 10.2905 27.2616 9.71348 27.8196C8.90214 28.6039 8.12452 29.4209 7.11816 29.9965C6.78966 30.1844 6.53854 30.4934 6.23089 30.7203C5.67272 31.1321 5.03113 31.0133 4.44691 30.8432C4.22133 30.7776 4.09526 30.396 4 30.2634ZM7.85858 20.3763L7.73702 20.2867L6.4878 21.7371L6.59455 21.819L7.85858 20.3763ZM9.53616 22.4346L9.41349 22.3868L8.80501 23.8646L8.92078 23.907C9.12577 23.4161 9.33081 22.9253 9.5359 22.4345L9.53616 22.4346Z" fill="#FFB460"></path> </svg> 