<?xml version="1.0" encoding="UTF-8"?> <svg xmlns="http://www.w3.org/2000/svg" width="32" height="50" viewBox="0 0 32 50" fill="none"> <path d="M30.534 29.054C30.2187 29.111 29.9629 29.4752 29.5317 29.2301L29.703 29.0456C29.3317 28.9035 29.1809 28.6186 29.0843 28.3362C28.6454 27.9772 28.2072 27.6497 27.8115 27.2868C27.3969 26.9065 27.0228 26.4921 26.6206 26.0821L26.8539 25.8528C26.1016 25.8876 25.6466 25.5078 25.2517 25.1187L24.6981 25.3667C24.6981 25.4277 24.6981 25.4885 24.6981 25.5847C24.8806 25.6153 25.0717 25.6472 25.3169 25.6882C25.2411 26.127 25.5686 26.3629 25.9596 26.5921L26.3007 26.3828C26.4056 26.8482 26.7091 27.2615 27.1497 27.5391C28.1085 28.1669 28.7899 29.0355 29.4533 29.8993C29.5638 30.0434 29.5683 30.2498 29.6723 30.5947L30.106 29.9405L29.6088 29.6188C30.0176 29.4915 30.3172 29.3985 30.6163 29.3054L31.2048 30.2733L31.0186 30.4796C31.5444 31.1435 31.5256 31.9661 31.7423 32.7571L31.5118 33.1495L31.041 33.1495L30.961 33.5676C31.2246 33.4797 31.3869 33.4256 31.5543 33.3698C31.6111 33.4195 31.6852 33.4843 31.7568 33.5467C31.775 33.9993 31.2698 34.0639 30.9567 34.3701C31.1762 34.4027 31.35 34.4284 31.5917 34.4643C31.715 34.993 31.2423 35.397 31.1561 35.8728C30.9481 35.8921 30.7829 35.9077 30.41 35.9424C30.7187 36.0819 30.8918 36.16 30.9636 36.1925L30.9636 36.9949C30.8289 36.9279 30.7366 36.8819 30.5375 36.7827L30.6934 37.3387C30.7155 37.258 30.714 37.305 30.691 37.3417C30.3019 37.9639 29.9469 38.6055 29.5103 39.201C28.9263 40.0115 28.1951 40.7338 27.3454 41.3394C26.624 41.8451 25.7902 42.2269 25.0931 42.7712C24.9528 42.881 24.7499 42.93 24.5651 43.0117C24.5424 42.9918 24.4931 42.9486 24.3806 42.8498C24.3124 42.9913 24.2046 43.1155 24.0671 43.2111C23.9296 43.3068 23.7669 43.3707 23.5938 43.3972C22.4191 43.6343 22.4174 43.6281 21.9571 43.443L20.8401 43.8244L20.5658 43.3451L20.2088 43.5422C19.369 43.406 18.5937 43.2802 17.805 43.1523L17.7457 42.6829C17.0416 42.7203 16.6032 42.3009 16.0916 41.8317L15.7653 42.343L15.1888 42.0276L15.6267 41.8976C15.5544 41.7455 15.5278 41.5252 15.3882 41.4255C14.9232 41.0999 14.4381 40.7966 13.9351 40.5171C13.8085 40.4454 13.6117 40.4677 13.5697 40.4623C13.2392 40.1379 13.0282 39.7784 12.6955 39.6335C11.7868 39.238 11.407 38.4777 10.8695 37.823C10.7274 37.6312 10.5967 37.4332 10.4778 37.2298C10.5704 37.2009 10.6916 37.1623 10.8214 37.1216C10.7993 37.0791 10.7739 36.9996 10.7551 37.0007C10.4638 37.0161 10.1881 37.0111 10.0292 36.6282L10.0292 36.0955L9.12869 35.4484L9.31864 34.8792C8.59179 34.5816 8.42737 33.8995 8.11897 33.2842L8.32439 33.06L7.70848 32.4942L7.70848 31.7706C7.33489 31.6122 7.02406 31.4292 7.2466 31.0034L6.54848 30.105L5.38483 31.8964L5.55986 32.11L5.314 32.7862L5.08483 32.7862C5.06804 32.8324 5.02726 32.9062 5.04063 32.9142C5.294 33.0718 5.20638 33.3065 5.18561 33.5009C5.15886 33.7535 5.04119 33.9979 4.99091 34.2502C4.94483 34.4817 5.00196 34.7454 4.89522 34.9479C4.74947 35.2256 5.03544 35.398 5.02461 35.6547C5.01246 35.9402 4.78417 36.1969 4.94063 36.5251C5.06461 36.7851 4.98958 37.1214 4.98483 37.4235C4.96914 38.3647 5.26107 39.2544 5.55312 40.1467C5.73223 40.6943 5.82936 41.2649 6.04583 41.7997C6.37712 42.6541 6.76518 43.4908 7.20803 44.3057C7.42107 44.6845 7.38483 45.1773 7.85157 45.4488C7.99522 45.5323 7.84604 45.8387 8.20328 45.7986C8.26251 45.792 8.33985 46.0292 8.43753 46.1332C8.57013 46.274 8.74052 46.387 8.87599 46.5259C9.13102 46.7875 9.37256 47.0589 9.68019 47.3915L8.85743 47.3915C8.62903 47.0373 8.62903 47.0373 7.75146 46.705L7.75146 47.1589C8.35919 47.3563 8.66593 47.9073 9.20151 48.2389L8.90151 48.4854L8.15985 48.1685C8.16671 48.2717 8.12671 48.4168 8.18914 48.4698C8.36649 48.6204 8.58571 48.7333 8.92295 48.9459C8.62328 49.0203 8.45643 49.0616 8.25267 49.1121L7.77687 49.7256L7.42516 48.9483C7.24837 48.9951 7.04328 49.0495 6.79256 49.1159L6.22903 48.4357L5.93201 48.9L5.43246 48.4426L5.74417 47.9568C5.42483 48.0272 5.25886 48.0637 5.10494 48.0975L4.88538 47.8166C4.90837 47.8124 5.00395 47.7951 5.17776 47.7637L4.49069 46.87C4.39721 46.9439 4.32417 47.0018 4.35212 46.9797L3.64494 46.5344L3.93102 46.2335C3.73213 46.1341 3.53323 46.0344 3.32981 45.9324L3.32981 45.4332C2.96649 44.9526 2.59975 44.5389 2.3255 44.0826C2.08052 43.6753 2.26771 43.132 1.81135 42.7261L2.26649 42.3519L2.22229 41.8009L1.93157 42.3441C1.59566 41.7519 0.904944 41.2867 1.37909 40.5264L1.01445 40.208L1.23843 39.9765C0.941963 39.6166 0.880084 39.2105 1.2445 38.7909L0.757322 38.3103L0.944504 37.7855C0.916438 37.743 0.800855 37.6462 0.806491 37.5557C0.813231 37.4558 0.96815 37.3681 0.993012 37.2632C1.01337 37.1119 1.0163 36.9591 1.00174 36.8073C0.987345 36.686 0.989906 36.5636 1.00937 36.4429C1.04075 36.3368 1.13589 36.2447 1.23655 36.0973C0.585831 35.5995 1.41622 35.1331 1.1813 34.4555L1.97688 34.952C2.15246 34.7873 1.91765 34.4243 1.41699 34.1094L1.75157 34.0471C2.06428 33.7619 1.64782 33.5329 1.6245 33.2583L2.04218 32.8724L1.82716 32.6591C1.94528 32.6307 2.03898 32.6081 2.19953 32.5693C2.40152 31.9652 2.61367 31.3152 2.86251 30.6766C2.89811 30.5636 2.96602 30.4603 3.05988 30.3764C3.15373 30.2926 3.27045 30.2309 3.39909 30.1972C3.4045 29.9447 3.30826 29.6564 3.43113 29.4959C4.11246 28.6059 4.85036 27.749 5.56008 26.8754C5.67058 26.7387 5.73047 26.5708 5.82616 26.4236C5.94041 26.2478 6.06815 26.0788 6.20505 25.8855C6.12771 25.8639 6.01345 25.8317 5.82052 25.7777C5.88362 25.3111 5.66295 24.808 6.03677 24.3435L5.66792 23.7247C6.10218 23.1853 5.54638 22.4643 5.96936 21.9314L5.77301 21.3333C5.93876 21.2837 6.06097 21.2473 6.19124 21.2084C5.9592 20.8611 6.06837 20.5556 6.20881 20.1848C6.34141 19.8347 6.29853 19.4352 6.65345 19.1525C6.61091 19.1089 6.56848 19.0657 6.47942 18.9757L6.69113 18.7261L6.5382 18.456C6.6487 18.0561 6.73113 17.6436 6.87898 17.2501C7.18119 16.4453 7.2382 15.5736 7.80107 14.8358C7.99069 14.5873 8.04527 14.2529 8.12759 13.9506C8.61013 12.1788 9.66262 10.6488 10.7769 9.14271C11.3988 8.2915 12.1459 7.51516 12.999 6.83353C13.2804 6.61058 13.6018 6.38976 13.7724 6.10641C13.9583 5.79828 14.3343 5.75091 14.5586 5.49748C15.1652 4.81252 16.0602 4.4084 16.8287 3.88329C17.5888 3.38175 18.3875 2.92639 19.2191 2.52042C20.0867 2.08022 20.9569 1.60393 21.8966 1.32416C22.7826 1.0605 23.6195 0.640552 24.5771 0.556621C24.6937 0.546491 24.7981 0.39088 24.9104 0.388855C25.5497 0.377278 26.1128 0.0881484 26.7292 0.0235116C27.177 -0.0233742 27.6364 0.0143466 28.1686 0.0143466L28.7029 0.553823L28.4008 1.45748C28.2626 1.4845 28.1676 1.50312 28.0654 1.52318L28.0654 1.88274C27.8139 2.05253 27.6013 2.24248 27.345 2.35613C27.0876 2.48057 26.8013 2.55241 26.5075 2.56625C25.4791 2.56625 24.6468 3.07755 23.7312 3.35607C23.066 3.55866 22.4287 3.84413 21.7571 4.05396C21.3959 4.16683 21.083 4.40126 20.7556 4.59198C20.018 5.02158 19.2287 5.37997 18.5226 5.85462C18.1329 6.11654 17.6707 6.30004 17.2986 6.57759C16.4905 7.18083 15.687 7.79392 14.9396 8.45302C13.3638 9.84271 12.2705 11.5229 11.3139 13.2704C11.1069 13.6485 11.039 14.0881 10.9351 14.5052C10.7965 15.0617 10.4013 15.5426 10.3369 16.1202C10.2438 16.9542 9.79665 17.7275 9.79831 18.583C9.79831 18.8931 9.66129 19.2022 9.60229 19.514C9.54328 19.8258 9.71124 20.1555 9.41113 20.4602C9.30881 20.5641 9.42218 20.8569 9.48394 21.0518C9.6635 21.6147 9.64903 22.0256 9.39024 22.5806L9.64361 22.9025C9.56251 22.9894 9.48538 23.0804 9.39831 23.163C9.3287 23.2293 9.24693 23.2858 9.19942 23.3236L9.79444 23.8079C10.1741 23.6497 10.6302 23.4425 11.1022 23.2677C11.5773 23.0918 12.0792 22.9686 12.5497 22.7853C13.0337 22.5896 13.5462 22.453 14.0729 22.3795L14.3176 22.1658C14.7092 22.1658 15.1261 22.1807 15.5408 22.1607C15.8342 22.1466 16.1529 22.2647 16.4172 22.0044C16.4953 21.9272 16.7864 21.9284 16.9152 21.9926C17.4965 22.282 18.1196 22.1159 18.7213 22.1681C19.2544 22.2144 19.784 22.283 20.1764 22.7187C20.633 22.6766 21.0937 22.7513 21.5024 22.9339C21.7833 23.0651 22.1938 23.0428 22.4028 23.2191C22.6737 23.4473 22.9885 23.361 23.2397 23.4648C23.7723 23.6844 24.4619 23.751 24.6339 24.4446L25.0375 24.1767L25.4857 24.7207C25.605 24.761 25.9026 24.8617 26.3648 25.0181C26.791 25.334 27.4782 25.6828 27.895 26.1982C28.3049 26.7052 28.874 27.0376 29.2997 27.4995C29.7518 27.989 30.126 28.5338 30.534 29.054ZM27.4257 36.8705C27.753 36.6713 28.0052 36.5179 28.2494 36.3688L27.7392 36.0331C27.975 35.9334 28.1165 35.8735 28.2791 35.8047C28.1196 35.7395 27.9778 35.6816 27.8451 35.6273L27.8451 35.3958C28.033 35.3668 28.2248 35.3379 28.4521 35.3031L28.4521 34.523C29.0692 34.2399 29.2862 33.8899 28.9907 33.7119C28.9098 33.7691 28.8388 33.853 28.7493 33.8727C28.667 33.8908 28.5647 33.8401 28.3696 33.7974C28.5715 33.5728 28.7618 33.4093 28.8785 33.2127C28.9448 33.1011 28.8904 32.935 28.8904 32.7347L28.5002 32.9855C27.9689 32.604 27.9678 32.6038 28.2382 32.1736C28.1438 32.0075 28.1005 31.7918 27.9619 31.7225C27.7892 31.6364 27.5499 31.6616 27.6444 31.4115C27.8055 31.3247 27.953 31.2456 28.1769 31.1253C27.7187 30.8209 27.3525 30.5776 26.9867 30.3342L27.2298 30.0922L26.6199 29.7642L26.2794 29.1257L26.0316 29.2978L25.6596 28.2028L25.4607 28.3604C24.992 28.1989 24.5403 28.0432 23.9948 27.8553C24.2756 28.5705 25.086 28.6643 25.4776 29.1474C25.8692 29.6306 26.3422 30.0614 26.8257 30.5635L26.3553 30.5635C26.0136 30.232 25.6849 30.0016 25.4943 29.7039C25.294 29.3909 24.8619 29.3068 24.7038 29.0016C24.5261 28.6581 24.1149 28.603 23.8384 28.3879C23.38 28.0309 22.6671 27.9113 22.51 27.3045C21.9213 27.2411 21.394 27.1027 20.9624 26.7244L20.1565 26.7244L20.0147 26.3868C19.7495 26.5564 19.5013 26.6849 19.2105 26.4398C19.0163 26.2791 18.7839 26.1578 18.5299 26.0847C18.2758 26.0115 18.0064 25.9883 17.7408 26.0167C17.3197 26.048 16.9596 25.8871 16.5689 25.8316C16.2754 25.7899 15.9501 25.8882 15.7085 25.6469C15.6894 25.6276 15.5882 25.6711 15.5254 25.6855L15.3969 26.0024C15.2899 25.9323 15.1728 25.8749 15.0485 25.8317C14.9111 25.8078 14.7697 25.8069 14.632 25.8292C14.4953 25.8472 14.3653 25.9202 14.2299 25.9257C14.1126 25.9306 13.9669 25.8227 13.8763 25.8552C13.3544 26.0436 12.8108 26.1187 12.26 26.2127C11.5885 26.3341 10.9647 26.606 10.4501 27.0017C10.5631 27.6861 10.9707 28.1775 11.1077 28.7838C11.2533 29.4277 11.7633 30.0024 12.0502 30.6296C12.5939 31.818 13.6473 32.7721 14.0657 34.0168C14.0974 34.1109 14.2636 34.1711 14.3676 34.2461C14.4643 34.2986 14.5517 34.3632 14.6268 34.438C15.4043 35.4833 16.327 36.4407 17.3738 37.2883C17.9343 37.7541 18.5723 38.1129 19.2258 38.4639C19.588 38.6585 20.036 38.7419 20.3371 38.9786C20.8743 39.4007 21.5479 39.4349 22.1701 39.5322C22.8466 39.6384 23.567 39.6031 24.2585 39.5434C24.9732 39.4688 25.6521 39.2286 26.2247 38.8478C26.3973 38.738 26.4487 38.4908 26.6114 38.3586C26.7742 38.2263 27.0044 38.1589 27.2332 38.0498L27.0171 37.819L27.4266 37.4413L27.4257 36.8705Z" fill="#FFB460"></path> </svg> 