<?xml version="1.0" encoding="UTF-8"?> <svg xmlns="http://www.w3.org/2000/svg" width="254" height="225" viewBox="0 0 254 225" fill="none"> <path d="M146.389 481.509L150.701 450.398V450.398C153.448 430.635 164.607 413.02 181.299 402.088V402.088V402.088C197.994 391.156 209.147 373.538 211.886 353.771V353.771V353.771C214.626 334.004 225.778 316.387 242.472 305.454V305.454V305.454C258.45 295.603 269.194 279.133 271.771 260.54L272.013 258.788V258.788C274.75 239.02 285.904 221.402 302.601 210.472V210.472V210.472C319.296 199.539 330.448 181.922 333.188 162.155V162.155V162.155C335.919 142.387 347.069 124.762 363.763 113.83V113.83L390.038 96.6232" stroke="#B0D2CC" stroke-width="3"></path> <path d="M246.221 544.706L250.532 513.596V513.596C253.279 493.832 264.438 476.217 281.131 465.286V465.286V465.286C297.826 454.353 308.978 436.736 311.718 416.969V416.969V416.969C314.457 397.202 325.609 379.584 342.304 368.651V368.651V368.651C358.282 358.801 369.026 342.33 371.602 323.738L371.845 321.986V321.986C374.582 302.218 385.735 284.599 402.433 273.669V273.669V273.669C419.127 262.736 430.28 245.119 433.019 225.352V225.352V225.352C435.751 205.585 446.9 187.96 463.594 177.027V177.027L489.87 159.821" stroke="#B0D2CC" stroke-width="4"></path> <path d="M47.1854 418.709L51.4968 387.598V387.598C54.244 367.835 65.4029 350.22 82.0956 339.288V339.288V339.288C98.7904 328.356 109.943 310.738 112.682 290.971V290.971V290.971C115.422 271.204 126.574 253.587 143.269 242.654V242.654V242.654C159.246 232.803 169.991 216.333 172.567 197.74L172.81 195.988V195.988C175.546 176.22 186.7 158.602 203.397 147.672V147.672V147.672C220.092 136.739 231.244 119.122 233.984 99.3545V99.3545V99.3545C236.715 79.5872 247.865 61.9621 264.559 51.0298V51.0298L290.834 33.8232" stroke="#B0D2CC" stroke-width="3"></path> <path d="M126.925 469.187L130.922 437.878V437.878C133.464 418.04 144.673 400.346 161.522 389.568V389.568V389.568C178.372 378.79 189.575 361.093 192.108 341.251V341.251V341.251C194.642 321.409 205.844 303.712 222.694 292.934V292.934V292.934C238.826 283.236 249.629 266.685 252.013 248.014L252.236 246.268V246.268C254.766 226.425 265.97 208.728 282.823 197.952V197.952V197.952C299.674 187.173 310.876 169.476 313.41 149.634V149.634V149.634C315.935 129.792 327.135 112.088 343.984 101.309V101.309L370.574 84.3015" stroke="#B0D2CC" stroke-width="3"></path> <path d="M226.129 531.987L230.44 500.877V500.877C233.188 481.114 244.346 463.499 261.039 452.567V452.567V452.567C277.734 441.634 288.886 424.017 291.626 404.25V404.25V404.25C294.365 384.483 305.518 366.866 322.212 355.932V355.932V355.932C338.19 346.082 348.934 329.612 351.51 311.019L351.753 309.267V309.267C354.49 289.499 365.644 271.881 382.341 260.95V260.95V260.95C399.036 250.018 410.188 232.4 412.928 212.633V212.633V212.633C415.659 192.866 426.808 175.241 443.503 164.309V164.309L469.778 147.102" stroke="#B0D2CC" stroke-width="4"></path> <path d="M27.0933 405.989L31.4047 374.879V374.879C34.1519 355.116 45.3109 337.501 62.0036 326.569V326.569V326.569C78.6984 315.636 89.8508 298.019 92.5904 278.252V278.252V278.252C95.3298 258.485 106.482 240.867 123.176 229.934V229.934V229.934C139.154 220.084 149.899 203.614 152.475 185.021L152.718 183.269V183.269C155.454 163.501 166.608 145.883 183.305 134.952V134.952V134.952C200 124.02 211.152 106.402 213.892 86.6352V86.6352V86.6352C216.623 66.868 227.773 49.2428 244.467 38.3106V38.3106L270.742 21.1039" stroke="#B0D2CC" stroke-width="3"></path> <path d="M166.481 494.228L170.792 463.117V463.117C173.54 443.354 184.699 425.739 201.391 414.807V414.807V414.807C218.086 403.875 229.239 386.257 231.978 366.49V366.49V366.49C234.717 346.723 245.87 329.106 262.564 318.173V318.173V318.173C278.542 308.322 289.286 291.852 291.863 273.259L292.105 271.507V271.507C294.842 251.739 305.996 234.121 322.693 223.191V223.191V223.191C339.388 212.258 350.54 194.641 353.28 174.874V174.874V174.874C356.011 155.106 367.161 137.481 383.855 126.549V126.549L410.13 109.342" stroke="#B0D2CC" stroke-width="3"></path> <path d="M265.685 557.028L269.996 525.917V525.917C272.743 506.154 283.902 488.539 300.595 477.608V477.608V477.608C317.29 466.675 328.442 449.057 331.182 429.29V429.29V429.29C333.921 409.523 345.073 391.906 361.768 380.973V380.973V380.973C377.746 371.123 388.49 354.652 391.066 336.059L391.309 334.307V334.307C394.046 314.539 405.199 296.921 421.896 285.991V285.991V285.991C438.591 275.058 449.744 257.441 452.483 237.674V237.674V237.674C455.215 217.906 466.364 200.281 483.058 189.349V189.349L509.333 172.142" stroke="#B0D2CC" stroke-width="4"></path> <path d="M67.2768 431.427L71.2744 400.118V400.118C73.8159 380.28 85.0253 362.586 101.874 351.809V351.809V351.809C118.724 341.03 129.927 323.333 132.46 303.491V303.491V303.491C134.994 283.65 146.196 265.953 163.046 255.174V255.174V255.174C179.178 245.476 189.981 228.925 192.365 210.254L192.588 208.508V208.508C195.118 188.666 206.322 170.968 223.175 160.192V160.192V160.192C240.026 149.413 251.228 131.717 253.762 111.875V111.875V111.875C256.287 92.0327 267.487 74.3278 284.337 63.5497V63.5497L310.926 46.5417" stroke="#B0D2CC" stroke-width="3"></path> <path d="M185.945 506.549L190.57 475.638V475.638C193.524 455.951 204.634 438.413 221.169 427.328V427.328V427.328C237.706 416.241 248.809 398.701 251.756 379.01V379.01V379.01C254.702 359.32 265.805 341.78 282.342 330.693V330.693V330.693C298.164 320.69 308.85 304.298 311.62 285.786L311.883 284.028V284.028C314.827 264.336 325.931 246.795 342.471 235.711V235.711V235.711C359.008 224.624 370.111 207.084 373.057 187.394V187.394V187.394C375.996 167.703 387.096 150.156 403.633 139.069V139.069L429.594 121.664" stroke="#B0D2CC" stroke-width="4"></path> <path d="M86.7413 443.749L91.0527 412.639V412.639C93.7999 392.875 104.959 375.26 121.652 364.329V364.329V364.329C138.346 353.396 149.499 335.779 152.238 316.012V316.012V316.012C154.978 296.245 166.13 278.627 182.824 267.694V267.694V267.694C198.802 257.844 209.546 241.373 212.123 222.781L212.366 221.029V221.029C215.102 201.261 226.256 183.642 242.953 172.712V172.712V172.712C259.648 161.779 270.8 144.162 273.54 124.395V124.395V124.395C276.271 104.628 287.421 87.0026 304.115 76.0703V76.0703L330.39 58.8637" stroke="#B0D2CC" stroke-width="3"></path> <path d="M206.037 519.268L210.348 488.158V488.158C213.096 468.394 224.254 450.779 240.947 439.848V439.848V439.848C257.642 428.915 268.794 411.298 271.534 391.531V391.531V391.531C274.273 371.764 285.426 354.146 302.12 343.213V343.213V343.213C318.098 333.363 328.842 316.892 331.418 298.3L331.661 296.548V296.548C334.398 276.78 345.552 259.161 362.249 248.231V248.231V248.231C378.944 237.298 390.096 219.681 392.836 199.914V199.914V199.914C395.567 180.147 406.716 162.522 423.41 151.589V151.589L449.686 134.383" stroke="#B0D2CC" stroke-width="4"></path> <path d="M106.833 456.468L110.831 425.159V425.159C113.372 405.321 124.581 387.627 141.43 376.849V376.849V376.849C158.28 366.071 169.483 348.374 172.017 328.532V328.532V328.532C174.55 308.69 185.752 290.993 202.603 280.215V280.215V280.215C218.735 270.517 229.537 253.966 231.921 235.295L232.144 233.549V233.549C234.674 213.706 245.878 196.009 262.731 185.233V185.233V185.233C279.582 174.454 290.784 156.757 293.318 136.915V136.915V136.915C295.843 117.073 307.043 99.3686 323.893 88.5905V88.5905L350.482 71.5825" stroke="#B0D2CC" stroke-width="3"></path> </svg> 