<?xml version="1.0" encoding="UTF-8"?> <svg xmlns="http://www.w3.org/2000/svg" width="200" height="181" viewBox="0 0 200 181" fill="none"> <path d="M302.209 86.4623L283.475 81.8698V81.8698C271.574 78.9472 261.515 71.0209 255.887 60.1347V60.1347V60.1347C250.259 49.2471 240.198 41.3247 228.295 38.4066V38.4066V38.4066C216.391 35.4886 206.33 27.5663 200.702 16.6789V16.6789V16.6789C195.69 6.29753 186.304 -1.30337 175.107 -4.04778L174.052 -4.30639V-4.30639C162.148 -7.22283 152.086 -15.1461 146.46 -26.0349V-26.0349V-26.0349C140.832 -36.9225 130.771 -44.845 118.867 -47.7631V-47.7631V-47.7631C106.963 -50.6762 96.8973 -58.5973 91.2695 -69.4844V-69.4844L82.4117 -86.6199" stroke="white" stroke-width="3"></path> <path d="M347.104 29.4512L328.369 24.8586V24.8586C316.468 21.9361 306.409 14.0098 300.781 3.12361V3.12361V3.12361C295.153 -7.76397 285.093 -15.6864 273.189 -18.6045V-18.6045V-18.6045C261.285 -21.5225 251.224 -29.4448 245.596 -40.3322V-40.3322V-40.3322C240.584 -50.7136 231.198 -58.3145 220.002 -61.0589L218.947 -61.3175V-61.3175C207.042 -64.2339 196.981 -72.1572 191.354 -83.0461V-83.0461V-83.0461C185.726 -93.9336 175.666 -101.856 163.762 -104.774V-104.774V-104.774C151.857 -107.687 141.792 -115.608 136.164 -126.496V-126.496L127.306 -143.631" stroke="white" stroke-width="3"></path> <path d="M257.598 143.114L238.863 138.522V138.522C226.962 135.599 216.903 127.673 211.276 116.787V116.787V116.787C205.648 105.899 195.587 97.9769 183.683 95.0588V95.0588V95.0588C171.779 92.1408 161.718 84.2185 156.09 73.3311V73.3311V73.3311C151.078 62.9498 141.692 55.3488 130.496 52.6044L129.441 52.3458V52.3458C117.536 49.4294 107.475 41.5062 101.848 30.6173V30.6173V30.6173C96.2204 19.7297 86.1597 11.8073 74.2559 8.88915V8.88915V8.88915C62.3515 5.97606 52.2857 -1.94511 46.6579 -12.8322V-12.8322L37.8001 -29.9677" stroke="white" stroke-width="3"></path> <path d="M293.456 97.5775L274.581 93.1642V93.1642C262.621 90.3626 252.517 82.4005 246.993 71.429V71.429V71.429C241.469 60.456 231.363 52.4979 219.401 49.7008V49.7008V49.7008C207.438 46.9039 197.332 38.946 191.808 27.9732V27.9732V27.9732C186.899 17.5072 177.467 9.86553 166.211 7.23388L165.158 6.98788V6.98788C153.195 4.19257 143.089 -3.76638 137.566 -14.7407V-14.7407V-14.7407C132.042 -25.7137 121.936 -33.6718 109.974 -36.4688V-36.4688V-36.4688C98.0105 -39.2607 87.8993 -47.2175 82.3754 -58.19V-58.19L73.6587 -75.5046" stroke="white" stroke-width="3"></path> <path d="M338.068 40.9248L319.334 36.3323V36.3323C307.432 33.4097 297.373 25.4835 291.746 14.5972V14.5972V14.5972C286.118 3.70966 276.057 -4.21277 264.153 -7.13088V-7.13088V-7.13088C252.25 -10.0489 242.189 -17.9712 236.561 -28.8586V-28.8586V-28.8586C231.549 -39.2399 222.163 -46.8409 210.966 -49.5853L209.911 -49.8439V-49.8439C198.007 -52.7603 187.945 -60.6835 182.319 -71.5724V-71.5724V-71.5724C176.691 -82.46 166.63 -90.3824 154.726 -93.3005V-93.3005V-93.3005C142.822 -96.2136 132.756 -104.135 127.128 -115.022V-115.022L118.271 -132.157" stroke="white" stroke-width="3"></path> <path d="M248.562 154.589L229.828 149.996V149.996C217.927 147.074 207.868 139.147 202.24 128.261V128.261V128.261C196.612 117.373 186.551 109.451 174.648 106.533V106.533V106.533C162.744 103.615 152.683 95.6926 147.055 84.8052V84.8052V84.8052C142.043 74.4239 132.657 66.823 121.46 64.0786L120.405 63.82V63.82C108.501 60.9035 98.4395 52.9803 92.8131 42.0914V42.0914V42.0914C87.185 31.2038 77.1242 23.2814 65.2205 20.3633V20.3633V20.3633C53.3161 17.4502 43.2503 9.52901 37.6225 -1.35806V-1.35806L28.7647 -18.4935" stroke="white" stroke-width="3"></path> <path d="M311.245 74.9882L292.51 70.3956V70.3956C280.609 67.4731 270.55 59.5468 264.923 48.6606V48.6606V48.6606C259.294 37.773 249.234 29.8506 237.33 26.9325V26.9325V26.9325C225.426 24.0145 215.365 16.0922 209.737 5.20477V5.20477V5.20477C204.725 -5.17659 195.339 -12.7775 184.143 -15.5219L183.088 -15.7805V-15.7805C171.183 -18.697 161.122 -26.6202 155.495 -37.5091V-37.5091V-37.5091C149.867 -48.3967 139.807 -56.3191 127.903 -59.2372V-59.2372V-59.2372C115.998 -62.1503 105.933 -70.0715 100.305 -80.9585V-80.9585L91.4471 -98.094" stroke="white" stroke-width="3"></path> <path d="M355.857 18.3354L337.122 13.7429V13.7429C325.221 10.8204 315.162 2.89411 309.534 -7.99211V-7.99211V-7.99211C303.906 -18.8797 293.846 -26.8021 281.942 -29.7202V-29.7202V-29.7202C270.038 -32.6382 259.977 -40.5605 254.349 -51.4479V-51.4479V-51.4479C249.337 -61.8293 239.951 -69.4302 228.755 -72.1746L227.7 -72.4332V-72.4332C215.795 -75.3497 205.734 -83.2729 200.107 -94.1618V-94.1618V-94.1618C194.479 -105.049 184.418 -112.972 172.515 -115.89V-115.89V-115.89C160.61 -118.803 150.545 -126.724 144.917 -137.611V-137.611L136.059 -154.747" stroke="white" stroke-width="3"></path> <path d="M266.633 131.641L247.757 127.228V127.228C235.797 124.426 225.693 116.464 220.17 105.492V105.492V105.492C214.646 94.5193 204.54 86.5612 192.577 83.7642V83.7642V83.7642C180.615 80.9673 170.509 73.0093 164.984 62.0365V62.0365V62.0365C160.075 51.5705 150.644 43.9289 139.387 41.2972L138.335 41.0512V41.0512C126.372 38.2559 116.265 30.297 110.743 19.3227V19.3227V19.3227C105.219 8.34967 95.1125 0.391558 83.1501 -2.40546V-2.40546V-2.40546C71.1871 -5.19734 61.0758 -13.1541 55.5519 -24.1266V-24.1266L46.8352 -41.4413" stroke="white" stroke-width="3"></path> <path d="M319.998 63.8725L301.404 59.1008V59.1008C289.563 56.0568 279.548 48.1658 273.817 37.366V37.366V37.366C268.084 26.5649 258.068 18.6775 246.224 15.6379V15.6379V15.6379C234.38 12.5983 224.364 4.71104 218.631 -6.08987V-6.08987V-6.08987C213.516 -16.3855 204.175 -23.9463 193.04 -26.8038L191.982 -27.0751V-27.0751C180.137 -30.1132 170.12 -38.0013 164.39 -48.8037V-48.8037V-48.8037C158.657 -59.6048 148.641 -67.4922 136.797 -70.5318V-70.5318V-70.5318C124.952 -73.5666 114.931 -81.4528 109.199 -92.2533V-92.2533L100.2 -109.21" stroke="white" stroke-width="3"></path> <path d="M364.892 6.86181L346.157 2.26929V2.26929C334.256 -0.653277 324.197 -8.57952 318.57 -19.4657V-19.4657V-19.4657C312.941 -30.3533 302.881 -38.2758 290.977 -41.1939V-41.1939V-41.1939C279.073 -44.1119 269.012 -52.0342 263.384 -62.9216V-62.9216V-62.9216C258.372 -73.3029 248.986 -80.9038 237.79 -83.6482L236.735 -83.9069V-83.9069C224.83 -86.8233 214.769 -94.7465 209.142 -105.635V-105.635V-105.635C203.514 -116.523 193.454 -124.445 181.55 -127.364V-127.364V-127.364C169.645 -130.277 159.58 -138.198 153.952 -149.085V-149.085L145.094 -166.22" stroke="white" stroke-width="3"></path> <path d="M275.386 120.525L256.651 115.933V115.933C244.75 113.01 234.691 105.084 229.064 94.1977V94.1977V94.1977C223.436 83.3101 213.375 75.3877 201.471 72.4696V72.4696V72.4696C189.568 69.5516 179.507 61.6293 173.878 50.7419V50.7419V50.7419C168.867 40.3605 159.481 32.7596 148.284 30.0152L147.229 29.7566V29.7566C135.325 26.8402 125.263 18.9169 119.637 8.02805V8.02805V8.02805C114.009 -2.85954 103.948 -10.782 92.0442 -13.7001V-13.7001V-13.7001C80.1398 -16.6132 70.0741 -24.5343 64.4462 -35.4214V-35.4214L55.5884 -52.5569" stroke="white" stroke-width="3"></path> <path d="M329.033 52.3989L310.298 47.8064V47.8064C298.397 44.8838 288.338 36.9576 282.711 26.0714V26.0714V26.0714C277.083 15.1838 267.022 7.26135 255.118 4.34324V4.34324V4.34324C243.215 1.42523 233.154 -6.49705 227.525 -17.3845V-17.3845V-17.3845C222.513 -27.7658 213.128 -35.3667 201.931 -38.1111L200.876 -38.3697V-38.3697C188.972 -41.2862 178.91 -49.2094 173.284 -60.0983V-60.0983V-60.0983C167.656 -70.9859 157.595 -78.9083 145.691 -81.8264V-81.8264V-81.8264C133.787 -84.7395 123.721 -92.6607 118.093 -103.548V-103.548L109.235 -120.683" stroke="white" stroke-width="3"></path> <path d="M284.421 109.052L265.545 104.638V104.638C253.586 101.837 243.481 93.8745 237.958 82.903V82.903V82.903C232.434 71.93 222.328 63.9719 210.365 61.1748V61.1748V61.1748C198.403 58.3779 188.297 50.42 182.772 39.4472V39.4472V39.4472C177.863 28.9812 168.432 21.3395 157.175 18.7079L156.123 18.4619V18.4619C144.16 15.6666 134.053 7.70762 128.531 -3.26669V-3.26669V-3.26669C123.007 -14.2397 112.901 -22.1978 100.938 -24.9948V-24.9948V-24.9948C88.9751 -27.7867 78.8639 -35.7435 73.34 -46.716V-46.716L64.6233 -64.0306" stroke="white" stroke-width="3"></path> </svg> 