<?xml version="1.0" encoding="UTF-8"?> <svg xmlns="http://www.w3.org/2000/svg" width="36" height="31" viewBox="0 0 36 31" fill="none"> <path d="M17.9311 30.9894C17.2933 30.9894 16.8284 31.0163 16.368 30.9844C14.9309 30.8851 13.5137 30.7218 12.1165 30.2965C11.3748 30.0705 10.5492 30.015 9.83394 29.7098C9.08702 29.3913 8.28974 29.1722 7.6351 28.6063C7.01913 28.1002 6.37348 27.6306 5.70153 27.1998C4.68922 26.5388 3.8697 25.627 3.32462 24.5553C2.65991 24.2423 2.67103 23.4826 2.27516 22.9795C1.90061 22.5034 1.76248 21.8573 1.49722 21.311C1.29911 20.9031 1.63245 20.3606 1.11513 20.0913C1.21505 19.5547 0.927217 19.074 0.883567 18.5698C0.808076 17.7022 0.744628 16.804 0.887851 15.9536C1.17129 14.2715 1.5536 12.6147 2.20338 11.0052C2.83856 9.43183 3.86266 8.10706 4.66724 6.64683C4.87527 6.28181 5.18113 5.98066 5.55112 5.77655C5.92394 5.57822 5.74101 4.91452 6.32687 4.97406C6.93461 4.0676 7.84201 3.49517 8.70389 2.86708C9.7889 2.07604 10.9949 1.53395 12.2605 1.1074C12.7862 0.937185 13.3327 0.837587 13.8852 0.81128C14.7641 0.763381 15.629 0.572129 16.4449 0.245255C17.5802 -0.199731 18.7396 0.119295 19.8811 0.00993806C20.2483 0.399272 20.7427 0.304457 21.1614 0.236896C21.6209 0.162808 21.9052 0.499584 22.3217 0.529013C23.7468 0.629782 25.0556 1.19924 26.3908 1.64972C27.8487 2.14211 29.1589 2.91861 30.43 3.76003C32.3094 5.00395 33.8066 6.58579 34.7319 8.65121C35.0823 9.43308 35.293 10.2537 35.5111 11.085C35.8656 12.4362 35.7289 13.7775 35.6908 15.1112C35.6578 16.2696 35.2734 17.4036 34.8414 18.4964C34.5156 19.3202 34.1876 20.1431 33.8573 20.9651C33.8286 21.0362 33.7094 21.091 33.7105 21.1516C33.7312 22.3636 32.8861 23.0933 32.1651 23.893C32.0016 24.0743 31.7797 24.2351 31.6928 24.4484C31.1082 25.8833 29.8035 26.6078 28.6624 27.4882C27.4788 28.4017 26.1256 29.0449 24.7797 29.6711C23.6096 30.2156 22.3366 30.4842 21.0695 30.7739C19.9549 31.0272 18.8593 30.9303 17.9311 30.9894ZM15.6257 3.50696C15.4038 3.50696 15.3033 3.53719 15.2381 3.50249C14.2887 2.99762 13.4744 3.20855 12.705 3.89939C12.2242 4.33098 11.7222 4.80104 11.1882 5.10174C10.0616 5.7367 9.50037 6.83485 8.72763 7.73364C7.8229 8.78587 7.26772 10.098 6.64354 11.3538C5.73163 13.1882 5.34063 15.1162 5.16476 17.1097C5.05106 18.3989 5.31852 19.6482 5.6258 20.9025C5.72688 21.3155 6.0483 21.6877 5.94537 22.15C6.47392 22.3554 5.84927 23.0008 6.41683 23.2722C6.76997 23.441 6.98811 23.8859 7.26703 24.2066C7.3284 24.2607 7.38238 24.3226 7.42762 24.3905C7.89978 25.3909 8.82188 25.9207 9.69696 26.486C10.5932 27.0528 11.6211 27.3833 12.683 27.4461C14.2353 27.5427 15.8299 27.7071 17.367 27.2363C18.187 26.9851 19.0628 26.9013 19.8277 26.4883C21.3159 25.6849 22.8265 24.9721 24.1776 23.8782C25.8825 22.5253 27.3093 20.8616 28.3805 18.9772C28.8653 18.0994 29.2545 17.1732 29.5413 16.2141C29.8378 15.2379 30.0407 14.2362 30.1475 13.2223C30.298 11.8139 30.0448 10.4202 29.6469 9.06894C29.4418 8.37226 29.2007 7.64341 28.7866 7.06078C28.3109 6.3713 27.7081 5.77672 27.0096 5.3082C26.2384 4.81581 25.4778 4.1631 24.4454 4.22036C24.2254 3.65685 23.8731 4.31655 23.5588 4.11822C22.966 3.744 22.277 3.57521 21.6047 3.36337C21.1878 3.23191 20.7971 3.34115 20.4035 3.22962C19.4487 2.95915 19.4459 2.9777 18.4426 3.21965C18.3719 3.23672 18.2622 3.09541 18.1653 3.02384L17.6509 3.49963C17.3084 3.0448 16.9544 3.29592 16.6068 3.46356L16.1524 3.01422L15.6257 3.50696Z" fill="#FFB460"></path> </svg> 