<?xml version="1.0" encoding="UTF-8"?> <svg xmlns="http://www.w3.org/2000/svg" width="28" height="36" viewBox="0 0 28 36" fill="none"> <path d="M22.0529 29.4772L21.3539 30.1763C21.3264 30.1513 21.2993 30.1259 21.2715 30.1016C21.2228 30.0513 21.1696 30.0054 21.1127 29.9646C20.3086 30.6403 19.1191 30.1247 18.3272 30.861C18.192 30.7619 18.0363 30.5245 17.8696 30.6583C17.5601 30.9063 17.295 31.0066 16.9823 30.7021C16.971 30.6875 16.9554 30.6767 16.9376 30.6714C16.9199 30.666 16.901 30.6662 16.8834 30.6721C16.8658 30.6779 16.8505 30.6891 16.8396 30.7041C16.8286 30.719 16.8226 30.737 16.8223 30.7555C16.7065 31.2961 16.3331 31.1893 15.9272 31.205C15.5508 31.2196 15.1882 31.4652 14.8095 31.5737C13.7948 31.8645 12.7063 31.8529 11.7294 32.2865C11.415 32.4261 11.2195 31.9031 10.8416 32.2444C10.6663 32.4025 10.3065 32.6131 9.91522 32.5266C9.60295 32.4574 9.31758 32.7283 8.97233 32.7743C8.65994 32.8096 8.3646 32.9352 8.12244 33.1356C7.88029 33.3361 7.70181 33.6029 7.60885 33.9032L7.44504 33.7395C6.98859 33.8928 6.87119 34.1325 7.2523 34.4987C7.14216 34.6084 7.03245 34.7181 6.92146 34.8288L6.67856 34.6118C6.27718 34.7991 6.37558 35.4728 5.91347 35.5106C5.56006 35.5384 5.21523 35.6335 4.89759 35.7909C4.5231 35.6273 4.85895 35.2411 4.59215 35.0782C4.44274 35.1735 4.35939 35.4146 4.0389 35.2284C4.00561 34.9393 3.86954 34.5786 4.22033 34.2679C3.82247 33.9757 3.38011 33.8959 2.88631 33.8912C2.36668 33.8862 1.87384 33.7525 1.66669 33.1503C1.51035 32.6957 0.817614 32.7091 0.802246 32.079C0.829994 32.0404 0.914197 31.9217 0.99125 31.7982C1.28719 31.3247 1.6287 30.9658 2.27117 30.821C3.27777 30.5934 4.20955 30.0078 5.2185 29.827C6.06886 29.6746 6.14057 29.0779 6.30461 28.5357C6.41633 28.1504 6.49208 27.7556 6.53086 27.3563C6.65231 26.1718 7.08314 25.0329 7.02893 23.8282C7.50715 23.0402 7.10897 22.1329 7.38645 21.3007C7.65603 20.492 7.3254 19.5944 7.52091 18.7901C7.88174 17.3066 7.67129 15.8223 7.71739 14.3407C7.76317 12.868 7.72742 11.3926 7.72742 9.91833C7.72742 8.40525 7.89039 6.86934 7.68175 5.38562C7.47214 3.89463 7.57033 2.42233 7.48516 0.967415L8.45249 0L9.16358 0.711074C9.48822 0.252178 9.90561 0.284942 10.1744 0.40671C11.282 0.908933 12.2469 1.55544 12.8715 2.70225C13.8254 4.45331 14.9077 6.13532 15.9558 7.83462C16.7598 9.13842 17.6215 10.4109 18.4958 11.6526C19.6218 13.2519 20.6843 14.9115 21.9814 16.3944C22.4905 16.9765 22.7824 17.7615 23.4091 18.2257C23.7216 18.4572 23.2499 18.9834 23.8525 19.0204C24.2388 19.0443 24.1861 19.5646 24.4466 19.7714C24.7468 20.0098 24.8794 20.3866 25.1255 20.643C25.3716 20.8995 25.384 21.2667 25.6762 21.478C25.9497 21.6759 26.0761 22.005 26.2715 22.2699C26.7208 22.8899 27.1258 23.5408 27.4835 24.2177C27.9177 25.0224 27.8719 25.8496 27.435 26.6503C27.392 26.7477 27.3383 26.8401 27.2749 26.9257C27.0014 27.1851 27.1977 27.6694 26.9334 27.8254C26.2781 28.2125 25.7274 28.8116 24.9793 28.9886C24.6293 29.0795 24.2953 29.2235 23.9889 29.4155C23.6864 29.5927 23.3407 29.3703 23.0187 29.6289C22.7963 29.8094 22.3711 29.8557 22.0529 29.4772ZM11.8064 8.06279C11.8048 8.41294 11.1201 8.67461 11.6724 9.10363C11.6923 9.13596 11.7036 9.17284 11.7053 9.21078C11.7069 9.24872 11.6988 9.28644 11.6818 9.32037C11.2357 9.73861 11.4865 10.2686 11.4659 10.7413C11.4258 11.6698 11.4783 12.6018 11.4474 13.5308C11.4163 14.4699 11.5246 15.4012 11.2585 16.3514C11.0673 17.0344 11.1556 17.8211 11.2392 18.5478C11.3285 19.3255 10.919 20.0286 10.9981 20.7775C11.1071 21.8127 10.6094 22.7897 10.7549 23.821C10.7642 23.859 10.7638 23.8987 10.7538 23.9365C10.3085 24.997 10.3531 26.1598 10.0617 27.253C9.95246 27.6633 9.63593 28.0566 9.90679 28.5162C10.2302 28.6564 10.4566 28.3803 10.7285 28.3304C11.5561 28.1784 12.3507 27.8569 13.2051 27.8466C13.45 27.3726 13.9621 27.7173 14.3405 27.4783C14.6591 27.277 15.1671 27.1813 15.5921 27.1747C16.017 27.1681 16.3366 26.7771 16.7741 26.9202C17.1983 26.4557 17.8164 26.7288 18.345 26.5003C19.2901 26.092 20.3316 25.8927 21.3219 25.5557C21.8 25.3894 22.2324 25.113 22.5839 24.7488C22.731 24.0717 22.4772 23.5869 22.2249 23.165C21.534 22.0085 20.8336 20.8447 20.0069 19.7852C18.7136 18.1275 17.5282 16.3971 16.3297 14.6745C15.3493 13.2658 14.4044 11.8315 13.4509 10.4037C12.9214 9.61023 12.5203 8.7268 11.8064 8.06279V8.06279Z" fill="#FFB460"></path> </svg> 