<?xml version="1.0" encoding="UTF-8"?> <svg xmlns="http://www.w3.org/2000/svg" width="17" height="16" viewBox="0 0 17 16" fill="none"> <path d="M12.157 2.92339C12.1157 2.77678 12.0407 2.6419 11.9378 2.52955C11.835 2.4172 11.7073 2.33051 11.5649 2.27645C11.2569 1.94214 10.9438 1.61857 10.629 1.30988C10.4842 1.17183 10.3087 1.07014 10.117 1.01318C9.92521 0.956217 9.72266 0.945612 9.52599 0.982238C9.32932 1.01886 9.14416 1.10167 8.98576 1.22385C8.82735 1.34603 8.70023 1.50408 8.61484 1.68499C5.80908 1.60112 2.98992 2.82157 1.49346 5.37856C-0.72004 9.15733 2.26703 12.682 5.72517 14.1219C8.86331 15.4261 14.2911 16.2592 15.2644 11.7914C15.9762 8.52339 14.2634 5.39735 12.157 2.92339ZM12.3413 12.4826C11.0412 13.4623 9.04691 12.8962 7.65507 12.4385C5.11142 11.6003 1.51375 9.35526 3.58446 6.24666C5.03593 4.07313 7.92952 3.47285 10.3063 4.18953C11.4328 5.38778 12.2947 6.80955 12.8361 8.36253C13.2217 9.61177 13.5396 11.5664 12.3413 12.4826Z" fill="#585858"></path> <path d="M9.90054 7.29356C9.38161 7.53462 8.8523 7.75684 8.31261 7.96024C8.30821 7.50768 8.32854 7.05521 8.37351 6.60487C8.52351 5.1656 6.29013 4.89978 6.1397 6.34277C6.02556 7.44905 6.04414 8.565 6.19504 9.66686C6.30128 10.4342 7.08471 10.7375 7.7587 10.5259C8.7976 10.2038 9.8142 9.8137 10.8019 9.35817C12.1104 8.75685 11.2178 6.68194 9.90054 7.29356Z" fill="#585858"></path> </svg> 