<?xml version="1.0" encoding="UTF-8"?> <svg xmlns="http://www.w3.org/2000/svg" width="40" height="49" viewBox="0 0 40 49" fill="none"> <path d="M3.26441 21.0076C3.05947 22.2133 2.82098 23.4146 2.65881 24.6259C2.48547 25.9213 2.33999 27.2237 2.26435 28.5277C2.19621 29.7063 2.20379 30.8925 2.24936 32.0727C2.26733 32.5364 2.53402 32.9866 2.58828 33.4543C2.65054 33.9917 2.52866 34.5546 2.62235 35.0827C2.74276 35.6919 2.9319 36.2858 3.18622 36.8531C4.39896 39.687 5.76493 42.4419 8.38121 44.294C12.1326 46.9497 16.2572 47.4286 20.5406 45.8935C24.7738 44.3763 27.9168 41.3646 30.7521 38.0201C33.3934 34.904 35.2303 31.3956 36.3168 27.4384C36.9358 25.153 37.1733 22.7826 37.0197 20.4213C36.8977 18.4258 36.1182 16.3886 34.2621 15.1037C32.5693 13.932 30.6657 14.0456 28.7475 14.2646C28.4196 14.302 28.0656 14.1834 27.7521 14.2566C27.3983 14.3394 27.0181 14.495 26.7583 14.7347C26.5198 14.9547 26.4738 15.2827 27.0111 15.2982C29.2061 15.3616 31.5097 17.7852 31.6862 20.246C31.7764 21.5052 32.0269 22.7411 31.5754 24.0066C31.449 24.3612 31.7675 24.9019 31.9697 25.3151C32.0062 25.3898 32.4705 25.2588 32.777 25.2174C32.9585 26.0471 32.4346 26.7175 31.8671 27.1113C30.6038 27.988 30.0613 29.3347 29.2903 30.5271C27.9725 32.5655 26.455 34.3617 24.1065 35.2759C20.2668 36.7707 15.2831 35.3595 13.5942 31.2937C12.8708 29.552 12.8949 27.7057 13.5567 25.9655C14.204 24.2646 15.0673 22.6437 15.8612 20.9997C16.0135 20.6844 16.2401 20.2658 16.6648 20.8066C16.7003 20.852 16.9425 20.8229 16.998 20.7552C18.3282 19.1357 19.646 17.5061 20.9356 15.8224L17.7656 18.7309L17.7959 18.7651C17.9169 18.4228 17.9532 18.0113 18.1717 17.749C20.3817 15.0961 22.9829 12.9914 26.4396 12.1365C29.1672 11.4621 31.712 11.7763 34.1971 13.1946C36.3647 14.4317 37.9054 16.103 38.7391 18.4042C39.1549 19.5524 39.2312 20.7495 39.2793 21.9922C39.3292 23.2839 39.4156 24.5671 39.2438 25.8433C38.6679 30.2736 36.9025 34.4695 34.132 37.9926C33.2335 39.1458 32.4337 40.3905 31.4273 41.4416C30.4128 42.5002 29.211 43.3859 28.0653 44.3159C27.3606 44.8879 26.6173 45.4145 25.8741 45.9377C21.5111 49.0102 16.7681 49.2023 11.837 47.6738C6.83909 46.1247 3.54081 42.8047 1.66693 37.9898C0.0400567 33.8109 -0.384803 29.5137 0.34337 25.1277C0.681946 23.0885 1.32452 21.0989 1.8808 18.8811C2.31171 19.4837 2.56136 19.8329 2.81127 20.1794C2.9622 20.4533 3.11331 20.7305 3.26441 21.0076ZM23.9354 16.7997L23.7309 16.6033C22.8035 17.4127 21.7589 18.1241 20.9712 19.0501C18.7087 21.7095 16.738 24.5558 16.0134 28.0596C15.6411 29.861 15.5774 31.6786 17.0587 33.0067C18.4904 34.2906 20.2704 34.0873 21.977 33.5276C24.1221 32.824 25.6714 31.3427 26.9606 29.5711C27.7392 28.5011 27.7162 28.4847 26.4146 28.1601C23.3668 27.4003 21.6641 25.4655 21.7284 22.6102C21.7652 20.9748 22.2813 19.4191 23.1714 18.0129C23.4267 17.6092 23.6813 17.2048 23.9354 16.7997ZM29.8361 21.5231C29.5428 20.3644 29.317 19.2315 28.9568 18.1423C28.7488 17.5129 28.2423 17.1168 27.5047 17.5156C26.7728 17.9114 26.0539 18.3309 25.339 18.7558C25.3055 18.7757 25.3707 18.9493 25.3805 19.0522C25.399 19.2463 25.473 19.4616 25.4146 19.6316C25.0708 20.6379 24.5411 21.6071 24.3622 22.6381C23.9457 25.0374 24.4617 26.7599 27.569 26.6218C27.6608 26.6077 27.7541 26.6057 27.8465 26.6158C28.3831 26.7403 28.6758 26.4966 28.7919 26.0011C29.1399 24.5256 29.4811 23.0487 29.8361 21.5231Z" fill="#FFB460"></path> <path d="M4.39321 17.9263L3.91886 17.165C3.86554 17.3792 3.83973 17.6057 3.74979 17.8036C3.68011 17.9571 3.53029 18.0749 3.43404 18.1874C2.43994 17.3983 3.00977 16.6812 3.40201 15.9013C6.07723 10.5827 9.94739 6.28654 14.8269 2.88844C17.5375 1.00075 20.4631 -0.396188 23.9344 0.101483C24.5856 0.194855 25.2205 0.427101 25.8476 0.638665C25.9788 0.682902 26.0443 0.918357 26.1401 1.06576C25.9473 1.11422 25.7509 1.21519 25.5626 1.20193C24.7424 1.14427 23.9259 1.0032 23.1058 0.984375C20.9924 0.935832 19.2679 1.96241 17.6039 3.0789C16.1911 4.02688 14.6325 4.86275 13.4805 6.06915C11.3101 8.34189 9.38991 10.849 7.35232 13.2474C7.19449 13.4332 6.92371 13.521 6.72057 13.674C6.61576 13.749 6.53423 13.8516 6.48523 13.9701C6.34477 14.3772 6.29869 14.8312 6.09111 15.1975C5.57852 16.1019 4.99626 16.9677 4.39321 17.9263ZM10.4981 7.25157L10.2927 7.04499L8.69683 8.81246L8.87655 8.97025L10.4981 7.25157Z" fill="#FFB460"></path> <path d="M17.7963 18.765L17.766 18.7308C17.5163 19.2173 17.2738 19.7079 16.9974 20.1789C16.9822 20.2049 16.5695 20.1017 16.5395 20.0009C16.4362 19.6522 17.3179 18.8182 17.7963 18.765Z" fill="#FFB460"></path> </svg> 