<?xml version="1.0" encoding="UTF-8"?> <svg xmlns="http://www.w3.org/2000/svg" width="26" height="35" viewBox="0 0 26 35" fill="none"> <path d="M22.9155 6.4778C22.9185 6.17708 22.8612 5.87882 22.747 5.60062C22.6328 5.32243 22.464 5.06994 22.2506 4.85808C22.0372 4.64623 21.7834 4.47929 21.5044 4.36715C21.2254 4.255 20.9267 4.19992 20.626 4.20515C20.3721 4.14631 20.1093 4.13688 19.8518 4.17738C18.5473 4.34076 17.2572 4.60362 15.9927 4.96366C14.7627 5.34257 13.0133 6.01107 12.4584 7.26254C11.0501 10.2685 15.4026 11.5763 17.9219 11.9778C17.1516 14.582 16.1515 17.1127 14.9334 19.5399C13.5237 22.4387 11.5972 24.7795 8.93713 26.0485C8.85468 25.8749 8.74803 25.7139 8.62035 25.5703C7.39573 24.1431 5.33752 22.2307 3.51518 23.9556C1.9805 25.4125 2.60326 28.137 3.45026 29.7745C3.62488 30.1841 3.92353 30.5286 4.30419 30.7596C4.68485 30.9905 5.12834 31.0963 5.57225 31.062C10.8913 30.6609 15.0041 27.5786 17.6496 23.0549C20.5044 18.1796 22.7589 12.1628 22.9155 6.4778Z" fill="#FFB460"></path> </svg> 