<?xml version="1.0" encoding="UTF-8"?> <svg xmlns="http://www.w3.org/2000/svg" width="360" height="98" viewBox="0 0 360 98" fill="none"> <path d="M281.844 -81.2228C281.844 -25.7076 236.5 19.3154 180.542 19.3154C124.583 19.3154 79.2391 -25.7076 79.2391 -81.2228C79.2391 -136.738 124.583 -181.761 180.542 -181.761C236.5 -181.761 281.844 -136.738 281.844 -81.2228Z" stroke="#FFB460" stroke-width="3"></path> <circle cx="180.276" cy="-80.7235" r="126.525" stroke="#FFB460" stroke-width="3"></circle> <circle cx="180.393" cy="-81.8811" r="152.131" stroke="#FFB460" stroke-width="3"></circle> <path d="M358.5 -81.7643C358.5 16.3904 278.589 95.9713 180 95.9713C81.4111 95.9713 1.5 16.3904 1.5 -81.7643C1.5 -179.919 81.4111 -259.5 180 -259.5C278.589 -259.5 358.5 -179.919 358.5 -81.7643Z" stroke="#FFB460" stroke-width="3"></path> </svg> 