<?xml version="1.0" encoding="UTF-8"?> <svg xmlns="http://www.w3.org/2000/svg" width="320" height="355" viewBox="0 0 320 355" fill="none"> <path d="M193.657 519.166L198.186 477.144V477.144C201.074 450.448 215.365 426.299 237.372 410.914V410.914V410.914C259.381 395.527 273.663 371.375 276.541 344.674V344.674V344.674C279.418 317.974 293.7 293.822 315.709 278.434V278.434V278.434C336.798 264.532 350.578 241.939 353.284 216.826L353.539 214.459V214.459C356.413 187.758 370.696 163.604 392.709 148.22V148.22V148.22C414.718 132.833 429 108.681 431.878 81.9806V81.9806V81.9806C434.745 55.2804 449.022 31.1179 471.031 15.7314V15.7314L505.671 -8.48578" stroke="#B0D2CC" stroke-width="3"></path> <path d="M330.519 600.096L335.048 558.074V558.074C337.937 531.378 352.227 507.229 374.234 491.844V491.844V491.844C396.244 476.457 410.525 452.305 413.403 425.604V425.604V425.604C416.281 398.904 430.562 374.752 452.571 359.364V359.364V359.364C473.66 345.462 487.44 322.869 490.146 297.756L490.401 295.389V295.389C493.275 268.688 507.558 244.534 529.571 229.15V229.15V229.15C551.581 213.763 565.863 189.611 568.74 162.911V162.911V162.911C571.607 136.211 585.885 112.048 607.893 96.6616V96.6616L642.533 72.4444" stroke="#B0D2CC" stroke-width="4"></path> <path d="M57.6554 438.745L62.1844 396.723V396.723C65.0727 370.027 79.3632 345.878 101.37 330.493V330.493V330.493C123.38 315.105 137.661 290.953 140.539 264.253V264.253V264.253C143.417 237.553 157.698 213.4 179.707 198.013V198.013V198.013C200.796 184.111 214.576 161.518 217.282 136.404L217.537 134.038V134.038C220.411 107.336 234.694 83.1829 256.707 67.799V67.799V67.799C278.717 52.4118 292.999 28.2598 295.876 1.55945V1.55945V1.55945C298.743 -25.1408 313.021 -49.3033 335.029 -64.6898V-64.6898L369.669 -88.9069" stroke="#B0D2CC" stroke-width="3"></path> <path d="M166.973 503.387L171.072 461.111V461.111C173.68 434.323 188.035 410.065 210.258 394.881V394.881V394.881C232.483 379.694 246.829 355.433 249.427 328.641V328.641V328.641C252.024 301.849 266.37 277.587 288.595 262.401V262.401V262.401C309.898 248.698 323.752 225.994 326.196 200.783L326.425 198.426V198.426C329.019 171.632 343.366 147.37 365.595 132.187V132.187V132.187C387.82 117.001 402.166 92.7399 404.764 65.9474V65.9474V65.9474C407.351 39.1552 421.692 14.8834 443.916 -0.302091V-0.302091L478.986 -24.2649" stroke="#B0D2CC" stroke-width="3"></path> <path d="M302.975 583.808L307.504 541.786V541.786C310.392 515.091 324.683 490.941 346.689 475.556V475.556V475.556C368.699 460.169 382.981 436.017 385.858 409.317V409.317V409.317C388.736 382.616 403.017 358.464 425.027 343.076V343.076V343.076C446.116 329.175 459.895 306.581 462.601 281.468L462.856 279.101V279.101C465.73 252.4 480.014 228.246 502.027 212.862V212.862V212.862C524.036 197.475 538.318 173.323 541.196 146.623V146.623V146.623C544.062 119.923 558.34 95.7602 580.349 80.3737V80.3737L614.988 56.1566" stroke="#B0D2CC" stroke-width="4"></path> <path d="M30.1107 422.457L34.6397 380.435V380.435C37.528 353.739 51.8185 329.59 73.8253 314.205V314.205V314.205C95.8349 298.818 110.117 274.666 112.994 247.965V247.965V247.965C115.872 221.265 130.153 197.113 152.163 181.725V181.725V181.725C173.252 167.823 187.031 145.23 189.737 120.117L189.992 117.75V117.75C192.866 91.0486 207.15 66.895 229.163 51.5112V51.5112V51.5112C251.172 36.1239 265.454 11.9719 268.332 -14.7284V-14.7284V-14.7284C271.198 -41.4286 285.476 -65.5911 307.484 -80.9776V-80.9776L342.124 -105.195" stroke="#B0D2CC" stroke-width="3"></path> <path d="M221.202 535.454L225.731 493.432V493.432C228.619 466.736 242.909 442.587 264.916 427.202V427.202V427.202C286.926 411.814 301.208 387.662 304.085 360.962V360.962V360.962C306.963 334.262 321.244 310.109 343.253 294.722V294.722V294.722C364.343 280.82 378.122 258.227 380.828 233.113L381.083 230.747V230.747C383.957 204.045 398.241 179.892 420.254 164.508V164.508V164.508C442.263 149.121 456.545 124.969 459.423 98.2684V98.2684V98.2684C462.289 71.5682 476.567 47.4057 498.575 32.0192V32.0192L533.215 7.80206" stroke="#B0D2CC" stroke-width="3"></path> <path d="M85.1995 455.032L89.2984 412.756V412.756C91.9069 385.968 106.262 361.71 128.484 346.526V346.526V346.526C150.71 331.34 165.056 307.079 167.654 280.287V280.287V280.287C170.251 253.494 184.597 229.233 206.822 214.046V214.046V214.046C228.125 200.343 241.979 177.639 244.423 152.428L244.652 150.071V150.071C247.245 123.278 261.593 99.0153 283.822 83.8324V83.8324V83.8324C306.047 68.6462 320.393 44.3854 322.991 17.5929V17.5929V17.5929C325.577 -9.19933 339.919 -33.4711 362.143 -48.6566V-48.6566L397.213 -72.6194" stroke="#B0D2CC" stroke-width="3"></path> <path d="M247.886 551.233L252.845 509.465V509.465C256.014 482.864 270.241 458.821 292.03 443.235V443.235V443.235C313.822 427.647 328.04 403.601 331.199 376.995V376.995V376.995C334.358 350.389 348.576 326.344 370.367 310.755V310.755V310.755C391.24 296.654 404.946 274.17 407.915 249.156L408.197 246.78V246.78C411.353 220.173 425.573 196.126 447.367 180.541V180.541V180.541C469.159 164.953 483.377 140.908 486.537 114.302V114.302V114.302C489.685 87.6956 503.899 63.6403 525.69 48.0527V48.0527L559.9 23.5812" stroke="#B0D2CC" stroke-width="4"></path> <path d="M111.884 470.812L116.413 428.79V428.79C119.301 402.094 133.592 377.944 155.598 362.559V362.559V362.559C177.608 347.172 191.89 323.02 194.768 296.32V296.32V296.32C197.645 269.62 211.927 245.467 233.936 230.08V230.08V230.08C255.025 216.178 268.804 193.585 271.511 168.471L271.766 166.105V166.105C274.64 139.403 288.923 115.25 310.936 99.8656V99.8656V99.8656C332.945 84.4784 347.227 60.3264 350.105 33.6261V33.6261V33.6261C352.972 6.92589 367.249 -17.2366 389.258 -32.6231V-32.6231L423.898 -56.8403" stroke="#B0D2CC" stroke-width="3"></path> <path d="M275.43 567.521L279.959 525.499V525.499C282.847 498.803 297.138 474.653 319.145 459.268V459.268V459.268C341.154 443.881 355.436 419.729 358.314 393.029V393.029V393.029C361.191 366.329 375.473 342.176 397.482 326.789V326.789V326.789C418.571 312.887 432.351 290.294 435.057 265.18L435.312 262.814V262.814C438.186 236.112 452.469 211.959 474.482 196.575V196.575V196.575C496.492 181.187 510.773 157.035 513.651 130.335V130.335V130.335C516.518 103.635 530.795 79.4724 552.804 64.0859V64.0859L587.444 39.8687" stroke="#B0D2CC" stroke-width="4"></path> <path d="M139.428 487.099L143.527 444.823V444.823C146.135 418.035 160.491 393.777 182.713 378.593V378.593V378.593C204.938 363.406 219.284 339.146 221.882 312.353V312.353V312.353C224.48 285.561 238.825 261.3 261.05 246.113V246.113V246.113C282.353 232.41 296.208 209.706 298.652 184.495L298.88 182.138V182.138C301.474 155.344 315.822 131.082 338.05 115.899V115.899V115.899C360.276 100.713 374.622 76.452 377.219 49.6595V49.6595V49.6595C379.806 22.8673 394.147 -1.40447 416.372 -16.5899V-16.5899L451.442 -40.5527" stroke="#B0D2CC" stroke-width="3"></path> </svg> 