<?xml version="1.0" encoding="UTF-8"?> <svg xmlns="http://www.w3.org/2000/svg" width="270" height="193" viewBox="0 0 270 193" fill="none"> <line y1="-1.5" x2="357.908" y2="-1.5" transform="matrix(-0.651728 0.758452 -0.68092 -0.732357 401.566 114.994)" stroke="#FFB460" stroke-width="3"></line> <line y1="-1.5" x2="357.908" y2="-1.5" transform="matrix(-0.651728 0.758452 -0.68092 -0.732357 358.79 101.532)" stroke="#FFB460" stroke-width="3"></line> <line y1="-1.5" x2="357.908" y2="-1.5" transform="matrix(-0.651728 0.758452 -0.68092 -0.732357 344.531 97.0031)" stroke="#FFB460" stroke-width="3"></line> <line y1="-1.5" x2="357.908" y2="-1.5" transform="matrix(-0.651728 0.758452 -0.68092 -0.732357 373.049 106.062)" stroke="#FFB460" stroke-width="3"></line> <line y1="-1.5" x2="357.908" y2="-1.5" transform="matrix(-0.651728 0.758452 -0.68092 -0.732357 444.343 128.457)" stroke="#FFB460" stroke-width="3"></line> <line y1="-1.5" x2="357.908" y2="-1.5" transform="matrix(-0.651728 0.758452 -0.68092 -0.732357 430.084 123.927)" stroke="#FFB460" stroke-width="3"></line> <line y1="-1.5" x2="357.908" y2="-1.5" transform="matrix(-0.651728 0.758452 -0.68092 -0.732357 415.825 119.398)" stroke="#FFB460" stroke-width="3"></line> <line y1="-1.5" x2="357.908" y2="-1.5" transform="matrix(-0.651728 0.758452 -0.68092 -0.732357 387.308 110.465)" stroke="#FFB460" stroke-width="3"></line> <line y1="-1.5" x2="357.908" y2="-1.5" transform="matrix(-0.651728 0.758452 -0.68092 -0.732357 458.602 132.86)" stroke="#FFB460" stroke-width="3"></line> <line y1="-1.5" x2="357.908" y2="-1.5" transform="matrix(-0.651728 0.758452 -0.68092 -0.732357 287.496 79.1372)" stroke="#FFB460" stroke-width="3"></line> <line y1="-1.5" x2="357.908" y2="-1.5" transform="matrix(-0.651728 0.758452 -0.68092 -0.732357 487.119 141.919)" stroke="#FFB460" stroke-width="3"></line> <line y1="-1.5" x2="357.908" y2="-1.5" transform="matrix(-0.651728 0.758452 -0.68092 -0.732357 316.014 88.0699)" stroke="#FFB460" stroke-width="3"></line> <line y1="-1.5" x2="357.908" y2="-1.5" transform="matrix(-0.651728 0.758452 -0.68092 -0.732357 472.86 137.39)" stroke="#FFB460" stroke-width="3"></line> <line y1="-1.5" x2="357.908" y2="-1.5" transform="matrix(-0.651728 0.758452 -0.68092 -0.732357 301.755 83.6666)" stroke="#FFB460" stroke-width="3"></line> <line y1="-1.5" x2="357.908" y2="-1.5" transform="matrix(-0.651728 0.758452 -0.68092 -0.732357 501.378 146.322)" stroke="#FFB460" stroke-width="3"></line> <line y1="-1.5" x2="357.908" y2="-1.5" transform="matrix(-0.651728 0.758452 -0.68092 -0.732357 330.272 92.5994)" stroke="#FFB460" stroke-width="3"></line> </svg> 