<?xml version="1.0" encoding="UTF-8"?> <svg xmlns="http://www.w3.org/2000/svg" width="24" height="24" viewBox="0 0 24 24" fill="none"> <path d="M21.3176 6.91378C20.138 5.61391 18.6675 4.59918 17.0182 3.94697C16.8638 3.77706 16.6678 3.6484 16.4482 3.57276C16.2286 3.49712 15.9925 3.47691 15.7613 3.51399C12.8574 2.68151 9.62381 2.75335 6.6189 3.40318C6.41918 3.4356 6.23054 3.51734 6.07082 3.64066C5.91111 3.76398 5.78561 3.92479 5.70622 4.10788C3.20331 5.31127 1.34746 8.45566 0.841481 10.9584C-0.114127 15.6961 2.09148 20.7249 7.1549 21.8542C11.6374 22.8504 17.5582 21.6214 21.085 18.6302C24.9106 15.3825 24.4473 10.3774 21.3176 6.91378ZM20.8776 14.224C20.2155 16.3192 18.0077 17.5703 16.0573 18.2801C12.3329 19.6315 6.30663 20.5018 4.15181 16.3613C3.16219 14.4627 3.27083 12.0977 4.02101 10.1158C4.54617 8.73252 6.47345 5.68603 8.37697 6.53846C8.56273 6.62147 8.76469 6.66518 8.96986 6.66678C9.17502 6.66838 9.37882 6.62784 9.56814 6.54776C9.75745 6.46768 9.92809 6.34983 10.069 6.20183C10.21 6.05382 10.3181 5.87893 10.3865 5.68842C11.4242 5.63562 12.4632 5.69365 13.4851 5.86147C13.0575 6.4223 12.6332 6.99382 12.238 7.58274C11.394 8.82053 10.7795 10.3824 9.7485 11.4757C9.63723 11.5856 9.54443 11.7121 9.47363 11.8504C9.17852 11.8789 8.89857 11.9966 8.67261 12.1872C8.44665 12.3778 8.28589 12.6319 8.21265 12.9141C8.12609 13.2773 8.18736 13.6575 8.38338 13.9734C8.57941 14.2893 8.89468 14.516 9.26192 14.6051L10.4417 14.8719C10.6441 14.9126 10.8535 14.9109 11.0563 14.8671C11.2591 14.8233 11.4509 14.7384 11.6191 14.6177C13.5649 15.2445 15.541 15.2908 17.6015 15.2212C19.438 15.1611 19.384 12.3672 17.5612 12.4232C16.2099 12.4677 14.7808 12.5416 13.4467 12.2485C13.3332 12.1842 13.2124 12.1327 13.0867 12.0951L12.8277 12.019C13.3103 11.2549 13.7243 10.4417 14.2128 9.68751C14.8772 8.6623 15.5977 7.67259 16.3709 6.72276C17.4542 7.22519 18.4226 7.9337 19.2207 8.80763C20.5043 10.2266 21.4854 12.3143 20.8776 14.224Z" fill="#FFB460"></path> </svg> 