<?xml version="1.0" encoding="UTF-8"?> <svg xmlns="http://www.w3.org/2000/svg" width="34" height="32" viewBox="0 0 34 32" fill="none"> <path d="M4.04984 19.9568C3.40224 18.9708 3.10852 17.8449 3.12199 16.62C3.1317 15.7472 3.43714 15.0537 4.26331 14.686C4.9658 14.3733 5.67547 14.2332 6.31825 14.8639C6.48302 15.0256 6.78816 15.0388 6.97937 15.184C7.11952 15.2905 7.68058 15.3413 7.15484 15.7032C7.22829 15.7984 7.29202 15.9673 7.37661 15.9773C8.2802 16.0852 8.783 16.6927 8.82959 17.5523C8.85845 18.1096 9.00705 18.6531 9.26545 19.1465C9.40911 19.4112 9.87804 19.6299 10.2102 19.6404C11.7431 19.6889 13.1147 19.1698 14.296 18.1958C17.488 15.5644 20.0032 12.4819 20.6176 8.2733C20.8056 6.98582 20.6738 5.65592 20.6962 4.34583C20.7073 3.7034 20.691 3.05611 20.7696 2.4204C20.8554 1.72684 21.2794 1.25889 21.9573 1.00822C22.8279 0.686227 23.1049 0.787468 23.3952 1.65496C23.5095 1.9968 23.6153 2.15815 24.0282 1.99785C24.1802 1.93892 24.5013 2.09598 24.6357 2.24935C25.8951 3.68566 26.7228 5.38077 27.2991 7.17113C27.9029 9.0471 28.4648 10.9555 28.8045 12.8935C29.135 14.7791 29.3211 16.7304 28.6072 18.6145C27.91 20.4544 26.7775 22.0144 25.3311 23.3508C23.257 25.2671 20.9306 26.7374 18.1023 27.2464C17.5807 27.3403 17.0252 27.2734 16.4888 27.237C15.7817 27.1891 15.0483 27.1964 14.3797 27.0032C13.2972 26.6904 12.126 26.7388 11.152 25.9126C10.5164 25.3734 9.48708 25.3189 8.7018 24.9185C6.57551 23.8338 5.0017 22.2044 4.04984 19.9568ZM21.4396 25.0554C22.7099 24.7082 24.6632 23.0022 25.2379 21.8325L21.4396 25.0554ZM15.4481 20.3063L15.5887 20.4685C16.8051 20.1761 17.3756 19.139 18.1146 18.2964C18.075 18.2507 18.0354 18.205 17.9958 18.1593L15.4481 20.3063ZM21.6614 23.1087C21.7092 23.1666 21.757 23.2245 21.8048 23.2824L23.7672 21.7172C23.7137 21.6521 23.6602 21.5869 23.6066 21.5218L21.6614 23.1087ZM27.2234 19.898L27.4645 19.971L27.9888 18.6938L27.76 18.6045L27.2234 19.898Z" fill="#FFB460"></path> </svg> 