<?xml version="1.0" encoding="UTF-8"?> <svg xmlns="http://www.w3.org/2000/svg" width="47" height="46" viewBox="0 0 47 46" fill="none"> <path d="M27.3221 39.0332C27.796 39.1362 28.2624 39.3778 28.5814 38.8455C28.7841 38.5075 29.0095 38.1626 29.1135 37.7896C29.4343 36.6372 29.8095 35.4843 29.9633 34.305C30.1671 32.74 29.7906 31.2426 28.6389 30.0989C27.54 29.0076 26.3404 28.0166 25.1714 26.9972C23.5656 25.5969 21.8639 24.2879 21.14 22.1473C20.6755 20.7736 20.4538 19.4186 20.8569 17.971C21.3128 16.3339 21.7267 14.6775 22.0221 13.0054C22.4338 10.6747 21.9894 8.50227 20.4498 6.62803C20.2939 6.4382 20.1359 6.15344 19.9395 6.11524C19.6074 6.05078 19.2311 6.10481 18.9 6.20061C18.7844 6.23407 18.6505 6.56741 18.6941 6.71268C18.7879 7.0238 19.0105 7.29386 19.1447 7.59652C19.2511 7.83662 19.305 8.10018 19.3811 8.35362C19.3951 8.40055 19.3877 8.4715 19.4178 8.49347C20.0762 8.97461 19.8658 9.74576 20.0436 10.3832C20.4543 11.8562 20.1791 13.3049 19.8168 14.7416C19.4747 16.098 19.0971 17.4457 18.7692 18.8054C18.6707 19.1994 18.6417 19.6075 18.6834 20.0115C18.82 21.1572 19.0282 22.2549 19.54 23.348C20.5319 25.4684 22.3042 26.7519 24.019 28.1488C25.0809 29.0139 26.1515 29.894 27.0702 30.9022C28.2364 32.1819 28.3796 33.7929 28.1469 35.4594C28.0858 35.8978 28.182 36.3579 28.1239 36.7972C28.0854 37.0883 27.8876 37.3553 27.7848 37.6416C27.624 38.0899 27.4832 38.5451 27.3221 39.0332ZM19.8253 6.52169L19.9294 6.45622L21.2626 8.59142L21.1392 8.66862L19.8253 6.52169Z" fill="#FFB460"></path> <path d="M25.4595 8.02078C25.4746 8.14045 25.4897 8.26017 25.513 8.44503L25.177 8.13668C24.5357 8.35584 24.3922 8.81515 24.4609 9.39757C24.5207 9.90508 24.5278 10.4272 24.9623 10.8016C25.0072 10.8404 25.0634 10.9249 25.049 10.9647C24.8593 11.4935 25.155 11.7355 25.5844 11.8767C25.4361 12.0736 25.2443 12.2367 25.1787 12.4402C25.1082 12.6596 25.1474 12.9173 25.1537 13.1579C25.1899 14.5489 24.5929 15.7575 24.1025 17.0093C23.6514 18.1603 23.388 19.3671 23.7469 20.612C23.7938 20.7747 23.9207 20.9144 24.0676 21.1606C24.0019 21.4958 23.952 21.9391 24.3328 22.361C24.5542 22.6064 24.583 23.0232 24.8 23.2754C25.3975 23.9698 25.9791 24.7083 26.6985 25.2581C27.3653 25.7678 28.1788 26.1124 28.9679 26.4302C30.684 27.1214 32.0557 28.2453 33.1004 29.732C33.6806 30.558 34.0362 31.5224 33.9693 32.5876C33.949 32.91 34.0249 33.2373 34.042 33.5634C34.1312 35.1361 33.909 36.711 33.3883 38.1976C33.2254 38.6608 33.053 39.1208 32.8891 39.5835C32.812 39.8013 32.8168 39.9488 33.1186 39.9943C33.862 40.1063 34.1171 39.9677 34.5088 39.2773C36.0814 36.5055 36.2203 33.5659 35.5206 30.5404C35.2105 29.1994 34.337 28.1825 33.3341 27.3124C32.6576 26.7255 31.879 26.2423 31.1011 25.7903C30.3757 25.3691 29.584 25.0638 28.8342 24.6827C27.9229 24.2194 27.3225 23.4203 26.7146 22.6381C25.1811 20.6649 25.0471 18.5563 26.0833 16.3159C27.2323 13.8315 27.2741 11.3096 26.2234 8.78286C26.0932 8.46993 25.8337 8.21079 25.6341 7.9268L25.4595 8.02078ZM26.3855 22.9151C26.3506 22.9373 26.3157 22.9595 26.2806 22.9817L25.4503 21.6685C25.4847 21.6466 25.5192 21.6246 25.5537 21.6027L26.3855 22.9151ZM35.2505 31.062L35.1087 31.1092L34.6604 29.7769L34.8208 29.7233L35.2505 31.062Z" fill="#FFB460"></path> <path d="M14.8137 12.9343C14.8133 13.2181 14.8168 13.5021 14.8107 13.7857C14.8081 13.9074 14.8048 14.1283 14.7693 14.1351C14.2883 14.2274 14.2925 14.6767 14.347 14.931C14.487 15.5834 13.9854 15.8664 13.7116 16.2761C13.549 16.5196 13.5086 17.0983 13.6705 17.3143C13.7757 17.2316 13.8784 17.1508 13.9812 17.07C14.0283 17.1907 14.1056 17.309 14.1159 17.4328C14.1235 17.6694 14.1186 17.9063 14.1013 18.1424L13.7041 17.899C13.5723 18.0035 13.4454 18.1041 13.32 18.2034C13.5619 18.6752 13.8717 19.0795 13.8634 19.6521C13.8588 19.9634 13.9966 20.2376 13.6164 20.4096C13.584 20.4242 13.6059 20.6934 13.6408 20.7027C14.4849 20.9302 14.3098 21.7443 14.2295 22.181C14.1696 22.481 14.2021 22.7922 14.3229 23.0734C14.4034 23.2703 14.7015 23.3763 14.898 23.5289C14.9505 23.5827 14.9969 23.6422 15.0363 23.7062C14.9281 23.8077 14.8302 23.8994 14.7345 23.989C14.9342 24.4287 14.9342 24.4287 15.8664 24.9043C15.5554 25.3756 15.7616 25.8196 16.398 25.9922C16.3474 26.0962 16.2993 26.195 16.2925 26.2089C16.7475 26.6083 17.6256 26.5877 17.406 27.5974C18.0854 27.5345 18.289 28.016 18.4931 28.5626C18.5888 28.8188 18.8448 29.0273 19.0582 29.2258C19.9278 30.035 20.7349 30.8832 21.3531 31.9189C21.656 32.4264 21.7767 33.0044 22.0643 33.4805C22.6854 34.509 22.3834 35.6209 22.5022 36.6871C22.5579 37.1874 22.3338 37.7173 22.2473 38.2356C22.1945 38.5516 21.9631 38.9147 22.5069 39.0727C22.9278 39.1949 23.2046 39.1118 23.3934 38.6373C24.2696 36.4326 24.427 34.2393 23.4221 32.0013C22.6656 30.3165 21.3693 29.1141 20.089 27.8734C19.2614 27.0714 18.4688 26.2334 17.6553 25.4169C17.5293 25.2904 17.415 24.9659 17.1892 25.3315L17.1931 25.324L17.3001 25.5371L17.2511 25.5979C17.1563 25.5387 17.0681 25.4694 16.9881 25.3913C16.9056 25.293 16.8765 25.1421 16.783 25.0624C16.0279 24.4183 15.7369 23.4993 15.4082 22.6299C15.0589 21.7059 14.8358 20.7325 14.5899 19.7724C14.5151 19.48 14.5472 19.1602 14.5304 18.8529L14.5328 18.8717L14.4149 18.1262L14.9548 18.563C14.9832 18.0498 15.0383 17.5879 15.0236 17.1284C15.014 16.8236 14.841 16.7945 14.468 16.9771L13.9458 16.4263L14.4874 16.3217C14.6559 16.4528 14.8227 16.6613 14.9084 16.6321C15.0663 16.5784 15.2025 16.4011 15.3003 16.2456C15.4384 16.0237 15.5521 15.7877 15.6396 15.5414C15.6921 15.3947 15.6752 15.2231 15.6967 14.9833C16.0338 14.7569 16.1865 14.3457 16.2798 13.2076L15.9351 13.1075C16.394 12.7001 16.4143 12.5854 16.1773 12.4018L15.7545 12.8624L15.7715 12.8591L15.079 13.1312L14.9498 12.9245L14.8137 12.9343Z" fill="#FFB460"></path> <path d="M14.8138 12.9342L14.95 12.9244C15.3764 12.3621 15.4191 12.3587 15.7711 12.8589L15.7542 12.8623L15.6912 11.9301L16.3044 12.037C16.2387 11.8257 16.1946 11.6714 16.1413 11.5204C16.1237 11.4705 16.0537 11.427 16.0563 11.3836C16.1596 9.69236 15.6535 8.14888 14.8643 6.69298C14.4993 6.01963 14.0257 5.4049 13.5959 4.76728C13.526 4.68009 13.4485 4.5992 13.3645 4.52555C13.3175 4.55368 13.2704 4.58179 13.2233 4.60989L14.7371 7.12145L14.618 7.19796L13.0168 4.63695C12.2619 4.95855 12.2384 5.06187 12.5492 5.75325C12.957 6.66085 13.3306 7.58375 13.7267 8.4967C13.8055 8.67815 13.8458 8.88803 14.1558 8.87102C14.2816 8.8641 14.4207 9.09397 14.5884 9.2479L14.8165 8.99937L15.0327 9.79885L14.6106 9.49517C14.5771 9.53165 14.5416 9.55204 14.54 9.57491C14.5214 9.82822 14.6293 10.0592 14.3637 10.3188C14.1816 10.4966 14.4347 10.7174 14.7068 10.6424L14.7006 11.3507C14.3598 11.6688 14.423 12.0959 15.0083 12.3828C14.889 12.4786 14.7535 12.544 14.6957 12.6513C14.6651 12.7077 14.7699 12.8374 14.8138 12.9342Z" fill="#FFB460"></path> <path d="M15.263 21.3082L15.9961 23.3542L16.1675 23.3061C16.1537 23.1967 16.1335 23.0882 16.107 22.9812C15.955 22.4865 15.8036 21.9914 15.6352 21.5022C15.5991 21.3972 15.4932 21.3159 15.4196 21.2239L15.263 21.3082Z" fill="#FFB460"></path> <path d="M14.53 18.8527C14.6434 18.9998 14.7857 19.1334 14.8621 19.2977C14.937 19.4592 14.9449 19.6517 14.9937 19.8862C15.2442 19.546 15.2377 18.9305 14.9937 18.7935C14.8882 18.7342 14.6895 18.8411 14.5328 18.8721C14.5326 18.8716 14.53 18.8527 14.53 18.8527Z" fill="#FFB460"></path> </svg> 