<?xml version="1.0" encoding="UTF-8"?> <svg xmlns="http://www.w3.org/2000/svg" width="28" height="27" viewBox="0 0 28 27" fill="none"> <path d="M21.1072 7.89913C22.1596 8.06831 22.8118 7.21422 23.6501 6.87176C24.0149 6.72282 24.2956 6.0625 24.6932 6.61754C25.0492 7.11462 24.868 7.76598 24.3924 8.16276C24.1341 8.37837 23.8713 8.50894 23.9108 8.93368C24.1962 8.95616 24.4824 8.90349 24.7414 8.78085C25.0004 8.6582 25.2233 8.4698 25.3883 8.23412C25.9344 7.48672 26.5367 7.80131 26.8877 8.20474C27.1039 8.45328 27.1121 9.13881 26.6824 9.55308C26.5032 9.72581 25.9225 9.80526 26.5442 10.2913C26.787 10.4812 26.0896 10.8594 25.873 11.195C25.7629 11.3657 25.4931 11.423 25.3379 11.5754C25.1806 11.73 25.2105 11.9208 25.3837 12.0783C25.6409 12.3123 25.6888 12.0578 25.7748 11.9097C26.2662 11.0622 27.0725 10.542 27.855 9.8294C28.319 10.7828 27.554 11.2107 27.1741 11.729C26.4198 12.7586 25.4912 13.6238 24.49 14.4113C24.4187 14.4643 24.3675 14.5402 24.3448 14.6266C24.3222 14.7129 24.3295 14.8044 24.3655 14.886C25.1293 14.7154 25.6044 14.0819 26.2914 13.5557C26.3572 14.5749 25.546 14.8169 25.1053 15.2118C23.7983 16.3835 22.3879 17.4398 20.996 18.5121C20.5468 18.8583 20.4624 19.2588 20.5425 19.7814C20.7715 21.2793 21.0029 22.7779 21.1804 24.2827C21.287 25.186 21.335 26.0989 20.2995 26.6107C20.0441 26.7372 19.9343 27.2279 19.6425 26.6223C19.4918 26.3098 19.2541 26.6401 19.1031 26.748C18.6506 27.0707 18.355 27.1856 18.1663 26.4618C18.004 25.8393 17.7118 25.1876 16.8786 25.8779C16.812 25.9231 16.7359 25.9521 16.6562 25.9623C16.5765 25.9726 16.4955 25.9639 16.4198 25.937C15.4633 25.4212 14.1584 25.6727 13.4668 24.5797C13.212 24.1772 12.8801 24.1281 12.489 24.3736C11.6535 24.8985 10.8037 24.4045 9.96317 24.3862C9.71503 24.3808 9.84954 24.0549 9.90671 23.898C10.0662 23.4603 10.2622 23.0362 10.5145 22.4388C9.54554 22.8525 8.6095 22.7003 7.84788 23.3732C7.58299 23.6072 6.93959 23.4353 6.47368 23.3943C6.2953 23.3786 6.1156 23.2219 6.31512 22.9781C6.68087 22.5312 6.66748 21.8902 7.1547 21.4869C6.65656 21.1834 6.3086 21.2644 6.01421 21.6599C5.93792 21.7624 5.84525 21.8525 5.76016 21.9483C4.57095 23.2874 3.91609 23.3197 2.59219 22.102C2.50032 22.0174 2.33259 21.9093 2.34396 21.8342C2.49547 20.8312 1.77807 20.135 1.29657 19.5017C0.707604 18.7269 0.351811 17.8946 0.0516017 17.0279C-0.14704 16.4544 0.264338 15.9464 0.663648 15.5392C2.22618 13.9452 3.99555 12.6366 6.04936 11.7606C6.90259 11.3966 7.22535 11.0416 6.82402 10.0013C6.08406 8.08393 5.54857 6.07785 5.71215 3.97111C5.90357 1.50594 8.43632 -0.415639 10.831 0.0777148C11.0762 0.128222 11.3883 0.143135 11.4829 0.412802C11.5907 0.719662 11.2613 0.837541 11.0978 1.01436C10.6692 1.47798 10.1288 1.87227 10.1823 2.74048C10.7581 2.5436 10.935 2.03924 11.2286 1.67157C11.9603 0.754724 13.424 0.917074 13.8351 2.02175C13.9877 2.43158 14.2558 2.33811 14.4958 2.41356C15.376 2.69006 15.8049 3.4616 15.4445 4.15477C15.9523 4.36549 17.0336 4.21592 16.1596 5.30382C16.1062 5.37022 16.1123 5.48499 16.0906 5.57731C17.1789 5.7069 16.3424 6.49016 16.5399 6.92263C16.7777 7.4419 17.1243 7.14614 17.427 7.03225C18.8261 6.50561 20.143 5.77801 21.5766 5.32886C21.9398 5.21515 22.3552 5.09585 22.5632 5.35699C22.8907 5.76851 22.2995 5.89393 22.1451 6.16635C21.8228 6.73551 21.0643 7.01734 21.1072 7.89913ZM5.6467 16.4915C5.39467 16.5158 5.25998 16.4993 5.14961 16.5438C3.77471 17.1 3.07193 18.3579 2.20213 19.4393C2.16769 19.4821 2.21367 19.6114 2.25005 19.6869C2.26184 19.7171 2.28074 19.744 2.30514 19.7652C2.32953 19.7864 2.35868 19.8013 2.39007 19.8086C2.42146 19.816 2.45415 19.8155 2.48531 19.8072C2.51647 19.799 2.54517 19.7832 2.56894 19.7613C3.75048 18.8798 5.21118 18.266 5.6467 16.4915V16.4915Z" fill="#FFB460"></path> </svg> 