<?xml version="1.0" encoding="UTF-8"?> <svg xmlns="http://www.w3.org/2000/svg" width="29" height="30" viewBox="0 0 29 30" fill="none"> <path d="M7.89136 11.622C5.30509 12.3625 3.90711 16.2478 5.15439 18.6173C5.41236 19.1065 5.96355 19.4395 6.37966 19.8445L6.66965 19.6047C6.66076 19.4257 6.64264 19.2474 6.61539 19.0705C6.33676 17.6955 6.59615 16.4546 7.40558 15.2677C8.1557 14.1675 9.30297 13.8918 10.4363 13.6117C12.9836 12.9816 14.4156 11.1346 15.0568 8.86325C15.6507 6.75824 15.7477 4.50378 15.8874 2.30587C15.911 1.93363 15.095 1.39952 14.565 1.17008C14.3212 1.06459 13.5946 1.4365 13.4953 1.72703C13.1436 2.75672 12.8583 3.83451 12.7464 4.91232C12.4157 8.09427 11.4136 10.6134 7.89136 11.622Z" fill="#FFB460"></path> <path d="M26.6041 15.7318C25.7494 15.9938 24.8473 16.2827 24.1362 16.797C23.2012 17.4736 22.43 18.3786 21.5922 19.1897C20.053 20.68 18.4255 21.8953 16.0948 21.2155C15.8054 21.1312 15.4525 21.2569 15.4055 21.2609C14.7299 20.4196 13.8982 20.8099 13.2872 20.7608C11.8796 20.6477 11.2433 21.7799 10.3796 22.8465C11.6506 22.6684 10.4362 23.4641 10.9452 23.6594L11.7484 22.9503C11.2788 23.4203 11.3967 24.6548 10.1015 24.3102C10.3995 24.6803 10.6972 25.0507 11.1208 25.5766C11.1389 25.0228 11.0349 24.6498 11.1767 24.4792C11.7911 23.7395 12.4643 23.0458 13.1491 22.3687C13.2732 22.2459 13.5651 22.2132 13.7567 22.2502C15.1311 22.5145 16.5688 22.6386 17.8485 23.1458C18.8734 23.5521 19.7566 23.2061 20.6989 23.1534C20.9109 23.1414 21.138 22.8968 21.3101 22.7142C21.4836 22.5299 21.5965 22.2901 21.8463 21.9046C21.6639 21.8307 21.3272 21.6943 20.9905 21.5578C21.3571 21.3138 21.7856 21.2828 22.2014 21.1908C22.5796 21.1014 22.95 20.9808 23.3089 20.8302C23.5104 20.7488 23.6839 20.5966 23.8702 20.4761C23.8998 20.5179 23.9294 20.5596 23.9592 20.6014L22.9378 21.6303C24.671 20.293 26.4576 19.0451 28.1846 17.719C28.4499 17.5155 28.6611 16.7486 28.5179 16.5937C28.0333 16.071 27.4249 15.4803 26.6041 15.7318ZM19.8995 21.6521L19.7634 21.4937L24.7996 17.0478L24.9623 17.1828L19.8995 21.6521Z" fill="#FFB460"></path> </svg> 