<?xml version="1.0" encoding="UTF-8"?> <svg xmlns="http://www.w3.org/2000/svg" width="21" height="44" viewBox="0 0 21 44" fill="none"> <path d="M7.74873 0C7.63832 0.304944 7.59858 0.6659 7.40474 0.904912C6.67248 1.80844 6.172 2.83977 5.60289 3.83793C5.23528 4.48253 4.99841 5.1755 4.6907 5.84035C4.38397 6.50308 4.1898 7.21694 3.9489 7.90926C3.64916 8.77101 3.38654 9.64747 3.12926 10.5182C2.92785 11.1998 2.5957 11.8766 2.63791 12.6224C2.27861 13.475 2.29564 14.4258 1.92466 15.2791C1.84781 15.456 1.91355 15.6937 2.00693 15.9147C2.16874 15.3045 2.33055 14.6943 2.49236 14.084C2.62351 13.5862 2.79382 13.0943 2.87404 12.5881C3.01194 11.7189 3.35906 10.9081 3.53225 10.0462C3.68858 9.26789 3.98732 8.51151 4.28335 7.76886C4.45522 7.33799 4.64758 6.89753 4.78523 6.46812C4.92222 6.04099 5.29633 5.7019 5.25931 5.22022C5.77419 4.68464 5.7551 3.86728 6.2778 3.33584C6.37127 2.70116 6.87924 2.28224 7.1287 1.74145C7.39198 1.17091 7.83932 0.746384 8.13247 0.211859C8.15377 0.167411 8.19035 0.131876 8.23568 0.111584C8.28102 0.0912915 8.33218 0.0875592 8.38004 0.101052C8.70092 0.275839 8.07957 0.494039 8.4118 0.675087C8.71136 0.711833 8.56878 0.259011 8.90002 0.265108C8.90002 0.615415 8.87616 0.971169 8.90949 1.32196C8.92783 1.51586 8.67821 1.57512 8.74428 1.76251C8.42142 2.04201 8.30978 2.44321 8.12013 2.80075C8.07619 2.88359 8.04879 3.02301 8.01811 3.03862C7.54362 3.27967 7.43831 3.73867 7.2986 4.17873C7.25294 4.32254 7.07341 4.22376 7.01236 4.33856C7.22949 4.49245 7.22998 4.80292 7.13364 4.90666C6.68935 5.38492 6.67972 6.02367 6.43915 6.57234C6.11827 7.30458 5.82891 8.05787 5.692 8.85621C5.62982 9.1614 5.52643 9.45695 5.38461 9.73494C5.0662 10.4002 5.0667 11.1357 4.81576 11.8048C4.57033 12.459 4.57395 13.1674 4.29232 13.8199C4.16701 14.1102 4.12571 14.4797 4.10234 14.8178C4.08243 15.1069 4.03018 15.3625 3.80615 15.5618L3.97012 15.7401C3.89007 15.9352 3.75933 16.1337 3.80138 16.3771C3.85806 16.706 3.68413 17.0057 3.63353 17.3202C3.52814 17.9754 3.41558 18.6255 3.3417 19.2875C3.29859 19.6741 3.33619 20.1093 3.19122 20.4406C3.01202 20.8501 3.19895 21.2499 3.06278 21.6112C2.88943 22.0715 3.02905 22.5527 2.91181 22.9898C2.72323 23.6925 2.89083 24.4043 2.77013 25.0899C2.50783 26.5798 2.71072 28.0735 2.63997 29.5633C2.62861 29.8025 2.57595 30.0664 2.65716 30.2753C2.72882 30.4597 2.65033 30.6475 2.76519 30.8341C2.81336 30.9175 2.83098 31.0148 2.8151 31.1095C2.79922 31.2043 2.75079 31.2908 2.67798 31.3544C2.86853 31.531 2.46332 31.794 2.76675 31.9628C2.78856 31.975 2.7647 32.0896 2.74207 32.1493C2.72677 32.19 2.67707 32.2184 2.63421 32.2608L2.92941 32.5225C2.92941 32.86 2.92011 33.2151 2.93328 33.5694C2.94003 33.7482 2.85874 33.9397 3.03612 34.1065C3.09997 34.1665 3.08911 34.3332 3.06978 34.4439C3.0344 34.6471 2.87519 34.8117 3.05908 35.0565C3.1797 35.2171 2.98298 35.5165 3.20948 35.7138C3.25811 35.7561 3.20948 35.898 3.22256 35.9916C3.26132 36.2654 3.12943 36.5531 3.31603 36.8167C3.47967 37.0478 3.22289 37.3909 3.51045 37.6007C3.52205 37.6088 3.51546 37.6472 3.51135 37.6705C3.40316 38.2863 3.7163 38.8674 3.66406 39.4813C3.65097 39.6347 3.60111 39.8003 3.72601 39.9574C4.04179 40.3545 3.96617 40.8641 4.0826 41.3185C4.16866 41.6546 4.17639 41.9794 4.58793 42.1242C4.79543 42.1973 4.93349 42.4265 4.7835 42.6407C4.63121 42.8585 4.63878 43.0065 4.81123 43.1953C4.85928 43.2478 4.81855 43.3795 4.81855 43.4844C4.68584 43.6269 4.50525 43.5169 4.32235 43.5622L3.90611 43.0704C3.60482 43.5688 3.36803 43.6101 2.97113 43.3894C2.33612 43.0364 2.13561 42.4193 1.91585 41.8147C1.76356 41.396 1.6789 40.9537 1.53993 40.5296C1.40772 40.1263 1.38534 39.6998 1.20203 39.3012C1.09614 39.071 1.09334 38.7652 1.06133 38.5038C0.97766 37.8209 0.724497 37.1629 0.749674 36.4688C0.757901 36.2509 0.546286 36.118 0.586437 35.8788C0.618278 35.6893 0.689857 35.4479 0.467136 35.2853C0.442453 35.2672 0.448708 35.1949 0.455043 35.1498C0.545547 34.5115 0.223352 33.9065 0.305052 33.2672C0.34619 32.9428 0.0958248 32.6656 0.151279 32.3186C0.214181 31.9874 0.214181 31.6474 0.151279 31.3161C-0.118834 30.1411 0.0635726 28.9561 0.0232573 27.7773C-0.00866583 26.8435 0.012561 25.9074 0.0182381 24.9725C0.0224341 24.2707 0.260625 23.5839 0.16247 22.8747C0.377786 22.5075 0.216194 22.0795 0.329899 21.7185C0.447061 21.3464 0.363634 20.9645 0.474377 20.6274C0.593019 20.2662 0.481699 19.8609 0.663611 19.5593C0.860004 19.2341 0.550153 18.8331 0.890611 18.5703C0.853998 18.2186 0.983255 17.8861 1.01238 17.5491C1.03501 17.2872 1.12411 17.0583 1.19092 16.8222C1.31154 16.3956 1.2843 15.9535 1.37522 15.5304C1.46046 15.1336 1.548 14.7354 1.63957 14.3424C1.8228 13.5573 2.03886 12.7793 2.22003 11.9914C2.32487 11.4901 2.47335 10.9986 2.66383 10.5225C2.85989 10.0615 2.8515 9.55292 3.07578 9.10847C3.33849 8.58817 3.39468 7.99942 3.65106 7.4736C3.90364 6.95549 4.07066 6.39926 4.28129 5.86262C4.72887 4.72081 5.28868 3.63575 5.84371 2.54662C6.17282 1.90104 6.64097 1.34026 7.01467 0.722889C7.19569 0.426116 7.44778 0.177868 7.74873 0Z" fill="#FFB460"></path> <path d="M17.7772 36.071H17.4199C17.3301 36.1293 17.3882 36.1686 17.4265 36.226C17.5382 36.3939 17.4559 36.6813 17.7791 36.7258C17.8789 36.7396 17.9367 36.8742 17.9343 37.0148C17.9301 37.2681 18.1125 37.3684 18.3518 37.3821V38.3156C18.2375 38.4153 18.1684 38.5485 17.9842 38.5229C17.8763 38.5079 17.7296 38.4578 17.6497 38.5804C17.5722 38.7037 17.4497 38.7929 17.3076 38.8297C17.1655 38.8664 17.0146 38.8479 16.8858 38.7781C16.6236 38.6048 16.3062 38.4909 16.1228 38.1351C15.8254 37.5346 15.6033 36.9005 15.4614 36.2468C15.3203 35.6489 15.2393 35.0355 15.1366 34.4297C15.0708 34.0383 15.0987 33.6344 14.9958 33.2677C14.8852 32.8738 14.9474 32.4748 14.855 32.1024C14.7008 31.4804 14.6427 30.8842 14.8311 30.2612C14.8611 30.162 14.7493 29.9836 14.7143 29.8339C14.5784 29.2526 14.5098 28.0702 14.6502 27.448C14.6921 27.262 14.4813 27.1267 14.5843 26.9671C14.6908 26.8018 14.8335 26.661 14.5839 26.5059C14.8685 26.0368 14.3443 25.5123 14.7073 25.019C14.8324 24.8489 14.699 24.5364 14.8532 24.2894C14.9241 24.1756 14.6346 23.9944 14.7361 23.7644L15.0146 23.4735C14.9616 23.4444 14.9192 23.3997 14.8934 23.3455C14.8676 23.2913 14.8597 23.2305 14.8708 23.1716C14.9487 22.7901 14.9687 22.3912 15.0609 22.0229C15.1909 21.503 15.3044 20.9761 15.438 20.4566C15.7332 19.3089 16.0101 18.1616 16.4164 17.0421C16.7219 16.184 17.0769 15.3439 17.4796 14.5259C17.8591 13.7659 18.2859 13.0766 19.0408 12.638C19.1231 12.6922 19.0862 12.7701 19.0936 12.8375C19.1011 12.9048 19.0695 12.9838 19.1899 13.053C19.311 12.8985 19.4402 12.7336 19.6002 12.5294C19.8368 12.7768 20.0939 12.7762 20.3386 12.7559C20.5942 13.2437 20.2557 13.5685 20.037 13.8972C19.8816 14.1181 19.7567 14.3584 19.6655 14.6118C19.3364 15.5782 18.9635 16.5298 18.607 17.4869C18.4239 17.4798 18.5916 17.2649 18.4361 17.243C18.4209 17.2588 18.3765 17.2836 18.3685 17.317C18.3048 17.5806 18.5867 17.7742 18.5147 18.0486C18.4237 18.3972 18.3532 18.7511 18.2803 19.1041C18.1112 19.9229 17.7754 20.7038 17.7687 21.5626C17.7662 21.8689 17.647 22.1823 17.5964 22.497C17.5635 22.7039 17.7084 22.9477 17.4921 23.1229C17.597 23.7857 17.2361 24.4192 17.3547 25.0762C17.4097 25.3808 17.1605 25.6697 17.3465 25.9657C17.1491 26.2334 17.2046 26.5429 17.2016 26.8414C17.1983 27.177 17.2009 27.5128 17.2009 27.8485C17.2009 28.1602 17.1872 28.4728 17.2054 28.7835C17.2187 29.0116 17.156 29.2358 17.273 29.4745C17.3493 29.6303 17.0421 29.8693 17.3074 30.0598C16.9887 30.5511 17.4399 31.011 17.3596 31.5096C17.2083 32.4496 17.5685 33.38 17.4921 34.3256C17.7005 34.5475 17.3728 34.817 17.5102 34.9852C17.712 35.232 17.6195 35.4827 17.6291 35.7298C17.6337 35.8605 17.7404 35.9152 17.7772 36.071ZM15.3131 28.5348C15.3048 28.3491 15.3025 28.2259 15.4221 28.1016C15.5807 27.9365 15.254 27.8502 15.303 27.6732C15.3277 27.5838 15.2694 27.4248 15.3136 27.3968C15.5676 27.2342 15.31 27.0135 15.3774 26.8903C15.4944 26.6765 15.424 26.4757 15.4515 26.2719C15.4874 26.0016 15.3897 25.7252 15.5897 25.4623C15.7524 25.2484 15.4111 24.9953 15.5838 24.7167C15.6703 24.5774 15.632 24.3351 15.5907 24.1526C15.5373 23.9165 15.7964 23.7932 15.7518 23.5621C15.7162 23.3771 15.7708 23.1755 15.7379 22.9896C15.6973 22.7606 15.9592 22.6253 15.8901 22.4011C15.8211 22.1769 16.073 22.0417 16.0447 21.8127C16.0173 21.5904 15.9707 21.3394 16.1814 21.1542C16.1549 20.688 16.1555 20.2297 16.4679 19.8321C16.5032 19.7873 16.4829 19.6903 16.4708 19.6208C16.4495 19.4844 16.4563 19.3452 16.4908 19.2115C16.5252 19.0778 16.5866 18.9524 16.6714 18.8428C16.7735 18.703 16.7465 18.58 16.7641 18.4459C16.7765 18.3111 16.8049 18.1782 16.8487 18.05C17.0574 17.4885 17.275 16.9281 17.4705 16.3645C17.7411 15.5892 18.056 14.8298 18.4137 14.0898C18.4651 13.9828 18.5694 13.9119 18.4384 13.7589C18.3026 13.9409 18.1093 14.0442 18.0389 14.2918C17.973 14.5213 17.7196 14.7217 17.714 14.939C17.7075 15.1984 17.3191 15.2138 17.4381 15.5487C17.4946 15.7084 17.2571 15.9664 17.1601 16.1828C17.0244 16.4865 16.8193 16.7844 16.7825 17.101C16.7318 17.5373 16.5469 17.9244 16.4198 18.3257C16.2914 18.7314 16.2224 19.1501 16.0995 19.5561C15.9775 19.9605 15.7831 20.3666 15.7649 20.7797C15.7454 21.2242 15.6043 21.6428 15.5648 22.0819C15.5372 22.3896 15.5455 22.7449 15.4278 23.021C15.3322 23.2305 15.2942 23.4612 15.3175 23.6898C15.3452 23.9397 15.1053 24.0882 15.1492 24.3521C15.2034 24.6788 15.1762 25.0217 15.158 25.3562C15.1415 25.6601 15.2934 26.0221 15.0916 26.2554C14.8278 26.5603 15.395 26.871 15.0165 27.1183C15.1964 27.3661 15.223 27.6125 15.0204 27.8648C15.006 27.8828 15.0354 27.9593 15.0652 27.984C15.2523 28.1384 15.1669 28.3478 15.1545 28.5205C15.068 29.7287 15.3171 30.9203 15.3201 32.1232C15.3201 32.1402 15.3522 32.1571 15.4023 32.2065C15.5669 31.6822 15.2954 31.1293 15.5592 30.6712C15.4613 30.4795 15.3705 30.3013 15.2939 30.1509C15.3568 29.9699 15.5423 30.0798 15.5975 29.9545C15.544 29.8814 15.3957 29.815 15.4605 29.7304C15.675 29.4502 15.3768 29.2796 15.3415 29.0515L15.6304 28.7764L15.3131 28.5348Z" fill="#FFB460"></path> <path d="M8.31714 21.8251C8.31714 22.808 8.3294 23.7911 8.30965 24.7737C8.30381 25.0655 8.45067 25.3915 8.17653 25.6542C8.14362 25.686 8.16518 25.783 8.22869 25.8429C8.37128 25.9773 8.36034 26.127 8.25107 26.2819C8.21347 26.3352 8.15876 26.4206 8.1776 26.4619C8.33705 26.8105 8.39078 27.1523 8.17159 27.4962C8.47873 27.8522 8.30274 28.2747 8.30406 28.6592C8.30661 29.4358 8.5722 30.1919 8.46277 30.973C8.78644 31.4488 8.42361 32.0395 8.7277 32.5187C8.42155 32.8529 8.68862 33.1953 8.82223 33.4362C9.00563 33.7669 8.74818 34.1253 9.0234 34.4455C9.15158 34.5948 9.04528 34.9406 9.08922 35.2058C9.1682 34.9934 9.31901 34.8583 9.46588 34.7207C9.32403 34.4668 9.15027 34.2298 9.18614 33.9105C9.20613 33.7327 9.24102 33.533 9.0545 33.399C9.31597 33.2283 9.0429 33.0653 8.99567 32.96C8.93372 32.8218 8.95157 32.7843 9.03228 32.6908C9.0504 32.6598 9.06062 32.6249 9.06205 32.5892C9.06348 32.5535 9.05609 32.5179 9.04051 32.4856C8.69265 31.9395 9.10888 31.2738 8.75378 30.7322C8.84609 30.4553 8.8711 30.1898 8.62345 29.9697C8.93857 29.7652 8.49403 29.4826 8.62345 29.3961C8.90204 29.21 8.3656 28.9403 8.73082 28.8262C8.73848 28.5896 8.82075 28.3241 8.74045 28.1216C8.44607 27.3789 8.68351 26.6203 8.61547 25.8739C8.59992 25.7032 8.92376 25.5247 8.6107 25.3475C8.92977 25.1696 8.61523 24.995 8.61021 24.8183C8.59671 24.3473 8.70894 23.8898 8.8154 23.4374C8.852 23.3322 8.88068 23.2245 8.90122 23.1152C8.91932 22.9145 8.75312 22.7425 8.8818 22.5054C8.97288 22.338 8.91989 22.081 8.8957 21.8679C8.81244 21.1343 9.15076 20.4308 9.04446 19.6977C9.02801 19.5834 9.11801 19.5346 9.1747 19.4619C9.20292 19.4259 9.19881 18.7512 9.19214 18.6534C9.18556 18.5579 9.15158 18.4349 9.197 18.3701C9.51327 17.919 9.38426 17.3547 9.60015 16.8791C9.63445 16.7663 9.64308 16.6474 9.62541 16.531C9.61011 16.218 9.66745 15.934 9.91511 15.7138L9.79778 15.5858C9.85932 14.91 10.1886 14.3156 10.2109 13.6521C10.2147 13.539 10.1807 13.4229 10.2872 13.3213C10.3463 13.2649 10.3602 13.1622 10.3963 13.0762C10.5216 13.0876 10.5655 13.203 10.6469 13.2696C10.7098 13.4535 10.3413 13.5813 10.6082 13.8202C10.8029 13.9944 10.3875 14.1368 10.4856 14.3913C10.5556 14.5726 10.5576 14.8638 10.4523 15.0071C10.2918 15.2255 10.4232 15.4098 10.3889 15.6151C10.5444 15.3751 10.513 15.0313 10.9012 14.8559C10.9088 15.0967 10.6846 15.2613 10.8571 15.4806C10.9363 15.5399 10.9362 15.3481 11.0257 15.3646C11.2013 15.5769 10.9941 15.7368 10.9416 15.9227C10.8909 16.1015 11.0146 16.3086 10.886 16.4748C10.7311 16.6753 11.0907 16.8273 10.8949 17.0419L10.6525 17.1283L10.7988 17.3121L10.4615 17.5433C10.6436 17.7002 10.7273 17.8127 10.5495 17.9889C10.5187 18.0194 10.6018 18.214 10.5355 18.3324C10.8554 18.4926 10.237 18.5748 10.5016 18.7308L10.7092 18.9358C10.9031 18.848 10.6922 18.6144 10.8655 18.5177C11.0136 18.6532 10.9505 18.8368 10.9231 18.9803C10.9066 19.067 10.8634 19.2966 10.5899 19.1433C10.4559 19.0681 10.3115 19.3425 10.3638 19.5335C10.4015 19.6717 10.4846 19.7744 10.3629 19.9251C10.2611 20.0511 10.2009 20.2134 10.3527 20.379C10.4948 20.5341 10.1465 20.6496 10.2951 20.8628C10.3403 20.9278 10.2565 21.2025 10.1925 21.3395C10.1057 21.5253 10.237 21.7397 10.0709 21.8905C10.3095 21.9898 10.0545 22.2014 10.1925 22.3713C10.3252 22.5348 10.0249 22.5075 9.92095 22.6143C10.2942 22.8039 9.86812 22.9856 9.91988 23.1848C10.0319 23.3291 10.1749 23.2536 10.3243 23.2364C10.4331 22.6819 10.2194 22.091 10.4251 21.5589C10.6284 21.0331 10.2735 20.4225 10.7351 19.9643C10.8564 20.0677 10.8326 20.255 10.7825 20.3489C10.5676 20.752 10.7309 21.1879 10.6375 21.5873C10.4185 22.5236 10.5235 23.4671 10.5141 24.407C10.5116 24.6427 10.2614 24.7464 10.3091 24.9824C10.215 24.6506 10.1081 24.3279 10.3694 24.0062L10.1419 23.5564C9.91255 23.6563 9.94867 23.9282 9.79185 24.0489C10.008 24.3866 10.1941 24.7231 9.99245 25.1339C9.91395 25.2937 10.2435 25.5072 9.92383 25.6339C10.2282 26.1923 10.0174 26.7924 10.0573 27.3714C10.0967 27.9435 10.0659 28.5203 10.0659 29.0894C10.1721 29.2413 10.3501 29.0983 10.5045 29.23C10.4269 30.2432 10.8131 31.2748 10.5244 32.3324V31.359C10.3392 31.3494 10.3023 31.4786 10.2157 31.5337L10.3391 31.6711C10.1072 32.0185 10.4966 32.2987 10.3243 32.7083C10.5168 32.5415 10.5777 32.4114 10.7866 32.5241C10.7322 32.6472 10.5877 32.723 10.5083 32.8383C10.7571 32.9657 10.9743 33.1367 10.9341 33.4399C10.8518 34.0578 11.0595 34.6463 11.1129 35.2485C11.1447 35.6078 11.1898 35.9779 11.2432 36.3402C11.2933 36.68 11.4144 37.0094 11.3765 37.3613C11.6979 37.6712 11.3384 38.1567 11.6677 38.4647C11.5604 38.8712 11.8781 39.2226 11.8196 39.6286C11.7941 39.8054 12.0657 39.9406 11.9544 40.1408C11.8627 40.3058 12.2506 40.4465 11.9614 40.6004C12.0481 40.7527 12.3051 40.8036 12.2401 41.0433C12.1531 41.156 12.1306 41.0298 12.0344 40.9977C11.7725 41.2296 11.3931 41.3527 11.1752 41.6802C11.0548 41.63 11.107 41.5145 11.0605 41.441C10.9581 41.3451 10.8297 41.4217 10.6992 41.3852L10.6141 41.1433C10.5205 41.0845 10.5154 41.2021 10.437 41.2241C10.3017 41.1602 10.1895 41.0625 10.2129 40.8788C10.2444 40.6317 10.1267 40.4213 9.98924 40.2535C9.74611 39.9756 9.62216 39.6149 9.64368 39.2481C9.65676 39.0656 9.36928 38.9021 9.6329 38.7132L9.33152 38.6075C9.39545 38.2242 9.21082 37.8741 9.12402 37.5019C9.00669 36.9987 8.94622 36.4867 8.77229 35.991C8.70145 35.7892 8.69948 35.5538 8.62206 35.333C8.54932 35.1258 8.61268 34.8967 8.48342 34.6669C8.38008 34.4831 8.52694 34.1636 8.42583 33.9759C8.30455 33.751 8.25206 33.6076 8.44006 33.4161C8.45652 33.3993 8.31385 33.2669 8.32611 33.2035C8.38296 32.9103 8.13835 32.6857 8.1674 32.398C8.19513 32.1231 8.18912 31.8482 8.03065 31.5927C7.89901 31.3803 8.26457 31.1472 8.02679 30.9232C7.95455 30.2735 7.83023 29.6292 7.87417 28.9686C7.88733 28.7714 7.96467 28.5452 7.74837 28.3711C7.68131 28.3171 7.7928 28.2117 7.82242 28.1299C7.91975 27.8643 7.94418 27.5679 7.81419 27.3188C7.74014 27.1763 7.70204 27.0372 7.75766 26.9286C7.81254 26.8216 7.87433 26.7859 7.76861 26.6603C7.68946 26.566 7.70715 26.4078 7.80974 26.2756C7.9325 26.118 7.95216 25.8708 7.83171 25.7586C7.63104 25.5716 8.02917 25.4555 7.8304 25.2921C7.63589 25.1323 7.71373 24.8775 7.75355 24.6909C7.78399 24.5483 7.76005 24.3927 7.82044 24.2662C7.95266 23.9898 7.86717 23.7056 7.87376 23.4273C7.88042 23.1474 8.10841 22.9238 8.03674 22.6216C8.01788 22.5097 7.96362 22.4066 7.88173 22.3271C8.0648 22.1896 8.02161 21.864 8.31714 21.8251Z" fill="#FFB460"></path> </svg> 