<?xml version="1.0" encoding="UTF-8"?> <svg xmlns="http://www.w3.org/2000/svg" width="21" height="25" viewBox="0 0 21 25" fill="none"> <g clip-path="url(#clip0)"> <path d="M16.3931 0.865892C12.3054 8.65148 7.131 15.78 1.0346 22.0247C-0.51426 23.6111 1.88251 26.0925 3.43137 24.4886C9.72679 18.0322 15.0739 10.6676 19.3043 2.6267C20.3501 0.650876 17.4106 -1.10993 16.3931 0.865892Z" fill="#FFB460"></path> <path d="M19.0103 15.6904C18.8599 15.6057 18.6979 15.5449 18.5298 15.5102C18.2688 15.207 17.9163 15.0026 17.5289 14.9299C17.1414 14.8572 16.7414 14.9203 16.3931 15.1092C14.8499 15.8821 13.5667 17.3814 13.6628 19.2468C13.7211 20.1269 14.0758 20.9587 14.6659 21.599C15.2561 22.2394 16.0448 22.6484 16.8965 22.7557C17.7482 22.863 18.6097 22.6619 19.3328 22.187C20.0559 21.7121 20.5955 20.993 20.8587 20.1534C21.0831 19.3042 21.0228 18.402 20.6874 17.5923C20.3521 16.7826 19.7613 16.1126 19.0103 15.6904ZM17.1223 19.3514C16.8509 19.1539 17.0036 18.8923 17.2636 18.6541H17.2975C17.8684 18.9911 17.4897 19.6129 17.1223 19.3514Z" fill="#FFB460"></path> <path d="M8.32661 5.56713C7.96483 3.39954 6.50077 1.40628 4.25097 1.29586C4.02644 1.27453 3.80014 1.3064 3.58946 1.389C3.37878 1.47161 3.18932 1.60276 3.03563 1.77239C0.842357 1.51669 -0.565179 4.06783 0.214901 6.14245C0.955413 8.09503 3.04128 10.3265 5.22325 10.2859C7.71046 10.2452 8.68839 7.77541 8.32661 5.56713ZM4.09269 5.90419C3.91746 5.70079 3.76483 5.45672 3.5896 5.25914C3.86045 5.17353 4.10303 5.01264 4.29054 4.79424C4.56753 4.85816 4.76537 5.42766 4.85582 5.66011C4.95338 5.91878 5.01246 6.1911 5.03105 6.46788C5.02691 6.56713 5.01748 6.66607 5.00279 6.76425C4.73146 6.45625 4.35837 6.21218 4.09269 5.90419Z" fill="#FFB460"></path> </g> <defs> <clipPath id="clip0"> <rect width="21" height="25" fill="white"></rect> </clipPath> </defs> </svg> 