<?xml version="1.0" encoding="UTF-8"?> <svg xmlns="http://www.w3.org/2000/svg" width="42" height="42" viewBox="0 0 42 42" fill="none"> <path d="M11.7389 24.6219C12.3962 21.9001 13.0334 19.2474 13.6788 16.5965C13.9196 15.6073 14.1148 14.6015 14.4473 13.641C14.8768 12.3999 15.8258 12.1574 16.9219 12.4215C19.8768 13.1334 21.1182 15.3184 22.2043 17.7152C22.4794 18.3223 22.8205 18.9021 23.1446 19.4876C23.603 20.3165 23.6952 20.3198 24.3059 19.5359C25.3763 18.1621 25.8316 16.5221 26.4079 14.9371C27.2024 12.7521 27.8053 10.5024 28.7452 8.36683C29.1294 7.49384 30.1524 6.82394 30.8047 7.04129C31.48 7.27486 32.1341 7.56223 32.7602 7.90045C34.4872 8.80914 35.4812 10.3529 36.3702 11.9597C37.9942 14.8947 39.723 17.7789 41.0487 20.861C41.2242 21.2689 41.5326 21.6755 41.4163 22.1191C41.3022 22.5544 41.1982 23.3067 40.4398 22.576C40.3201 22.4607 40.1957 22.3707 40.009 22.4264C38.7522 22.8012 38.2771 21.9111 37.7577 21.1099C36.2387 18.7681 34.7292 16.4209 33.2074 14.0811C33.0598 13.8541 32.9669 13.4618 32.6101 13.5489C32.3547 13.6114 32.3989 13.9828 32.2976 14.2116C31.5618 15.8716 31.3973 17.6887 30.7751 19.3801C30.433 20.31 30.067 21.2272 29.5061 22.0599C29.1463 22.5936 28.8009 23.1248 28.0654 23.2522C27.8369 23.2972 27.6336 23.4222 27.4945 23.6033C26.8134 24.6133 25.8388 24.2391 24.9253 24.1494C22.4103 23.9025 20.506 22.6961 19.1176 20.679C19.0689 20.6083 18.9608 20.576 18.8079 20.4805C18.6035 21.1116 18.2919 21.6232 18.1801 22.3026C17.7796 24.7363 17.4328 27.1887 16.5322 29.527C16.1767 30.4496 15.4961 31.0026 14.6574 31.3137C13.935 31.5815 13.2039 30.9844 12.3958 31.0534C10.8254 31.1877 9.90245 30.1451 9.07405 29.0527C8.68779 28.5434 8.36419 27.9895 8.00831 27.4499C7.02629 28.376 7.0932 29.6609 6.79148 30.7684C6.34166 32.4192 5.72719 33.9964 5.08966 35.5735C4.68061 36.5854 4.50819 37.6735 3.78766 38.5884C3.19217 39.3448 2.43141 38.9789 1.82562 38.9384C1.40681 38.9105 0.985553 38.3042 1.24794 37.577C3.07942 32.502 3.89055 27.231 4.36235 21.8988C4.45385 20.8648 5.09933 20.0175 5.78017 20.1131C6.43967 20.2057 7.09194 20.4184 7.71699 20.6538C9.27215 21.2401 10.2254 22.4456 11.04 23.7831C11.2007 24.0488 11.2581 24.3911 11.7389 24.6219Z" fill="#FFB460"></path> </svg> 