<?xml version="1.0" encoding="UTF-8"?> <svg xmlns="http://www.w3.org/2000/svg" width="140" height="58" viewBox="0 0 140 58" fill="none"> <path fill-rule="evenodd" clip-rule="evenodd" d="M11.0456 40.0092C8.20467 40.7314 10.0041 45.0213 12.691 44.151C15.495 43.2374 13.3442 39.4043 11.0456 40.0092Z" fill="#4E9385"></path> <path fill-rule="evenodd" clip-rule="evenodd" d="M128.67 39.367C126.205 40.1632 127.592 43.6198 130.279 43.2372C132.744 42.8977 130.698 38.7189 128.67 39.367Z" fill="#4E9385"></path> <path fill-rule="evenodd" clip-rule="evenodd" d="M47.2443 17.2881C46.8376 13.2821 46.93 5.64054 46.628 1.90616C46.4 0.288964 43.4913 0.103784 43.7686 4.33196C43.7686 10.3625 44.4465 16.0598 44.5389 22.0965C44.5389 25.1827 47.269 24.7074 48.1317 23.2199C49.3088 19.9855 50.5967 15.9795 51.6752 12.6093C51.9463 15.8437 51.8539 19.5349 52.2914 22.8187C52.5626 25.2012 55.2433 24.4359 55.1509 22.7261C55.2433 20.1213 55.0153 15.6215 54.9721 14.3191C54.6517 10.7205 54.6517 5.36895 54.3559 1.97406C53.9923 -0.0505245 52.0388 -0.365323 51.4472 1.97406C50.7631 4.67145 48.0824 16.4116 47.2197 17.3128" fill="#42271B"></path> <path fill-rule="evenodd" clip-rule="evenodd" d="M34.5186 0.0607637C29.5885 1.00516 31.0675 9.99852 30.7471 14.0045C31.0244 17.7821 31.0244 26.5038 37.1561 24.7076C42.5669 23.1768 43.1092 -1.37743 34.5186 0.0607637ZM33.6127 6.58512C33.4278 1.23355 36.885 1.90635 37.6553 7.16534C39.9724 22.8188 34.611 25.5594 33.9578 18.1401C33.6127 14.6341 33.7482 10.2269 33.6127 6.58512Z" fill="#42271B"></path> <path fill-rule="evenodd" clip-rule="evenodd" d="M109.979 18.0476H105.345C105.117 16.0724 104.729 7.48026 104.661 5.36926C104.661 4.19648 104.661 3.30146 104.618 2.44348C104.433 0.153475 101.888 0.289277 101.888 2.75828C101.617 7.48026 102.344 13.554 102.251 18.5476C102.344 19.5352 102.208 21.2882 102.344 22.9054C102.615 25.3744 105.209 24.4794 105.253 23.177C105.431 22.1894 105.345 21.5598 105.431 21.066C106.973 20.8954 108.53 20.8954 110.072 21.066C110.166 21.6918 110.225 22.3224 110.25 22.9548C110.614 25.0226 113.332 24.93 113.067 21.8252C112.66 17.5044 112.752 11.9492 112.66 7.48026C112.617 5.81985 112.475 3.15949 112.296 1.92499C111.933 -0.278599 109.708 -0.278603 109.523 2.01757C109.388 5.72109 110.139 13.9305 109.979 18.0229" fill="#42271B"></path> <path fill-rule="evenodd" clip-rule="evenodd" d="M83.8253 9.41793C84.6881 11.8869 85.2797 19.1767 86.5985 23.0839C87.1469 26.0097 89.5072 25.6949 89.1436 22.9543C88.5273 19.4421 85.6001 3.2022 84.6449 1.048C84.1026 0.017185 83.0981 0.0603937 82.5065 1.09738C81.6438 2.85037 79.6471 18.3804 79.0123 21.4235C78.0079 25.2011 80.9659 26.2813 81.6931 22.9543C82.0074 21.2445 83.5418 10.0907 83.8253 9.41793Z" fill="#42271B"></path> <path fill-rule="evenodd" clip-rule="evenodd" d="M24.3199 23.8989C24.6835 22.9977 24.4554 19.2634 24.591 19.2202C25.4598 18.9505 26.2416 18.4547 26.8566 17.7835C27.4715 17.1122 27.8976 16.2895 28.0913 15.3994C28.7754 12.0662 29.0034 4.82583 26.4583 1.94943C25.3675 0.782828 21.8672 -0.568946 21.4111 1.45564C21.6823 8.6528 21.5467 16.566 21.824 23.6767C21.8672 25.4297 23.8638 25.1643 24.3199 23.9051V23.8989ZM24.0487 3.8444C26.409 4.6098 26.409 15.5722 24.3692 16.6153L24.0487 3.8444Z" fill="#42271B"></path> <path fill-rule="evenodd" clip-rule="evenodd" d="M71.7714 21.8991C71.7714 20.9979 71.8146 19.7819 71.8146 18.8869C72.8129 18.7511 73.953 18.8869 74.409 18.7017C75.8572 18.0845 75.3149 16.3685 73.953 16.2327C73.497 16.1833 72.6342 16.2759 71.907 16.2759C71.7221 12.0478 71.5434 7.50478 71.3586 3.27661C72.2706 3.2334 73.497 3.27661 74.9082 3.27661C76.5844 3.27661 76.4981 0.894012 74.6802 0.536005C73.1423 0.351309 71.5899 0.320298 70.0459 0.443421C69.0414 0.536009 68.6778 0.8508 68.6778 2.01741C68.4067 8.09117 68.9983 15.6895 68.8134 22.3003C68.8134 23.9669 68.9059 24.9977 70.6622 24.9977C71.4818 24.9545 74.1625 24.9113 75.432 24.7323C77.934 24.3249 77.2068 21.8497 75.1116 21.8497C73.9776 21.8497 72.5726 21.8991 71.753 21.8991" fill="#42271B"></path> <path fill-rule="evenodd" clip-rule="evenodd" d="M5.11721 3.12337C6.62087 3.12337 6.84889 5.54917 8.16151 4.42577C10.2568 2.62339 4.25445 -3.67258 1.07457 3.66037C-0.379794 7.03057 -0.422931 18.6781 1.34572 22.0113C2.62137 24.3445 5.93683 25.7889 7.93966 23.6717C8.75312 22.8199 9.25228 20.7521 7.3234 20.8385C6.09089 20.8817 5.27743 22.7705 4.14352 20.5669C2.7816 17.8695 2.32557 4.33318 5.14186 3.12337" fill="#42271B"></path> <path fill-rule="evenodd" clip-rule="evenodd" d="M124.727 2.17769C124.634 4.1961 124.955 20.6952 125.226 23.3556C125.361 24.5901 127.691 25.0222 127.814 23.5346C127.999 21.8248 127.543 4.15289 127.364 1.93078C127.229 0.079028 124.819 0.492588 124.727 2.20238" fill="#42271B"></path> <path d="M11.9079 3.22092C9.6955 3.32586 9.53527 1.52965 10.3364 0.930915C10.8324 0.518372 11.4605 0.299171 12.1051 0.313664L17.6514 0.387731C18.2676 0.437111 19.2475 0.461802 19.6172 1.14078C20.5231 2.82588 18.1752 2.99254 16.7948 2.86909C16.7257 2.86789 16.657 2.87832 16.5914 2.89995V4.59739C16.5914 8.97371 16.7886 13.35 16.7824 17.7325C16.7824 18.8991 17.0598 22.7569 16.8379 23.4606C16.6858 23.7992 16.43 24.0805 16.1076 24.2637C15.7851 24.4468 15.4128 24.5222 15.0446 24.4791C13.7443 24.1396 14.0154 22.9174 13.96 21.8125C13.7505 17.6091 13.8552 12.8377 13.7998 8.30707C13.7998 6.79481 13.8491 5.30723 13.7381 3.87521C13.746 3.63289 13.7253 3.39049 13.6765 3.15303L11.9079 3.22092Z" fill="#42271B"></path> <path d="M58.6083 3.22106C56.3959 3.326 56.2357 1.52979 57.0368 0.931057C57.5345 0.517103 58.165 0.297813 58.8117 0.313805L64.358 0.387872C64.9742 0.437252 65.9479 0.461943 66.3177 1.14092C67.2297 2.82602 64.9064 3.06057 63.526 2.90626C63.4503 2.89702 63.3737 2.89702 63.298 2.90626V4.6037C63.298 8.98002 63.4952 13.3563 63.489 17.7388C63.489 18.9054 63.7725 22.7632 63.5445 23.4669C63.3928 23.8044 63.1379 24.085 62.8167 24.268C62.4955 24.4511 62.1246 24.5272 61.7574 24.4854C60.4571 24.1459 60.7221 22.9237 60.6666 21.8189C60.4632 17.6154 60.568 12.844 60.5125 8.31339C60.5125 6.80113 60.5557 5.31354 60.4509 3.88152C60.4567 3.63896 60.434 3.39656 60.3831 3.15934L58.6083 3.22106Z" fill="#42271B"></path> <path fill-rule="evenodd" clip-rule="evenodd" d="M94.5725 1.43115C94.9361 2.33234 94.7081 6.06671 94.8499 6.10992C95.7172 6.38108 96.4974 6.87745 97.1111 7.54855C97.7249 8.21965 98.1502 9.04156 98.344 9.93071C99.0281 13.2577 99.2561 20.4981 96.711 23.3806C95.6202 24.5472 92.1198 25.899 91.6638 23.8744C91.9411 16.6773 91.7994 8.7641 92.0767 1.65336C92.1198 -0.105808 94.1227 0.165786 94.5725 1.42498V1.43115ZM94.3014 21.4857C96.6616 20.7203 96.6617 9.75788 94.6218 8.70855L94.3014 21.4857Z" fill="#42271B"></path> <path fill-rule="evenodd" clip-rule="evenodd" d="M119.18 1.43115C119.544 2.33234 119.316 6.06671 119.451 6.10992C120.32 6.37959 121.102 6.87536 121.717 7.54662C122.332 8.21788 122.758 9.04058 122.951 9.93071C123.636 13.2577 123.864 20.4981 121.318 23.3806C120.228 24.5472 116.727 25.899 116.271 23.8744C116.542 16.6773 116.407 8.7641 116.678 1.65336C116.727 -0.105808 118.724 0.165786 119.18 1.42498V1.43115ZM118.909 21.4857C121.269 20.7203 121.269 9.75788 119.223 8.70855L118.909 21.4857Z" fill="#42271B"></path> <path fill-rule="evenodd" clip-rule="evenodd" d="M134.753 21.8991C134.753 20.9979 134.796 19.7819 134.796 18.8869C135.794 18.7511 136.934 18.8869 137.39 18.7017C138.839 18.0845 138.296 16.3685 136.934 16.2327C136.478 16.1833 135.616 16.2759 134.888 16.2759C134.704 12.0478 134.525 7.50478 134.34 3.27661C135.252 3.2334 136.478 3.27661 137.89 3.27661C139.566 3.27661 139.48 0.894012 137.662 0.536005C136.124 0.351309 134.571 0.320298 133.027 0.443421C132.023 0.536009 131.659 0.8508 131.659 2.01741C131.388 8.09117 131.98 15.6895 131.795 22.3003C131.795 23.9669 131.887 24.9977 133.644 24.9977C134.463 24.9545 137.144 24.9113 138.413 24.7323C140.915 24.3249 140.188 21.8497 138.099 21.8497C136.959 21.8497 135.554 21.8991 134.734 21.8991" fill="#42271B"></path> <path fill-rule="evenodd" clip-rule="evenodd" d="M65.8736 49.3422C65.6394 46.4535 65.3066 39.3798 65.2573 37.4848C65.2573 36.7935 65.2573 36.2009 65.2573 35.6331C65.4506 35.4697 65.6852 35.3629 65.9352 35.3244C65.9352 35.3244 68.2893 35.2504 69.4786 35.2874C69.6855 35.2888 69.8918 35.3095 70.0949 35.3491C70.0949 39.0526 70.6187 45.1573 70.5941 49.0213C70.6619 50.9409 70.5941 53.1445 70.8344 55.0518C71.198 57.1196 73.9157 57.0332 73.6569 53.9284C73.244 49.6077 73.3364 44.0524 73.244 39.5835C73.2008 37.9169 73.0653 35.2627 72.8804 34.0282C72.8619 33.6897 72.751 33.3627 72.5597 33.083C72.3685 32.8033 72.1042 32.5815 71.7958 32.4419C71.4445 32.2691 71.007 32.3431 70.0764 32.2937C68.733 32.2135 65.8058 32.4481 64.185 32.5592C63.7592 32.5632 63.3509 32.7294 63.043 33.0241C62.7351 33.3187 62.5507 33.7196 62.5273 34.1455V34.1764C62.5019 34.404 62.5019 34.6338 62.5273 34.8615C62.25 39.5835 62.9772 45.6511 62.8909 50.6446C62.9772 51.6322 62.8416 53.3852 62.9772 55.0086C63.2545 57.4776 65.8427 56.5826 65.8859 55.274C66.0399 53.5025 65.8304 51.0767 65.8859 49.3237" fill="#42271B"></path> <path fill-rule="evenodd" clip-rule="evenodd" d="M44.1939 56.0145C44.5575 55.1133 44.3295 51.3851 44.465 51.3358C45.3338 51.0661 46.1156 50.5703 46.7306 49.8991C47.3456 49.2278 47.7716 48.4051 47.9654 47.515C48.6433 44.188 48.8713 36.9476 46.3261 34.0712C45.2354 32.8984 41.735 31.5528 41.2852 33.5713C41.5563 40.7684 41.4207 48.6816 41.6919 55.7923C41.735 57.5453 43.7379 57.2737 44.1939 56.0145ZM43.9166 35.96C46.283 36.7192 46.283 47.6878 44.237 48.731L43.9166 35.96Z" fill="#42271B"></path> <path fill-rule="evenodd" clip-rule="evenodd" d="M34.1796 53.996C34.1796 53.0948 34.2228 51.885 34.2228 50.9838C35.2211 50.848 36.3612 50.9838 36.8172 50.8048C38.2654 50.1876 37.7231 48.4654 36.3612 48.3358C35.9052 48.2926 35.0424 48.379 34.3152 48.379C34.1303 44.157 33.9516 39.614 33.7668 35.4167C34.6788 35.3735 35.9052 35.4167 37.3164 35.4167C38.9926 35.4167 38.9063 33.0341 37.0884 32.6699C35.5501 32.4901 33.998 32.4612 32.4541 32.5835C31.4496 32.6699 31.086 32.9847 31.086 34.1575C30.8149 40.2251 31.4065 47.8297 31.2216 54.4404C31.2216 56.1008 31.3141 57.1378 33.0704 57.1378C33.89 57.0946 36.5707 57.0452 37.8402 56.8662C40.3422 56.465 39.615 53.9898 37.5259 53.9898C36.3858 53.9898 34.9808 54.033 34.1612 54.033" fill="#42271B"></path> <path fill-rule="evenodd" clip-rule="evenodd" d="M116.425 34.2937C116.339 36.3183 116.653 52.8112 116.93 55.4778C117.066 56.7123 119.395 57.1382 119.519 55.6568C119.697 53.947 119.247 36.2751 119.063 34.0221C118.927 32.1703 116.517 32.5839 116.425 34.2937" fill="#42271B"></path> <path d="M21.3248 35.3368C19.1125 35.4479 18.9523 33.6455 19.7534 33.0468C20.251 32.6328 20.8815 32.4135 21.5282 32.4295L27.0745 32.5098C27.6908 32.5592 28.6645 32.5777 29.0342 33.2628C29.9463 34.9417 27.5983 35.1146 26.2179 34.9849C26.1493 34.9887 26.0812 34.9991 26.0146 35.0158V36.7133C26.0146 41.0896 26.2118 45.4659 26.2056 49.8545C26.2056 51.0211 26.4891 54.879 26.2611 55.5765C26.1093 55.914 25.8545 56.1945 25.5333 56.3776C25.2121 56.5606 24.8411 56.6367 24.4739 56.5949C23.1736 56.2554 23.4386 55.0395 23.3831 53.9284C23.1798 49.7249 23.2845 44.9597 23.2291 40.4291C23.2291 38.9107 23.2722 37.4231 23.1675 35.9972C23.1733 35.7526 23.1506 35.5082 23.0997 35.2689L21.3248 35.3368Z" fill="#42271B"></path> <path d="M98.1105 35.3366C95.8981 35.4478 95.7379 33.6454 96.539 33.0466C97.035 32.6341 97.6631 32.4149 98.3077 32.4294L103.854 32.5096C104.47 32.559 105.45 32.5775 105.82 33.2627C106.726 34.9416 104.409 35.1823 103.028 35.0218C102.95 35.0157 102.872 35.0157 102.794 35.0218V36.7193C102.794 41.0956 102.991 45.4719 102.991 49.8606C102.991 51.0272 103.269 54.885 103.047 55.5825C102.894 55.9205 102.638 56.2012 102.316 56.3843C101.993 56.5673 101.621 56.6432 101.253 56.601C99.9531 56.2615 100.224 55.0455 100.169 53.9344C99.9593 49.731 100.064 44.9658 100.009 40.4351C100.009 38.9167 100.058 37.4291 99.9469 36.0033C99.9548 35.7589 99.9341 35.5145 99.8853 35.2749L98.1105 35.3366Z" fill="#42271B"></path> <path fill-rule="evenodd" clip-rule="evenodd" d="M91.621 38.1638L91.6703 38.1205C91.6703 38.1205 92.5146 37.386 92.5146 36.7317C92.5146 36.1762 92.2927 35.2318 91.5656 34.9355C91.6272 36.17 91.5656 37.8181 91.621 38.1638V38.1638ZM89.5134 32.6085C90.0791 32.3962 90.6909 32.3381 91.2864 32.44C91.8819 32.5419 92.4396 32.8003 92.9028 33.1887C94.4003 34.5405 94.5975 35.6577 94.6345 36.5465C94.6715 37.4354 94.7454 38.3983 93.402 39.2069C94.2706 39.944 94.8745 40.9455 95.1214 42.0586C95.8054 45.3856 96.0273 52.626 93.4883 55.5024C92.3975 56.669 88.8972 58.0208 88.4412 55.9962C88.7123 48.799 88.5767 40.8858 88.8479 33.7751C88.8269 33.5434 88.8741 33.3107 88.9836 33.1056C89.0931 32.9005 89.2601 32.732 89.4641 32.6208L89.5134 32.6085ZM91.1034 53.5951C93.4636 52.8297 93.4636 41.8673 91.4177 40.8241L91.1034 53.5951Z" fill="#42271B"></path> <path fill-rule="evenodd" clip-rule="evenodd" d="M111.033 33.553C111.397 34.4481 111.169 38.1824 111.311 38.2256C112.179 38.4973 112.959 38.9946 113.573 39.6669C114.187 40.3391 114.612 41.1623 114.805 42.0526C115.489 45.3796 115.717 52.6199 113.172 55.4963C112.081 56.6629 108.581 58.0147 108.125 55.9901C108.402 48.793 108.266 40.8798 108.537 33.7691C108.581 32.0161 110.583 32.2877 111.033 33.5469V33.553ZM110.762 53.6014C113.129 52.836 113.128 41.8736 111.083 40.8304L110.762 53.6014Z" fill="#42271B"></path> <path fill-rule="evenodd" clip-rule="evenodd" d="M80.0787 53.996C80.0787 53.0948 80.128 51.885 80.128 50.9838C81.1264 50.848 82.2603 50.9838 82.7163 50.8048C84.1707 50.1876 83.6222 48.4654 82.2603 48.3358C81.8042 48.2926 80.9415 48.379 80.2143 48.379C80.0356 44.157 79.8507 39.614 79.672 35.4167C80.5779 35.3735 81.8042 35.4167 83.2155 35.4167C84.8978 35.4167 84.8054 33.0341 82.9874 32.6699C81.4492 32.4901 79.8971 32.4612 78.3532 32.5835C77.3549 32.6699 76.9913 32.9847 76.9913 34.1575C76.714 40.2251 77.3056 47.8297 77.1269 54.4404C77.1269 56.1008 77.2193 57.1378 78.9756 57.1378C79.7952 57.0946 82.4759 57.0452 83.7454 56.8662C86.2474 56.465 85.5203 53.9898 83.4311 53.9898C82.2911 53.9898 80.886 54.033 80.0664 54.033" fill="#42271B"></path> <path fill-rule="evenodd" clip-rule="evenodd" d="M57.2464 53.663C56.0031 53.4172 54.7327 53.3383 53.4687 53.4285C53.3578 54.1877 53.2653 54.7741 53.2099 55.0704C52.4827 58.3974 49.5124 57.3172 50.5292 53.5396C51.2995 50.7558 53.0743 35.6393 53.7091 33.5715C54.3253 32.5407 56.3035 32.6271 56.6178 33.9789C57.573 36.1392 59.5696 51.336 60.2105 54.8482C60.9377 56.9592 57.8441 57.7677 57.6161 55.3419C57.4805 54.8235 57.3573 54.2618 57.2464 53.663V53.663ZM53.8631 50.7619L56.7903 50.873C56.2788 47.2189 55.9461 43.2438 55.3483 41.534C55.1326 41.9784 54.4239 46.9288 53.8631 50.7619V50.7619Z" fill="#42271B"></path> </svg> 