<?xml version="1.0" encoding="UTF-8"?> <svg xmlns="http://www.w3.org/2000/svg" width="42" height="42" viewBox="0 0 42 42" fill="none"> <path d="M20.6984 11.6549C20.3335 12.1994 19.8508 12.2622 19.4196 12.509C18.0324 13.3027 16.674 14.2039 15.3702 15.3347C14.9661 15.685 14.567 15.995 14.0894 15.8088C13.9733 15.7635 13.6476 15.6466 13.9068 16.2047C14.016 16.4397 13.8749 16.4816 13.7982 16.5589C13.0794 17.2836 12.3862 18.1079 11.6275 18.6803C11.3041 18.9235 11.1334 19.3597 10.868 19.6227C10.0639 20.4195 9.43678 21.5849 8.7027 22.5263C8.259 23.095 7.90615 23.8664 7.4972 24.5731C7.38306 24.3599 7.60641 24.1934 7.50279 24.0528C7.41187 23.929 7.26886 23.9918 7.23418 24.1161C7.09479 24.6166 6.70331 24.9124 6.81199 25.6188C6.82255 25.6795 6.82463 25.7435 6.81803 25.8058C6.81144 25.8681 6.79637 25.9269 6.77402 25.9775C6.75167 26.0281 6.72266 26.0692 6.6893 26.0974C6.65594 26.1257 6.61915 26.1403 6.58188 26.1401C6.37627 26.0991 6.23149 25.9868 6.36344 26.4912C6.37497 26.5352 6.35934 26.5996 6.35661 26.6545C5.70048 26.501 5.97885 27.5609 5.76069 27.9739C5.18886 29.056 4.76407 30.3235 4.19749 31.4292C3.7897 32.225 3.47392 33.2747 3.20279 34.3126C3.01268 35.0406 2.78195 35.807 2.46733 36.4305C2.29067 36.7805 2.12166 37.1243 2.03968 37.5501C1.92841 38.1274 1.65775 38.0797 1.39576 38.1256C1.07084 38.1826 1.18756 37.7591 1.15193 37.5025C1.08736 37.0376 0.788507 37.0507 0.618604 36.8563C-0.109271 36.0255 -0.0304286 34.8182 0.0511441 33.682C0.182889 31.8466 0.646045 30.1658 1.09678 28.498C2.52768 23.2038 4.60099 18.7289 7.2191 14.9991C9.66969 11.5075 12.4301 8.85919 15.3832 6.78934C16.6187 5.92303 17.9043 5.29665 19.1694 4.57364C20.2021 3.98352 21.2321 3.41134 22.289 2.97101C24.01 2.2538 25.7405 1.6222 27.4947 1.17364C30.4081 0.428622 33.3287 -0.144591 36.2814 0.032308C37.8298 0.128887 39.3629 0.587966 40.8372 1.39653C41.0934 1.52389 41.3347 1.72499 41.5507 1.99106C41.7077 2.19379 41.9341 2.3686 41.8844 2.75507C41.8383 3.1142 41.6751 3.38991 41.3496 3.39605C41.8225 3.74116 42.2665 4.03599 41.8063 4.97065C41.7381 5.10967 41.8011 5.19945 41.8356 5.33047C42.0145 6.01061 41.8795 6.4411 41.4393 6.65009C41.52 6.80069 41.7517 6.69643 41.7015 7.03957C41.6674 7.27509 41.5137 7.2474 41.4023 7.23466C40.1921 7.09564 38.9804 7.09564 37.7682 7.08C35.591 7.04231 33.4143 7.21001 31.248 7.58232C29.2527 7.9338 27.2756 8.44376 25.3067 9.0618C24.5297 9.32391 23.7646 9.67854 23.017 10.1231C29.0149 7.73014 35.1914 6.88925 41.3374 7.62889C41.1514 7.98801 40.912 7.849 40.7045 7.84332C35.6213 7.69816 30.5638 8.08289 25.5581 9.7475C24.0785 10.2395 22.6297 10.9196 21.1757 11.5722C21.0163 11.6518 20.8503 11.687 20.6843 11.6765C20.5493 11.1215 20.9021 11.3011 20.9693 11.2606C21.5612 10.9039 22.1703 10.6294 22.8734 10.2814C22.1953 10.1434 18.4788 12.1643 18.1829 12.808C18.5955 12.3804 19.0583 12.1824 19.5114 11.9605C19.8939 11.7729 20.2654 11.3219 20.6984 11.6549ZM34.2055 1.94101C35.66 1.98978 37.1016 2.05686 38.5269 2.48549C39.0658 2.64768 39.601 2.84589 40.1392 3.01515C40.2612 3.05349 40.4443 3.18892 40.4925 2.92699C40.5504 2.61235 40.3339 2.65706 40.2272 2.56786C40.1961 2.54788 40.1638 2.53404 40.1308 2.52662C38.1717 1.77766 36.1892 1.67676 34.2055 1.94101ZM40.7841 6.55753C39.8148 6.08383 34.6993 5.98154 33.6419 6.38677C36.0431 6.47898 38.4158 6.20477 40.7841 6.55753ZM39.4598 4.51757C38.184 4.1496 36.8879 4.02525 35.5957 4.14686L39.4598 4.51757Z" fill="#FFB460"></path> <path d="M35.7463 19.0161C35.9852 19.2382 36.1853 19.4121 36.3778 19.6081C36.5007 19.7333 36.6636 19.8289 36.6258 20.1647C36.5923 20.4629 36.4384 20.4374 36.3137 20.4897C36.2726 20.4995 36.2339 20.5283 36.2018 20.573C36.1697 20.6177 36.1455 20.6765 36.1318 20.7429C36.6403 20.9926 36.6498 21.108 36.4128 21.9116C36.3552 22.107 36.0635 22.3262 36.3404 22.752C36.4729 22.9555 36.2156 23.0133 36.1049 23.0266C35.4382 23.107 34.785 22.8865 34.1452 22.6406C33.2506 22.2968 32.3443 22.0795 31.4409 21.8625C29.375 21.3663 27.3179 21.6771 25.2648 22.216C24.0065 22.5429 22.7778 23.1388 21.6077 23.9893C23.265 23.3946 24.877 22.3943 26.6874 22.3314C26.466 22.7784 26.2335 22.7083 26.0453 22.7485C24.1479 23.1513 22.2892 23.9681 20.515 25.1785C20.4369 25.2316 20.3376 25.4449 20.2728 25.1878C20.1049 24.5245 19.8121 24.9803 19.6642 25.0951C19.4467 25.2636 19.0583 25.3641 19.2215 26.1802C18.6098 25.3369 18.3481 26.6089 17.8674 26.5405C17.9918 27.0115 18.1986 26.5947 18.3554 26.862C17.9907 27.2211 17.622 27.5412 17.2826 27.9343C17.0686 28.1821 17.1598 27.3774 16.8867 27.7106C16.5119 28.1681 16.0335 28.3787 15.653 28.8262C15.4764 29.0338 15.3321 28.773 15.1625 28.9906C15.4793 29.3747 15.4291 29.5848 15.0794 29.8395C14.5279 30.2343 14.0419 30.8529 13.6642 31.6409C13.4029 32.1869 13.0021 32.4982 12.7523 33.0825C12.6795 33.2533 12.5772 33.1494 12.4793 33.1114C12.0573 32.9475 11.8818 33.1852 11.8657 33.9223C11.8506 34.6093 11.8163 35.262 11.4382 35.7276C11.3993 35.7858 11.3535 35.8295 11.304 35.8559C11.2544 35.8822 11.2021 35.8905 11.1506 35.8804C10.8402 35.8507 10.621 36.6255 10.7356 37.1475C10.8853 37.83 10.718 38.586 10.5206 39.0466C10.1937 39.8096 10.3113 40.6089 10.2367 41.3821C10.1982 41.7801 10.1078 41.8888 9.91003 41.9723C9.50558 42.1432 9.56518 41.478 9.46053 41.1982C9.37056 40.9575 9.43678 40.6051 9.14352 40.7172C8.99942 40.7723 8.9285 40.5051 8.89007 40.275C8.78979 39.6749 8.53552 39.069 8.91567 38.4794C8.92147 38.4705 9.12659 38.07 8.82262 38.0254C8.72419 38.0109 8.66043 37.6177 8.7005 37.3609C8.88611 36.1714 8.84385 34.9027 9.15069 33.7511C9.22155 33.4852 9.20189 33.161 9.455 33.372C9.51289 33.4202 9.60026 33.4953 9.62265 33.3543C9.64136 33.2371 9.60572 32.9836 9.57173 32.9709C9.21602 32.8434 9.36012 32.4397 9.48149 32.2682C9.82116 31.7883 9.80184 30.9984 10.0669 30.4834C10.487 29.6672 10.779 28.6786 11.4071 28.1346C11.6341 27.9376 11.7577 27.209 11.9948 26.7676C12.641 25.5635 13.4295 24.6557 14.1668 23.6488C14.7423 22.8631 15.391 22.2274 16.0156 21.5446C17.4659 19.959 19.0231 18.7822 20.6331 17.786C22.6332 16.5484 24.7202 15.8746 26.8226 15.5019C29.0995 15.098 31.3898 15.1743 33.6373 16.1108C34.5125 16.4755 35.3638 16.9587 36.0899 17.9128C36.2252 18.0907 36.4752 18.2038 36.4022 18.5837C36.3381 18.9174 36.1167 18.9043 35.9293 18.8946C35.8881 18.892 35.8455 18.9478 35.7463 19.0161ZM24.387 17.8243C24.8853 17.7399 25.3836 17.5862 25.8819 17.5893C26.4497 17.5929 27.0049 17.3949 27.5873 17.4452C28.0314 17.4836 28.5582 17.3749 29.0397 17.3469C30.6946 17.2506 32.3207 17.7687 33.9467 18.2175C34.2215 18.308 34.49 18.4471 34.7477 18.6324C34.8292 18.6863 34.8795 18.8989 34.9942 18.7857C35.0129 18.7624 35.0283 18.7323 35.0391 18.6976C35.05 18.6628 35.0561 18.6243 35.0569 18.585C35.0487 18.3337 34.9211 18.2885 34.812 18.2362C34.3403 18.0101 33.8096 17.9526 33.4076 17.536C32.7617 16.8668 32.0658 17.1799 31.4069 16.9377C30.9342 16.7639 30.4034 17.0433 29.9896 16.7309C29.3677 16.2611 28.7867 16.5645 28.183 16.568C27.6048 16.5713 27.0527 17.0732 26.5249 17.0133C25.7409 16.9243 25.0548 17.1723 24.387 17.8243ZM32.415 21.3064C29.5238 20.336 26.6725 20.8108 23.8403 21.9871C26.6761 20.9439 29.5386 20.8709 32.415 21.3064ZM25.433 19.5488C26.9065 19.3669 28.3731 19.0717 29.8521 19.0794C28.375 18.7476 26.8741 18.907 25.433 19.5488ZM22.3137 18.3575C22.7801 18.8101 23.1788 18.0408 23.6198 18.2676C23.6924 18.3049 23.7751 18.1491 23.766 17.9931C23.7555 17.8116 23.66 17.6249 23.5721 17.7066C23.1841 18.0671 22.6926 17.8271 22.3137 18.3575Z" fill="#FFB460"></path> <path d="M34.6946 28.8012C34.5984 29.0233 34.4868 29.0652 34.3761 29.1182C34.2452 29.1807 34.0176 29.0481 34.0207 29.41C34.0239 29.7851 34.2435 29.6301 34.3777 29.6639C34.4267 29.6763 34.4793 29.6558 34.5269 29.6747C34.7385 29.7586 34.8341 29.9168 34.6282 30.2212C34.5848 30.2853 34.4652 30.3901 34.5327 30.4194C35.1305 30.6807 34.6069 31.1675 34.6198 31.5358C34.6465 32.3021 34.2242 32.1603 33.9936 32.3958C33.352 33.0515 32.5634 33.1551 31.9584 33.9904C31.7215 34.3175 31.4621 34.0519 31.3014 33.6202C30.9786 34.6311 30.3351 34.6603 29.8014 34.9773C28.7276 35.6144 27.5351 35.8745 26.5794 36.8308C25.6101 37.8013 24.5513 38.0809 23.559 38.7788L22.5433 38.8796C22.4003 38.9463 22.2593 39.0256 22.1211 39.1172C21.3899 39.6716 20.6502 40.178 19.8462 40.3389C19.679 40.3724 19.4595 40.6451 19.56 39.9259C19.5989 39.6471 19.1999 39.1613 18.9744 38.8198C18.868 38.6583 18.7296 38.5105 18.8042 38.2862C19.0611 37.5138 19.102 36.5545 19.6608 36.0456C21.0898 34.7318 22.5767 33.6076 24.108 32.6831C25.3278 31.9546 26.5617 31.3189 27.7983 30.6906C28.7934 30.1854 29.8039 29.7724 30.8254 29.4533C31.8474 29.1328 32.8476 28.6103 33.8863 28.3932C34.0304 28.3517 34.1783 28.3669 34.3184 28.4376C34.4586 28.5084 34.5872 28.6328 34.6946 28.8012Z" fill="#FFB460"></path> </svg> 